#N canvas 261 22 527 668 10;
#X declare -path ./ -path ../../;
#X msg 130 167 add sig1~;
#X obj 170 27 declare -path ./ -path ../../;
#X obj 30 117 ../get.time;
#X obj 240 277 pd-dom add-sig1~;
#X obj 30 27 loadbang;
#X obj 30 627 outlet;
#X obj 130 317 snapshot~;
#X msg 110 27 bang;
#N canvas 204 22 413 303 del 0;
#X obj 26 31 inlet;
#X obj 76 121 samplerate~;
#X obj 26 151 /;
#X obj 26 91 t a b;
#X msg 26 61 1000;
#X obj 26 211 delay;
#X obj 26 241 outlet;
#X obj 26 181 * 64;
#N canvas 677 22 582 299 why-one-block 0;
#X obj 75 193 sig~;
#X obj 42 103 t b b;
#X obj 75 133 f 1;
#X floatatom 42 254 5 0 0 0 - - -;
#X obj 42 224 snapshot~;
#X obj 328 195 sig~;
#X obj 255 105 t b b;
#X obj 328 135 f 1;
#X floatatom 255 256 5 0 0 0 - - -;
#X msg 388 155 0;
#X obj 255 226 snapshot~;
#X text 420 154 reset;
#N canvas 204 22 450 300 del 0;
#X obj 26 31 inlet;
#X obj 76 121 samplerate~;
#X obj 26 151 /;
#X obj 26 91 t a b;
#X msg 26 61 1000;
#X obj 26 211 delay;
#X obj 26 241 outlet;
#X obj 26 181 * 64;
#X connect 0 0 4 0;
#X connect 1 0 2 1;
#X connect 2 0 7 0;
#X connect 3 0 2 0;
#X connect 3 1 1 0;
#X connect 4 0 3 0;
#X connect 5 0 6 0;
#X connect 7 0 5 0;
#X restore 255 135 pd del;
#X msg 42 43 set sig~ and convert signal to a number with snapshot~
wont imediately display the current set value. It will take another
block read the set sig~value.;
#X connect 0 0 4 0;
#X connect 1 0 4 0;
#X connect 1 1 2 0;
#X connect 2 0 0 0;
#X connect 4 0 3 0;
#X connect 5 0 10 0;
#X connect 6 0 12 0;
#X connect 6 1 7 0;
#X connect 7 0 5 0;
#X connect 9 0 5 0;
#X connect 9 0 0 0;
#X connect 10 0 8 0;
#X connect 12 0 10 0;
#X connect 13 0 1 0;
#X connect 13 0 6 0;
#X restore 186 31 pd why-one-block;
#X connect 0 0 4 0;
#X connect 1 0 2 1;
#X connect 2 0 7 0;
#X connect 3 0 2 0;
#X connect 3 1 1 0;
#X connect 4 0 3 0;
#X connect 5 0 6 0;
#X connect 7 0 5 0;
#X restore 130 277 pd del;
#X msg 152 99 \; pd dsp 0;
#X obj 30 67 t b b;
#X obj 130 347 == 1;
#X obj 30 457 del 5;
#X obj 30 427 t b f;
#X obj 130 377 t a a;
#X obj 170 407 sel 1;
#X msg 170 437 symbol passed;
#X msg 220 467 symbol failed;
#X obj 30 487 t b b;
#X obj 117 490 pack f f s;
#X obj 30 527 list append;
#X msg 153 237 \; pd dsp 1;
#X obj 130 197 t b b a;
#X msg 30 587 run-add-sig1~.pd in \$1 ms. expecting 1 got \$2. test
\$3!;
#X obj 137 520 unpack f f s;
#X floatatom 137 550 5 0 0 0 - - -;
#X floatatom 197 550 5 0 0 0 - - -;
#X symbolatom 257 550 10 0 0 0 - - -;
#X connect 0 0 22 0;
#X connect 2 0 13 0;
#X connect 2 1 0 0;
#X connect 3 0 6 0;
#X connect 4 0 10 0;
#X connect 6 0 11 0;
#X connect 7 0 10 0;
#X connect 8 0 6 0;
#X connect 10 0 2 0;
#X connect 10 1 9 0;
#X connect 11 0 14 0;
#X connect 12 0 18 0;
#X connect 13 0 12 0;
#X connect 13 1 19 0;
#X connect 14 0 19 1;
#X connect 14 1 15 0;
#X connect 15 0 16 0;
#X connect 15 1 17 0;
#X connect 16 0 19 2;
#X connect 17 0 19 2;
#X connect 18 0 20 0;
#X connect 18 1 19 0;
#X connect 19 0 20 1;
#X connect 19 0 24 0;
#X connect 20 0 23 0;
#X connect 22 0 8 0;
#X connect 22 1 21 0;
#X connect 22 2 3 2;
#X connect 23 0 5 0;
#X connect 24 0 25 0;
#X connect 24 1 26 0;
#X connect 24 2 27 0;
