#N canvas 101 22 412 276 10;
#X obj 145 60 inlet;
#X obj 145 200 outlet;
#X obj 25 60 inlet~;
#X obj 25 200 outlet~;
#N canvas 346 193 426 408 out 0;
#X obj 114 315 outlet~;
#X obj 24 25 inlet~;
#X obj 114 215 list prepend \$1;
#X obj 114 95 route connect;
#X msg 134 66 connect;
#X obj 114 125 b;
#N canvas 0 22 343 395 find.previous 0;
#X obj 24 25 inlet;
#X obj 24 325 outlet;
#X obj 47 125 list length;
#X obj 70 245 list split;
#X obj 70 215 list append;
#X obj 103 275 list split 1;
#N canvas 44 22 290 211 count.down 0;
#X obj 89 126 - 1;
#X obj 24 25 inlet;
#X obj 24 165 outlet;
#X obj 24 65 t a a;
#X obj 24 95 until;
#X obj 24 125 f;
#X obj 114 25 inlet;
#X connect 0 0 5 1;
#X connect 1 0 3 0;
#X connect 3 0 4 0;
#X connect 3 1 0 0;
#X connect 4 0 5 0;
#X connect 5 0 2 0;
#X connect 5 0 0 0;
#X connect 6 0 4 1;
#X restore 47 155 pd count.down;
#X obj 47 185 t a b a;
#X obj 24 215 f;
#X obj 235 275 b;
#X obj 24 65 list prepend 0;
#X obj 24 95 t b a a;
#X obj 24 245 - 1;
#X obj 103 305 select .;
#X text 83 25 find previous object;
#X connect 0 0 10 0;
#X connect 2 0 6 0;
#X connect 3 1 5 0;
#X connect 4 0 3 0;
#X connect 5 0 13 0;
#X connect 6 0 7 0;
#X connect 7 0 8 1;
#X connect 7 1 4 0;
#X connect 7 2 3 1;
#X connect 8 0 12 0;
#X connect 9 0 6 1;
#X connect 10 0 11 0;
#X connect 11 0 8 0;
#X connect 11 1 2 0;
#X connect 11 2 4 1;
#X connect 12 0 1 0;
#X connect 13 1 9 0;
#X restore 114 185 pd find.previous;
#X obj 114 25 r \$1.last;
#X obj 114 155 pddom.get \$1.nodes~;
#X msg 114 245 set \$1.\$2.node;
#X obj 114 275 r~ \$1.-1.node;
#X connect 2 0 9 0;
#X connect 3 0 5 0;
#X connect 4 0 3 0;
#X connect 5 0 8 0;
#X connect 6 0 2 0;
#X connect 7 0 3 0;
#X connect 8 0 6 0;
#X connect 9 0 10 0;
#X connect 10 0 0 0;
#X restore 25 160 pd out;
#N canvas 134 271 450 300 in 0;
#X obj 31 38 inlet~;
#X obj 31 108 outlet~;
#X obj 31 68 s~ \$1.-1.node;
#X connect 0 0 2 0;
#X restore 25 100 pd in;
#X text 23 20 Pd-Dom 0.4.0-dev - (c) by Enrique Erne \, MIT License
;
#X obj 25 130 pddom.bin~ \$1;
#X obj 145 130 pddom.core \$1;
#N canvas 391 24 711 613 dom.connect 0;
#X obj 24 485 outlet~;
#X obj 24 385 list prepend \$1;
#X obj 24 165 list split;
#X obj 179 125 f \$2;
#N canvas 0 22 286 252 list-replace-simple 0;
#X obj 24 25 inlet;
#X obj 204 25 inlet;
#X obj 100 25 inlet;
#X obj 24 195 outlet;
#X obj 24 65 list split;
#X obj 57 95 list split 1;
#X obj 24 155 list append;
#X obj 98 125 list prepend 0;
#X connect 0 0 4 0;
#X connect 1 0 7 1;
#X connect 2 0 4 1;
#X connect 4 0 6 0;
#X connect 4 1 5 0;
#X connect 4 2 6 0;
#X connect 5 1 7 0;
#X connect 6 0 3 0;
#X connect 7 0 6 1;
#X restore 514 385 pd list-replace-simple;
#X obj 514 415 s \$1.nodes~.set;
#X obj 589 355 f \$2;
#X obj 589 325 t b a;
#X obj 514 265 t b a;
#N canvas 0 22 343 395 find.previous 0;
#X obj 24 25 inlet;
#X obj 24 325 outlet;
#X obj 47 125 list length;
#X obj 70 245 list split;
#X obj 70 215 list append;
#X obj 103 275 list split 1;
#X text 83 25 find last non zero;
#N canvas 44 22 290 211 count.down 0;
#X obj 89 126 - 1;
#X obj 24 25 inlet;
#X obj 24 165 outlet;
#X obj 24 65 t a a;
#X obj 24 95 until;
#X obj 24 125 f;
#X obj 114 25 inlet;
#X connect 0 0 5 1;
#X connect 1 0 3 0;
#X connect 3 0 4 0;
#X connect 3 1 0 0;
#X connect 4 0 5 0;
#X connect 5 0 2 0;
#X connect 5 0 0 0;
#X connect 6 0 4 1;
#X restore 47 155 pd count.down;
#X obj 47 185 t a b a;
#X obj 24 215 f;
#X obj 235 275 b;
#X obj 24 65 list prepend 0;
#X obj 24 95 t b a a;
#X obj 24 245 - 1;
#X obj 103 305 select .;
#X connect 0 0 11 0;
#X connect 2 0 7 0;
#X connect 3 1 5 0;
#X connect 4 0 3 0;
#X connect 5 0 14 0;
#X connect 7 0 8 0;
#X connect 8 0 9 1;
#X connect 8 1 4 0;
#X connect 8 2 3 1;
#X connect 9 0 13 0;
#X connect 10 0 7 1;
#X connect 11 0 12 0;
#X connect 12 0 9 0;
#X connect 12 1 2 0;
#X connect 12 2 4 1;
#X connect 13 0 1 0;
#X connect 14 1 10 0;
#X restore 24 195 pd find.previous;
#N canvas 340 22 385 513 find.next 0;
#X obj 84 125 list length;
#X obj 44 305 symbol last;
#X obj 44 345 route float;
#X obj 44 375 +;
#X obj 24 405 list append;
#X obj 24 65 t b a a b;
#X obj 24 25 inlet;
#X obj 44 155 sel 0;
#X obj 76 185 + 1;
#N canvas 680 22 226 465 find.next 0;
#X obj 24 25 inlet;
#X obj 24 415 outlet;
#X obj 24 95 list length;
#X obj 24 215 list split;
#X obj 24 185 list append;
#X obj 57 245 list split 1;
#N canvas 44 22 290 211 count.up 0;
#X obj 24 25 inlet;
#X obj 24 165 outlet;
#X obj 24 95 until;
#X obj 24 125 f;
#X obj 114 25 inlet;
#X obj 89 126 + 1;
#X obj 24 65 t a b;
#X obj 94 95 f 0;
#X connect 0 0 6 0;
#X connect 2 0 3 0;
#X connect 3 0 1 0;
#X connect 3 0 5 0;
#X connect 4 0 2 1;
#X connect 5 0 3 1;
#X connect 6 0 2 0;
#X connect 6 1 7 0;
#X connect 7 0 3 1;
#X restore 24 125 pd count.up;
#X obj 24 155 t b a a;
#X obj 24 345 f;
#X obj 24 65 t a a;
#X obj 110 305 t b b;
#X obj 174 215 b;
#X obj 24 375 + 1;
#X obj 57 275 select .;
#X connect 0 0 9 0;
#X connect 2 0 6 0;
#X connect 3 1 5 0;
#X connect 4 0 3 0;
#X connect 5 0 13 0;
#X connect 6 0 7 0;
#X connect 7 0 4 0;
#X connect 7 1 8 1;
#X connect 7 2 3 1;
#X connect 8 0 12 0;
#X connect 9 0 2 0;
#X connect 9 1 4 1;
#X connect 10 0 8 0;
#X connect 10 1 11 0;
#X connect 11 0 6 1;
#X connect 12 0 1 0;
#X connect 13 1 10 0;
#X restore 143 305 pd find.next;
#X obj 76 275 list split;
#X obj 253 305 symbol last;
#X obj 76 215 t b a b;
#X obj 24 445 outlet;
#X obj 84 95 pddom.get \$1.nodes~;
#X obj 76 245 pddom.get \$1.nodes~;
#X connect 0 0 7 1;
#X connect 1 0 2 0;
#X connect 2 0 3 0;
#X connect 2 1 4 1;
#X connect 3 0 4 1;
#X connect 4 0 13 0;
#X connect 5 0 4 0;
#X connect 5 1 7 0;
#X connect 5 2 3 1;
#X connect 5 3 14 0;
#X connect 6 0 5 0;
#X connect 7 0 1 0;
#X connect 7 1 8 0;
#X connect 8 0 12 0;
#X connect 9 0 2 0;
#X connect 10 1 9 0;
#X connect 11 0 2 0;
#X connect 12 0 15 0;
#X connect 12 1 10 1;
#X connect 12 2 11 0;
#X connect 14 0 0 0;
#X connect 15 0 10 0;
#X restore 237 325 pd find.next;
#X obj 237 295 f \$2;
#X obj 24 225 t a b a;
#X obj 24 85 t b b;
#X msg 237 385 \; \$1.\$2 connect;
#X obj 237 355 list prepend \$1;
#X text 514 245 register at nodes~;
#X obj 24 125 pddom.get \$1.nodes~;
#X obj 514 295 pddom.get \$1.nodes~;
#X msg 24 425 set \$1.\$2.node;
#X obj 24 455 r~ \$1.-1.node;
#X text 237 275 tell next node to connect;
#X text 34 365 connect to previous node;
#X obj 24 45 r \$1.connect;
#X connect 1 0 19 0;
#X connect 2 0 9 0;
#X connect 3 0 2 1;
#X connect 4 0 5 0;
#X connect 6 0 4 1;
#X connect 7 0 6 0;
#X connect 7 1 4 2;
#X connect 8 0 18 0;
#X connect 8 1 7 0;
#X connect 9 0 12 0;
#X connect 10 0 15 0;
#X connect 11 0 10 0;
#X connect 12 0 1 0;
#X connect 12 1 11 0;
#X connect 12 2 8 0;
#X connect 13 0 17 0;
#X connect 13 1 3 0;
#X connect 15 0 14 0;
#X connect 17 0 2 0;
#X connect 18 0 4 0;
#X connect 19 0 20 0;
#X connect 20 0 0 0;
#X connect 23 0 13 0;
#X restore 269 110 pd dom.connect;
#X obj 205 60 r \$1;
#X connect 0 0 8 0;
#X connect 2 0 5 0;
#X connect 4 0 3 0;
#X connect 5 0 7 0;
#X connect 7 0 4 0;
#X connect 10 0 8 0;
