#N canvas 219 22 498 431 10;
#X obj 145 60 inlet;
#X obj 145 340 outlet;
#X obj 25 60 inlet~;
#X obj 25 200 outlet~;
#X obj 25 130 pddom.bin~ \$1;
#X obj 375 190 pddom.core \$1;
#X obj 205 60 r \$1;
#N canvas 290 22 247 219 vis 0;
#X obj 24 95 list prepend \$1;
#X obj 24 25 inlet;
#X msg 24 125 \; \$1.\$2.vis findparent;
#N canvas 436 47 251 284 node.check 0;
#X obj 24 25 inlet;
#X obj 24 225 outlet;
#X obj 81 125 list length;
#X obj 24 185 spigot;
#X obj 63 155 <;
#X obj 24 65 t a a b;
#X obj 81 95 pddom.get \$1.nodes;
#X connect 0 0 5 0;
#X connect 2 0 4 1;
#X connect 3 0 1 0;
#X connect 4 0 3 1;
#X connect 5 0 3 0;
#X connect 5 1 4 0;
#X connect 5 2 6 0;
#X connect 6 0 2 0;
#X restore 24 65 pd node.check;
#X connect 0 0 2 0;
#X connect 1 0 3 0;
#X connect 3 0 0 0;
#X restore 315 190 pd vis;
#N canvas 301 58 535 342 node.disconnect 0;
#X obj 24 25 inlet;
#X obj 24 115 symbol last;
#N canvas 173 24 393 348 list-drip 0;
#X obj 24 25 inlet;
#X obj 144 277 outlet;
#X obj 112 245 t b a;
#X obj 142 215 list;
#X obj 112 185 list split 1;
#X obj 24 155 t b a;
#X obj 54 125 list;
#X obj 24 95 list split 64;
#X msg 44 65 1 2;
#X msg 84 65 1 2 3 4 5;
#X connect 0 0 7 0;
#X connect 2 0 3 0;
#X connect 2 1 1 0;
#X connect 3 0 4 0;
#X connect 4 0 2 0;
#X connect 4 1 3 1;
#X connect 5 0 6 0;
#X connect 5 1 4 0;
#X connect 6 0 7 0;
#X connect 7 0 5 0;
#X connect 7 1 6 1;
#X connect 7 2 4 0;
#X connect 8 0 7 0;
#X connect 9 0 7 0;
#X restore 126 115 pd list-drip;
#X obj 256 145 t b a;
#N canvas 63 22 352 299 list-replace-simple 0;
#X obj 24 25 inlet;
#X obj 204 25 inlet;
#X obj 100 25 inlet;
#X obj 24 235 outlet;
#X obj 24 95 list split;
#X obj 57 125 list split 1;
#X obj 24 195 list append;
#X obj 100 55 t a b;
#X obj 218 155 b;
#X obj 98 155 list prepend .;
#X connect 0 0 4 0;
#X connect 1 0 9 1;
#X connect 2 0 7 0;
#X connect 4 0 6 0;
#X connect 4 1 5 0;
#X connect 4 2 6 0;
#X connect 5 1 9 0;
#X connect 6 0 3 0;
#X connect 7 0 4 1;
#X connect 7 1 8 0;
#X connect 8 0 6 1;
#X connect 9 0 6 1;
#X restore 256 205 pd list-replace-simple .;
#X obj 256 235 s \$1.nodes~.set;
#N canvas 173 24 393 348 list-drip 0;
#X obj 24 25 inlet;
#X obj 144 277 outlet;
#X obj 112 245 t b a;
#X obj 142 215 list;
#X obj 112 185 list split 1;
#X obj 24 155 t b a;
#X obj 54 125 list;
#X obj 24 95 list split 64;
#X msg 44 65 1 2;
#X msg 84 65 1 2 3 4 5;
#X connect 0 0 7 0;
#X connect 2 0 3 0;
#X connect 2 1 1 0;
#X connect 3 0 4 0;
#X connect 4 0 2 0;
#X connect 4 1 3 1;
#X connect 5 0 6 0;
#X connect 5 1 4 0;
#X connect 6 0 7 0;
#X connect 7 0 5 0;
#X connect 7 1 6 1;
#X connect 7 2 4 0;
#X connect 8 0 7 0;
#X connect 9 0 7 0;
#X restore 256 115 pd list-drip;
#X obj 24 65 t b a a;
#N canvas 576 22 358 447 nodes~.find 0;
#X obj 24 155 list length;
#N canvas 44 22 290 211 count.down 0;
#X obj 89 126 - 1;
#X obj 24 25 inlet;
#X obj 24 165 outlet;
#X obj 24 65 t a a;
#X obj 24 95 until;
#X obj 24 125 f;
#X obj 114 25 inlet;
#X connect 0 0 5 1;
#X connect 1 0 3 0;
#X connect 3 0 4 0;
#X connect 3 1 0 0;
#X connect 4 0 5 0;
#X connect 5 0 2 0;
#X connect 5 0 0 0;
#X connect 6 0 4 1;
#X restore 24 185 pd count.down;
#X obj 24 125 t a a;
#X obj 24 275 list split;
#X obj 24 305 list split 1;
#X obj 24 245 list append;
#X obj 24 65 t b a;
#X obj 24 335 sel -1;
#X obj 24 215 t b a a;
#X obj 24 365 f;
#X obj 194 285 t a;
#X obj 24 405 outlet;
#X obj 24 25 inlet;
#X text 154 185 might change to count.up;
#N canvas 44 22 290 211 count.up 0;
#X obj 24 25 inlet;
#X obj 24 165 outlet;
#X obj 24 95 until;
#X obj 24 125 f;
#X obj 114 25 inlet;
#X obj 89 126 + 1;
#X obj 24 65 t a b;
#X obj 94 95 f 0;
#X connect 0 0 6 0;
#X connect 2 0 3 0;
#X connect 3 0 1 0;
#X connect 3 0 5 0;
#X connect 4 0 2 1;
#X connect 5 0 3 1;
#X connect 6 0 2 0;
#X connect 6 1 7 0;
#X connect 7 0 3 1;
#X restore 234 215 pd count.up;
#X obj 24 95 pddom.get \$1.nodes~;
#X connect 0 0 1 0;
#X connect 1 0 8 0;
#X connect 2 0 0 0;
#X connect 2 1 5 1;
#X connect 3 1 4 0;
#X connect 4 0 7 0;
#X connect 5 0 3 0;
#X connect 6 0 15 0;
#X connect 6 1 10 0;
#X connect 7 0 9 0;
#X connect 8 0 5 0;
#X connect 8 1 9 1;
#X connect 8 2 3 1;
#X connect 9 0 11 0;
#X connect 10 0 7 1;
#X connect 12 0 6 0;
#X connect 15 0 2 0;
#X restore 126 145 pd nodes~.find;
#X obj 256 175 pddom.get \$1.nodes~;
#X obj 24 245 s \$1;
#X msg 24 215 register \$1;
#X connect 0 0 7 0;
#X connect 1 0 11 0;
#X connect 2 0 8 0;
#X connect 3 0 9 0;
#X connect 3 1 4 1;
#X connect 4 0 5 0;
#X connect 6 0 3 0;
#X connect 7 0 1 0;
#X connect 7 1 2 0;
#X connect 7 2 6 0;
#X connect 8 0 11 0;
#X connect 9 0 4 0;
#X connect 11 0 10 0;
#X restore 265 230 pd node.disconnect;
#N canvas 610 22 403 265 nodes~ 0;
#X obj 23 144 list;
#X obj 23 114 b;
#X obj 23 84 r \$1.nodes~.get;
#X obj 63 114 r \$1.nodes~.set;
#X obj 23 204 s \$1.nodes~;
#X obj 23 174 list trim;
#X text 23 24 Global accessible list of signal processing objects \,
see [pdom.get]. List contains id of sender that each object listens
to. Signal processing objects have to register themself to this list.
;
#X connect 0 0 5 0;
#X connect 1 0 0 0;
#X connect 2 0 1 0;
#X connect 3 0 0 1;
#X connect 5 0 4 0;
#X restore 265 60 pd nodes~;
#N canvas 75 188 426 408 node.last 0;
#X obj 114 225 outlet~;
#X obj 24 25 inlet~;
#X msg 153 132 set \$1;
#X obj 114 195 r~ \$1.node.-1;
#X msg 137 165 rack1.node.2;
#X obj 114 25 r \$1.last;
#X msg 134 66 receive~ set rack1.node.-1;
#X obj 114 105 route receive~;
#X connect 3 0 0 0;
#X connect 5 0 7 0;
#X connect 6 0 7 0;
#X connect 7 0 4 0;
#X connect 7 0 3 0;
#X restore 25 160 pd node.last;
#N canvas 134 271 450 300 node.-1 0;
#X obj 31 38 inlet~;
#X obj 31 108 outlet~;
#X obj 31 68 s~ \$1.node.-1;
#X connect 0 0 2 0;
#X restore 25 100 pd node.-1;
#X text 23 20 Pd-Dom 0.6.0-dev - (c) by Enrique Erne \, MIT License
;
#X obj 145 130 route register connect disconnect vis;
#N canvas 0 22 450 300 node.connect 0;
#X obj 24 25 inlet;
#X obj 24 185 s;
#X obj 24 65 list prepend \$1;
#X obj 24 125 unpack s s;
#X msg 24 95 \$1.node.\$3 \$1.\$2;
#X msg 24 155 receive~ set \$1;
#X connect 0 0 2 0;
#X connect 2 0 4 0;
#X connect 3 0 5 0;
#X connect 3 1 1 1;
#X connect 4 0 3 0;
#X connect 5 0 1 0;
#X restore 215 270 pd node.connect;
#N canvas 179 22 735 719 node.register 0;
#X obj 164 175 list split;
#N canvas 0 22 343 395 find.previous 0;
#X obj 24 25 inlet;
#X obj 24 325 outlet;
#X obj 47 125 list length;
#X obj 70 245 list split;
#X obj 70 215 list append;
#X obj 103 275 list split 1;
#X text 83 25 find last non zero;
#N canvas 44 22 290 211 count.down 0;
#X obj 89 126 - 1;
#X obj 24 25 inlet;
#X obj 24 165 outlet;
#X obj 24 65 t a a;
#X obj 24 95 until;
#X obj 24 125 f;
#X obj 114 25 inlet;
#X connect 0 0 5 1;
#X connect 1 0 3 0;
#X connect 3 0 4 0;
#X connect 3 1 0 0;
#X connect 4 0 5 0;
#X connect 5 0 2 0;
#X connect 5 0 0 0;
#X connect 6 0 4 1;
#X restore 47 155 pd count.down;
#X obj 47 185 t a b a;
#X obj 24 215 f;
#X obj 235 275 b;
#X obj 24 65 list prepend 0;
#X obj 24 95 t b a a;
#X obj 24 245 - 1;
#X obj 103 305 select .;
#X connect 0 0 11 0;
#X connect 2 0 7 0;
#X connect 3 1 5 0;
#X connect 4 0 3 0;
#X connect 5 0 14 0;
#X connect 7 0 8 0;
#X connect 8 0 9 1;
#X connect 8 1 4 0;
#X connect 8 2 3 1;
#X connect 9 0 13 0;
#X connect 10 0 7 1;
#X connect 11 0 12 0;
#X connect 12 0 9 0;
#X connect 12 1 2 0;
#X connect 12 2 4 1;
#X connect 13 0 1 0;
#X connect 14 1 10 0;
#X restore 164 205 pd find.previous;
#N canvas 340 22 385 513 find.next 0;
#X obj 84 125 list length;
#X obj 44 305 symbol last;
#X obj 44 345 route float;
#X obj 44 375 +;
#X obj 24 405 list append;
#X obj 24 65 t b a a b;
#X obj 24 25 inlet;
#X obj 44 155 sel 0;
#X obj 76 185 + 1;
#N canvas 680 22 226 465 find.next 0;
#X obj 24 25 inlet;
#X obj 24 415 outlet;
#X obj 24 95 list length;
#X obj 24 215 list split;
#X obj 24 185 list append;
#X obj 57 245 list split 1;
#N canvas 44 22 290 211 count.up 0;
#X obj 24 25 inlet;
#X obj 24 165 outlet;
#X obj 24 95 until;
#X obj 24 125 f;
#X obj 114 25 inlet;
#X obj 89 126 + 1;
#X obj 24 65 t a b;
#X obj 94 95 f 0;
#X connect 0 0 6 0;
#X connect 2 0 3 0;
#X connect 3 0 1 0;
#X connect 3 0 5 0;
#X connect 4 0 2 1;
#X connect 5 0 3 1;
#X connect 6 0 2 0;
#X connect 6 1 7 0;
#X connect 7 0 3 1;
#X restore 24 125 pd count.up;
#X obj 24 155 t b a a;
#X obj 24 345 f;
#X obj 24 65 t a a;
#X obj 110 305 t b b;
#X obj 174 215 b;
#X obj 24 375 + 1;
#X obj 57 275 select .;
#X connect 0 0 9 0;
#X connect 2 0 6 0;
#X connect 3 1 5 0;
#X connect 4 0 3 0;
#X connect 5 0 13 0;
#X connect 6 0 7 0;
#X connect 7 0 4 0;
#X connect 7 1 8 1;
#X connect 7 2 3 1;
#X connect 8 0 12 0;
#X connect 9 0 2 0;
#X connect 9 1 4 1;
#X connect 10 0 8 0;
#X connect 10 1 11 0;
#X connect 11 0 6 1;
#X connect 12 0 1 0;
#X connect 13 1 10 0;
#X restore 143 305 pd find.next;
#X obj 76 275 list split;
#X obj 253 305 symbol last;
#X obj 76 215 t b a b;
#X obj 24 445 outlet;
#X obj 84 95 pddom.get \$1.nodes~;
#X obj 76 245 pddom.get \$1.nodes~;
#X connect 0 0 7 1;
#X connect 1 0 2 0;
#X connect 2 0 3 0;
#X connect 2 1 4 1;
#X connect 3 0 4 1;
#X connect 4 0 13 0;
#X connect 5 0 4 0;
#X connect 5 1 7 0;
#X connect 5 2 3 1;
#X connect 5 3 14 0;
#X connect 6 0 5 0;
#X connect 7 0 1 0;
#X connect 7 1 8 0;
#X connect 8 0 12 0;
#X connect 9 0 2 0;
#X connect 10 1 9 0;
#X connect 11 0 2 0;
#X connect 12 0 15 0;
#X connect 12 1 10 1;
#X connect 12 2 11 0;
#X connect 14 0 0 0;
#X connect 15 0 10 0;
#X restore 332 368 pd find.next;
#X obj 164 235 t a b a;
#X obj 164 135 pddom.get \$1.nodes~;
#X text 332 318 tell next node to connect;
#X text 174 405 connect to previous node;
#X obj 164 95 t b a;
#X obj 332 338 f;
#X obj 164 425 list prepend;
#X obj 24 65 route last;
#X obj 24 225 b;
#N canvas 0 22 343 395 find.previous 0;
#X obj 24 25 inlet;
#X obj 24 325 outlet;
#X obj 47 125 list length;
#X obj 70 245 list split;
#X obj 70 215 list append;
#X obj 103 275 list split 1;
#N canvas 44 22 290 211 count.down 0;
#X obj 89 126 - 1;
#X obj 24 25 inlet;
#X obj 24 165 outlet;
#X obj 24 65 t a a;
#X obj 24 95 until;
#X obj 24 125 f;
#X obj 114 25 inlet;
#X connect 0 0 5 1;
#X connect 1 0 3 0;
#X connect 3 0 4 0;
#X connect 3 1 0 0;
#X connect 4 0 5 0;
#X connect 5 0 2 0;
#X connect 5 0 0 0;
#X connect 6 0 4 1;
#X restore 47 155 pd count.down;
#X obj 47 185 t a b a;
#X obj 24 215 f;
#X obj 235 275 b;
#X obj 24 65 list prepend 0;
#X obj 24 95 t b a a;
#X obj 24 245 - 1;
#X obj 103 305 select .;
#X text 83 25 find previous object;
#X connect 0 0 10 0;
#X connect 2 0 6 0;
#X connect 3 1 5 0;
#X connect 4 0 3 0;
#X connect 5 0 13 0;
#X connect 6 0 7 0;
#X connect 7 0 8 1;
#X connect 7 1 4 0;
#X connect 7 2 3 1;
#X connect 8 0 12 0;
#X connect 9 0 6 1;
#X connect 10 0 11 0;
#X connect 11 0 8 0;
#X connect 11 1 2 0;
#X connect 11 2 4 1;
#X connect 12 0 1 0;
#X connect 13 1 9 0;
#X restore 24 285 pd find.previous;
#X obj 24 255 pddom.get \$1.nodes~;
#X obj 24 25 inlet;
#X obj 362 136 f;
#N canvas 0 22 286 252 list-replace-simple 0;
#X obj 24 25 inlet;
#X obj 204 25 inlet;
#X obj 100 25 inlet;
#X obj 24 195 outlet;
#X obj 24 65 list split;
#X obj 57 95 list split 1;
#X obj 24 155 list append;
#X obj 98 125 list prepend 0;
#X connect 0 0 4 0;
#X connect 1 0 7 1;
#X connect 2 0 4 1;
#X connect 4 0 6 0;
#X connect 4 1 5 0;
#X connect 4 2 6 0;
#X connect 5 1 7 0;
#X connect 6 0 3 0;
#X connect 7 0 6 1;
#X restore 547 617 pd list-replace-simple;
#X obj 547 647 s \$1.nodes~.set;
#X obj 547 517 t b a;
#X obj 547 557 pddom.get \$1.nodes~;
#X obj 622 587 unpack f f;
#X obj 332 398 select last;
#X obj 434 466 t a a;
#X obj 332 428 symbol last;
#X obj 332 458 list append;
#X obj 429 435 list append;
#X obj 547 307 list prepend;
#X text 557 497 register;
#X obj 24 625 s \$1;
#X msg 24 585 connect \$1 \$2;
#X msg 24 315 list last \$1;
#X connect 0 0 1 0;
#X connect 1 0 3 0;
#X connect 2 0 21 0;
#X connect 3 0 9 0;
#X connect 3 1 8 0;
#X connect 3 2 26 0;
#X connect 4 0 0 0;
#X connect 7 0 4 0;
#X connect 7 1 15 0;
#X connect 8 0 2 0;
#X connect 9 0 29 0;
#X connect 10 0 11 0;
#X connect 10 1 7 0;
#X connect 11 0 13 0;
#X connect 12 0 30 0;
#X connect 13 0 12 0;
#X connect 14 0 10 0;
#X connect 15 0 8 1;
#X connect 15 0 9 1;
#X connect 15 0 0 1;
#X connect 15 0 24 1;
#X connect 15 0 25 1;
#X connect 15 0 26 1;
#X connect 16 0 17 0;
#X connect 18 0 19 0;
#X connect 18 1 20 0;
#X connect 19 0 16 0;
#X connect 20 0 16 1;
#X connect 20 1 16 2;
#X connect 21 0 23 0;
#X connect 21 1 25 0;
#X connect 22 0 29 0;
#X connect 22 1 18 0;
#X connect 23 0 24 0;
#X connect 24 0 29 0;
#X connect 25 0 22 0;
#X connect 26 0 18 0;
#X connect 29 0 28 0;
#X connect 30 0 29 0;
#X restore 145 300 pd node.register;
#X connect 0 0 13 0;
#X connect 2 0 11 0;
#X connect 4 0 10 0;
#X connect 6 0 13 0;
#X connect 10 0 3 0;
#X connect 11 0 4 0;
#X connect 13 0 15 0;
#X connect 13 1 14 0;
#X connect 13 2 8 0;
#X connect 13 3 7 0;
#X connect 13 4 5 0;
