#N canvas 96 22 408 272 10;
#X obj 145 60 inlet;
#X obj 145 200 outlet;
#X obj 25 60 inlet~;
#X obj 25 200 outlet~;
#N canvas 346 193 511 317 out 0;
#X obj 114 245 outlet~;
#X obj 24 25 inlet~;
#X obj 114 135 t a a;
#X obj 114 75 route last;
#X obj 114 25 inlet;
#X obj 114 105 list prepend \$1;
#X msg 114 175 set \$1.\$2.s;
#X obj 114 205 r~ \$1.-1.s;
#X connect 2 0 6 0;
#X connect 3 0 5 0;
#X connect 4 0 3 0;
#X connect 5 0 2 0;
#X connect 6 0 7 0;
#X connect 7 0 0 0;
#X restore 25 160 pd out;
#N canvas 134 271 450 300 in 0;
#X obj 31 38 inlet~;
#X obj 31 108 outlet~;
#X obj 31 68 s~ \$1.-1.s;
#X connect 0 0 2 0;
#X restore 25 100 pd in;
#X obj 25 130 pddom.core~ \$1;
#X text 23 20 Pd-Dom 0.4.0-dev - (c) by Enrique Erne \, MIT License
;
#X connect 0 0 6 1;
#X connect 2 0 5 0;
#X connect 4 0 3 0;
#X connect 5 0 6 0;
#X connect 6 0 4 0;
#X connect 6 1 4 1;
