#N canvas 96 22 408 272 10;
#X obj 145 60 inlet;
#X obj 145 200 outlet;
#X obj 25 60 inlet~;
#X obj 25 200 outlet~;
#N canvas 346 193 496 448 out 0;
#X obj 114 355 outlet~;
#X obj 24 25 inlet~;
#X obj 114 245 t a a;
#X obj 114 215 list prepend \$1;
#X msg 114 285 set \$1.\$2.s;
#X obj 114 315 r~ \$1.-1.s;
#X obj 114 95 route connect;
#X msg 134 66 connect;
#X obj 114 125 b;
#N canvas 0 22 343 395 find.previous 0;
#X obj 24 25 inlet;
#X obj 24 325 outlet;
#X obj 47 125 list length;
#X obj 70 245 list split;
#X obj 70 215 list append;
#X obj 103 275 list split 1;
#N canvas 44 22 290 211 count.down 0;
#X obj 89 126 - 1;
#X obj 24 25 inlet;
#X obj 24 165 outlet;
#X obj 24 65 t a a;
#X obj 24 95 until;
#X obj 24 125 f;
#X obj 114 25 inlet;
#X connect 0 0 5 1;
#X connect 1 0 3 0;
#X connect 3 0 4 0;
#X connect 3 1 0 0;
#X connect 4 0 5 0;
#X connect 5 0 2 0;
#X connect 5 0 0 0;
#X connect 6 0 4 1;
#X restore 47 155 pd count.down;
#X obj 47 185 t a b a;
#X obj 24 215 f;
#X obj 235 275 b;
#X obj 24 65 list prepend 0;
#X obj 24 95 t b a a;
#X obj 24 245 - 1;
#X obj 103 305 select .;
#X text 83 25 find previous object;
#X connect 0 0 10 0;
#X connect 2 0 6 0;
#X connect 3 1 5 0;
#X connect 4 0 3 0;
#X connect 5 0 13 0;
#X connect 6 0 7 0;
#X connect 7 0 8 1;
#X connect 7 1 4 0;
#X connect 7 2 3 1;
#X connect 8 0 12 0;
#X connect 9 0 6 1;
#X connect 10 0 11 0;
#X connect 11 0 8 0;
#X connect 11 1 2 0;
#X connect 11 2 4 1;
#X connect 12 0 1 0;
#X connect 13 1 9 0;
#X restore 114 185 pd find.previous;
#X obj 114 25 r \$1.last;
#X obj 114 155 pddom.get \$1.nodes~;
#X connect 2 0 4 0;
#X connect 3 0 2 0;
#X connect 4 0 5 0;
#X connect 5 0 0 0;
#X connect 6 0 8 0;
#X connect 7 0 6 0;
#X connect 8 0 11 0;
#X connect 9 0 3 0;
#X connect 10 0 6 0;
#X connect 11 0 9 0;
#X restore 25 160 pd out;
#N canvas 134 271 450 300 in 0;
#X obj 31 38 inlet~;
#X obj 31 108 outlet~;
#X obj 31 68 s~ \$1.-1.s;
#X connect 0 0 2 0;
#X restore 25 100 pd in;
#X obj 25 130 pddom.core~ \$1;
#X text 23 20 Pd-Dom 0.4.0-dev - (c) by Enrique Erne \, MIT License
;
#X connect 0 0 6 1;
#X connect 2 0 5 0;
#X connect 4 0 3 0;
#X connect 5 0 6 0;
#X connect 6 0 4 0;
