#N canvas 355 22 556 366 10;
#X obj 145 60 inlet;
#X obj 25 60 inlet~;
#X obj 25 220 outlet~;
#X obj 25 140 pddom.bin~ \$1;
#X obj 428 189 pddom.core \$1;
#X obj 205 60 r \$1;
#N canvas 290 22 247 219 vis 0;
#X obj 24 95 list prepend \$1;
#X obj 24 25 inlet;
#X msg 24 125 \; \$1.\$2.vis findparent;
#N canvas 436 47 251 284 node.check 0;
#X obj 24 25 inlet;
#X obj 24 225 outlet;
#X obj 81 125 list length;
#X obj 24 185 spigot;
#X obj 63 155 <;
#X obj 24 65 t a a b;
#X obj 81 95 pddom.get \$1.nodes;
#X connect 0 0 5 0;
#X connect 2 0 4 1;
#X connect 3 0 1 0;
#X connect 4 0 3 1;
#X connect 5 0 3 0;
#X connect 5 1 4 0;
#X connect 5 2 6 0;
#X connect 6 0 2 0;
#X restore 24 65 pd node.check;
#X connect 0 0 2 0;
#X connect 1 0 3 0;
#X connect 3 0 0 0;
#X restore 355 160 pd vis;
#N canvas 250 297 426 408 node.last 0;
#X obj 114 195 outlet~;
#X obj 24 25 inlet~;
#X obj 114 165 r~ \$1.node.-1;
#X obj 114 25 r \$1.last;
#X msg 134 66 receive~ set rack1.node.-1;
#X obj 114 105 route receive~;
#X msg 137 135 rack1.node.4;
#X connect 2 0 0 0;
#X connect 3 0 5 0;
#X connect 4 0 5 0;
#X connect 5 0 6 0;
#X connect 5 0 2 0;
#X restore 25 170 pd node.last;
#N canvas 134 271 450 300 node.-1 0;
#X obj 31 38 inlet~;
#X obj 31 108 outlet~;
#X obj 31 68 s~ \$1.node.-1;
#X obj 161 38 r \$1.-1;
#X connect 0 0 2 0;
#X restore 25 110 pd node.-1;
#N canvas 59 22 396 264 extend 0;
#X obj 24 25 inlet;
#X obj 154 195 outlet;
#N canvas 417 22 348 277 reset 0;
#X obj 24 25 inlet;
#X obj 24 65 t b b;
#X obj 84 105 list append \$1;
#X obj 24 205 outlet;
#X msg 24 135 reset;
#X msg 84 135 \; \$1.last receive~ set \$1.node.-1 \; \$1 node~ reset
;
#X connect 0 0 1 0;
#X connect 1 0 4 0;
#X connect 1 1 2 0;
#X connect 2 0 5 0;
#X connect 4 0 3 0;
#X restore 24 135 pd reset;
#X obj 24 65 route reset node;
#N canvas 385 22 435 352 node 0;
#X obj 24 25 inlet;
#X obj 24 65 route add;
#X obj 24 245 outlet;
#X msg 24 175 node add;
#X obj 24 125 t b b;
#X obj 174 245 s \$1;
#X msg 174 175 node~ add;
#X obj 174 105 list prepend node;
#X obj 174 135 list trim;
#X connect 0 0 1 0;
#X connect 1 0 4 0;
#X connect 1 1 7 0;
#X connect 3 0 2 0;
#X connect 4 0 3 0;
#X connect 4 1 6 0;
#X connect 6 0 5 0;
#X connect 7 0 8 0;
#X connect 8 0 2 0;
#X restore 74 105 pd node;
#X connect 0 0 3 0;
#X connect 2 0 1 0;
#X connect 3 0 2 0;
#X connect 3 1 4 0;
#X connect 3 2 1 0;
#X connect 4 0 1 0;
#X restore 428 159 pd extend;
#N canvas 558 105 608 548 node~ 0;
#X obj 23 424 list;
#X obj 23 394 b;
#X obj 23 364 r \$1.nodes~.get;
#X obj 63 394 r \$1.nodes~.set;
#X obj 23 484 s \$1.nodes~;
#X obj 23 454 list trim;
#X text 23 304 Global accessible list of signal processing objects
\, see [pdom.get]. List contains id of sender that each object listens
to. Signal processing objects have to register themself to this list.
;
#X obj 24 25 inlet;
#N canvas 0 22 286 252 list-replace-simple 0;
#X obj 24 25 inlet;
#X obj 204 25 inlet;
#X obj 100 25 inlet;
#X obj 24 195 outlet;
#X obj 24 65 list split;
#X obj 57 95 list split 1;
#X obj 24 155 list append;
#X obj 98 125 list prepend 0;
#X connect 0 0 4 0;
#X connect 1 0 7 1;
#X connect 2 0 4 1;
#X connect 4 0 6 0;
#X connect 4 1 5 0;
#X connect 4 2 6 0;
#X connect 5 1 7 0;
#X connect 6 0 3 0;
#X connect 7 0 6 1;
#X restore 24 225 pd list-replace-simple;
#X obj 24 255 s \$1.nodes~.set;
#X obj 24 135 t b a;
#X obj 24 165 pddom.get \$1.nodes~;
#X obj 234 225 s \$1.nodes~.set;
#X obj 234 195 list append .;
#X obj 234 165 pddom.get \$1.nodes~;
#X obj 234 135 b;
#X obj 99 195 list split 1;
#X obj 24 65 route replace add reset;
#X obj 394 225 s \$1.nodes~.set;
#X obj 394 135 b;
#X connect 0 0 5 0;
#X connect 1 0 0 0;
#X connect 2 0 1 0;
#X connect 3 0 0 1;
#X connect 5 0 4 0;
#X connect 7 0 17 0;
#X connect 8 0 9 0;
#X connect 10 0 11 0;
#X connect 10 1 16 0;
#X connect 11 0 8 0;
#X connect 13 0 12 0;
#X connect 14 0 13 0;
#X connect 15 0 14 0;
#X connect 16 0 8 1;
#X connect 16 1 8 2;
#X connect 17 0 10 0;
#X connect 17 1 15 0;
#X connect 17 2 19 0;
#X connect 19 0 18 0;
#X restore 305 190 pd node~;
#N canvas 215 22 349 377 connect 0;
#X obj 24 25 inlet;
#X obj 24 225 list prepend \$1;
#X obj 24 65 t a a;
#X obj 87 173 s \$1;
#X obj 87 113 route last;
#X msg 87 143 node~ replace \$1 \$2;
#X msg 24 255 \; \$1.\$2 receive~ set \$1.node.\$3 \; \$1.\$3 send
symbol \$1.\$2;
#X connect 0 0 2 0;
#X connect 1 0 6 0;
#X connect 2 0 1 0;
#X connect 2 1 4 0;
#X connect 4 1 5 0;
#X connect 5 0 3 0;
#X restore 205 250 pd connect;
#N canvas 60 22 474 345 subscribe 0;
#N canvas 778 22 302 497 find.previous 0;
#X obj 24 25 inlet;
#X obj 24 425 outlet;
#X obj 47 225 list length;
#X obj 70 345 list split;
#X obj 70 315 list append;
#X obj 103 375 list split 1;
#N canvas 44 22 290 211 count.down 0;
#X obj 89 126 - 1;
#X obj 24 25 inlet;
#X obj 24 165 outlet;
#X obj 24 65 t a a;
#X obj 24 95 until;
#X obj 24 125 f;
#X obj 114 25 inlet;
#X connect 0 0 5 1;
#X connect 1 0 3 0;
#X connect 3 0 4 0;
#X connect 3 1 0 0;
#X connect 4 0 5 0;
#X connect 5 0 2 0;
#X connect 5 0 0 0;
#X connect 6 0 4 1;
#X restore 47 255 pd count.down;
#X obj 47 285 t a b a;
#X obj 24 315 f;
#X obj 235 375 b;
#X obj 24 165 list prepend 0;
#X obj 24 195 t b a a;
#X obj 24 345 - 1;
#X obj 103 405 select .;
#X obj 24 125 list split;
#X obj 24 95 pddom.get \$1.nodes~;
#X obj 24 65 t b a;
#X text 83 25 find previous non zero;
#X connect 0 0 16 0;
#X connect 2 0 6 0;
#X connect 3 1 5 0;
#X connect 4 0 3 0;
#X connect 5 0 13 0;
#X connect 6 0 7 0;
#X connect 7 0 8 1;
#X connect 7 1 4 0;
#X connect 7 2 3 1;
#X connect 8 0 12 0;
#X connect 9 0 6 1;
#X connect 10 0 11 0;
#X connect 11 0 8 0;
#X connect 11 1 2 0;
#X connect 11 2 4 1;
#X connect 12 0 1 0;
#X connect 13 1 9 0;
#X connect 14 0 10 0;
#X connect 15 0 14 0;
#X connect 16 0 15 0;
#X connect 16 1 14 1;
#X restore 74 155 pd find.previous;
#N canvas 647 22 385 513 find.next 0;
#X obj 84 125 list length;
#X obj 44 305 symbol last;
#X obj 44 345 route float;
#X obj 44 375 +;
#X obj 24 405 list append;
#X obj 24 65 t b a a b;
#X obj 24 25 inlet;
#X obj 44 155 sel 0;
#X obj 76 185 + 1;
#N canvas 680 22 226 465 find.next 0;
#X obj 24 25 inlet;
#X obj 24 415 outlet;
#X obj 24 95 list length;
#X obj 24 215 list split;
#X obj 24 185 list append;
#X obj 57 245 list split 1;
#N canvas 44 22 290 211 count.up 0;
#X obj 24 25 inlet;
#X obj 24 165 outlet;
#X obj 24 95 until;
#X obj 24 125 f;
#X obj 114 25 inlet;
#X obj 89 126 + 1;
#X obj 24 65 t a b;
#X obj 94 95 f 0;
#X connect 0 0 6 0;
#X connect 2 0 3 0;
#X connect 3 0 1 0;
#X connect 3 0 5 0;
#X connect 4 0 2 1;
#X connect 5 0 3 1;
#X connect 6 0 2 0;
#X connect 6 1 7 0;
#X connect 7 0 3 1;
#X restore 24 125 pd count.up;
#X obj 24 155 t b a a;
#X obj 24 345 f;
#X obj 24 65 t a a;
#X obj 110 305 t b b;
#X obj 174 215 b;
#X obj 24 375 + 1;
#X obj 57 275 sel .;
#X connect 0 0 9 0;
#X connect 2 0 6 0;
#X connect 3 1 5 0;
#X connect 4 0 3 0;
#X connect 5 0 13 0;
#X connect 6 0 7 0;
#X connect 7 0 4 0;
#X connect 7 1 8 1;
#X connect 7 2 3 1;
#X connect 8 0 12 0;
#X connect 9 0 2 0;
#X connect 9 1 4 1;
#X connect 10 0 8 0;
#X connect 10 1 11 0;
#X connect 11 0 6 1;
#X connect 12 0 1 0;
#X connect 13 1 10 0;
#X restore 143 305 pd find.next;
#X obj 76 275 list split;
#X obj 253 305 symbol last;
#X obj 76 215 t b a b;
#X obj 24 445 outlet;
#X obj 84 95 pddom.get \$1.nodes~;
#X obj 76 245 pddom.get \$1.nodes~;
#X connect 0 0 7 1;
#X connect 1 0 2 0;
#X connect 2 0 3 0;
#X connect 2 1 4 1;
#X connect 3 0 4 1;
#X connect 4 0 13 0;
#X connect 5 0 4 0;
#X connect 5 1 7 0;
#X connect 5 2 3 1;
#X connect 5 3 14 0;
#X connect 6 0 5 0;
#X connect 7 0 1 0;
#X connect 7 1 8 0;
#X connect 8 0 12 0;
#X connect 9 0 2 0;
#X connect 10 1 9 0;
#X connect 11 0 2 0;
#X connect 12 0 15 0;
#X connect 12 1 10 1;
#X connect 12 2 11 0;
#X connect 14 0 0 0;
#X connect 15 0 10 0;
#X restore 304 155 pd find.next;
#X text 84 135 connect to previous node;
#X obj 24 25 inlet;
#X obj 24 295 s \$1;
#X msg 24 255 connect \$1 \$2;
#X obj 24 65 t a a;
#X text 309 135 connect next node;
#X obj 254 115 t a a;
#X obj 24 115 t a a;
#X obj 254 195 list prepend;
#X obj 24 195 list append;
#X connect 0 0 11 1;
#X connect 1 0 10 1;
#X connect 3 0 6 0;
#X connect 5 0 4 0;
#X connect 6 0 9 0;
#X connect 6 1 8 0;
#X connect 8 0 10 0;
#X connect 8 1 1 0;
#X connect 9 0 11 0;
#X connect 9 1 0 0;
#X connect 10 0 5 0;
#X connect 11 0 5 0;
#X restore 145 280 pd subscribe;
#N canvas 189 22 496 470 disconnect 0;
#X obj 24 25 inlet;
#X obj 24 365 s \$1;
#N canvas 340 22 385 513 find.next 0;
#X obj 84 125 list length;
#X obj 44 305 symbol last;
#X obj 44 345 route float;
#X obj 44 375 +;
#X obj 24 405 list append;
#X obj 24 65 t b a a b;
#X obj 24 25 inlet;
#X obj 44 155 sel 0;
#X obj 76 185 + 1;
#N canvas 124 22 226 465 find.next 0;
#X obj 24 25 inlet;
#X obj 24 415 outlet;
#X obj 24 95 list length;
#X obj 24 215 list split;
#X obj 24 185 list append;
#X obj 57 245 list split 1;
#N canvas 44 22 290 211 count.up 0;
#X obj 24 25 inlet;
#X obj 24 165 outlet;
#X obj 24 95 until;
#X obj 24 125 f;
#X obj 114 25 inlet;
#X obj 89 126 + 1;
#X obj 24 65 t a b;
#X obj 94 95 f 0;
#X connect 0 0 6 0;
#X connect 2 0 3 0;
#X connect 3 0 1 0;
#X connect 3 0 5 0;
#X connect 4 0 2 1;
#X connect 5 0 3 1;
#X connect 6 0 2 0;
#X connect 6 1 7 0;
#X connect 7 0 3 1;
#X restore 24 125 pd count.up;
#X obj 24 155 t b a a;
#X obj 24 345 f;
#X obj 24 65 t a a;
#X obj 110 305 t b b;
#X obj 174 215 b;
#X obj 24 375 + 1;
#X obj 57 275 select .;
#X connect 0 0 9 0;
#X connect 2 0 6 0;
#X connect 3 1 5 0;
#X connect 4 0 3 0;
#X connect 5 0 13 0;
#X connect 6 0 7 0;
#X connect 7 0 4 0;
#X connect 7 1 8 1;
#X connect 7 2 3 1;
#X connect 8 0 12 0;
#X connect 9 0 2 0;
#X connect 9 1 4 1;
#X connect 10 0 8 0;
#X connect 10 1 11 0;
#X connect 11 0 6 1;
#X connect 12 0 1 0;
#X connect 13 1 10 0;
#X restore 143 305 pd find.next;
#X obj 76 275 list split;
#X obj 253 305 symbol last;
#X obj 76 215 t b a b;
#X obj 24 445 outlet;
#X obj 84 95 pddom.get \$1.nodes~;
#X obj 76 245 pddom.get \$1.nodes~;
#X connect 0 0 7 1;
#X connect 1 0 2 0;
#X connect 2 0 3 0;
#X connect 2 1 4 1;
#X connect 3 0 4 1;
#X connect 4 0 13 0;
#X connect 5 0 4 0;
#X connect 5 1 7 0;
#X connect 5 2 3 1;
#X connect 5 3 14 0;
#X connect 6 0 5 0;
#X connect 7 0 1 0;
#X connect 7 1 8 0;
#X connect 8 0 12 0;
#X connect 9 0 2 0;
#X connect 10 1 9 0;
#X connect 11 0 2 0;
#X connect 12 0 15 0;
#X connect 12 1 10 1;
#X connect 12 2 11 0;
#X connect 14 0 0 0;
#X connect 15 0 10 0;
#X restore 24 145 pd find.next;
#X obj 24 65 t a a;
#X obj 24 105 t a a;
#X msg 24 315 connect \$1 \$2;
#N canvas 608 22 302 497 find.previous 0;
#X obj 24 25 inlet;
#X obj 24 425 outlet;
#X obj 47 225 list length;
#X obj 70 345 list split;
#X obj 70 315 list append;
#X obj 103 375 list split 1;
#N canvas 44 22 290 211 count.down 0;
#X obj 89 126 - 1;
#X obj 24 25 inlet;
#X obj 24 165 outlet;
#X obj 24 65 t a a;
#X obj 24 95 until;
#X obj 24 125 f;
#X obj 114 25 inlet;
#X connect 0 0 5 1;
#X connect 1 0 3 0;
#X connect 3 0 4 0;
#X connect 3 1 0 0;
#X connect 4 0 5 0;
#X connect 5 0 2 0;
#X connect 5 0 0 0;
#X connect 6 0 4 1;
#X restore 47 255 pd count.down;
#X obj 47 285 t a b a;
#X obj 24 315 f;
#X obj 235 375 b;
#X obj 24 165 list prepend 0;
#X obj 24 195 t b a a;
#X obj 24 345 - 1;
#X obj 103 405 select .;
#X obj 24 125 list split;
#X obj 24 95 pddom.get \$1.nodes~;
#X obj 24 65 t b a;
#X text 83 25 find previous non zero;
#X connect 0 0 16 0;
#X connect 2 0 6 0;
#X connect 3 1 5 0;
#X connect 4 0 3 0;
#X connect 5 0 13 0;
#X connect 6 0 7 0;
#X connect 7 0 8 1;
#X connect 7 1 4 0;
#X connect 7 2 3 1;
#X connect 8 0 12 0;
#X connect 9 0 6 1;
#X connect 10 0 11 0;
#X connect 11 0 8 0;
#X connect 11 1 2 0;
#X connect 11 2 4 1;
#X connect 12 0 1 0;
#X connect 13 1 9 0;
#X connect 14 0 10 0;
#X connect 15 0 14 0;
#X connect 16 0 15 0;
#X connect 16 1 14 1;
#X restore 124 145 pd find.previous;
#X obj 24 185 list append;
#X obj 24 215 t a a;
#X obj 144 285 route last;
#X obj 144 255 list trim;
#X msg 224 325 node~ replace \$1 \$2;
#X msg 324 145 list \$1 .;
#X connect 0 0 3 0;
#X connect 2 0 7 0;
#X connect 3 0 4 0;
#X connect 3 1 12 0;
#X connect 4 0 2 0;
#X connect 4 1 6 0;
#X connect 5 0 1 0;
#X connect 6 0 7 1;
#X connect 7 0 8 0;
#X connect 8 0 5 0;
#X connect 8 1 10 0;
#X connect 9 1 11 0;
#X connect 10 0 9 0;
#X connect 11 0 1 0;
#X connect 12 0 11 0;
#X restore 255 220 pd disconnect;
#X obj 145 110 route subscribe connect disconnect node~ vis;
#X text 23 20 Pd-Dom 0.7.0-dev - (c) by Enrique Erne \, MIT License
;
#X connect 0 0 14 0;
#X connect 1 0 8 0;
#X connect 3 0 7 0;
#X connect 5 0 14 0;
#X connect 7 0 2 0;
#X connect 8 0 3 0;
#X connect 9 0 4 0;
#X connect 14 0 12 0;
#X connect 14 1 11 0;
#X connect 14 2 13 0;
#X connect 14 3 10 0;
#X connect 14 4 6 0;
#X connect 14 5 9 0;
