#N canvas 96 22 295 243 10;
#X obj 171 34 inlet;
#X obj 181 174 outlet;
#X obj 31 34 inlet~;
#X obj 31 174 outlet~;
#N canvas 0 22 511 317 out 0;
#X obj 214 245 outlet~;
#X obj 114 245 outlet~;
#X obj 24 25 inlet~;
#X symbolatom 314 200 14 0 0 0 - - -;
#X obj 114 135 t a a;
#X obj 114 75 route last;
#X obj 114 25 inlet;
#X obj 114 205 r~ \$1.-1A;
#X obj 214 205 r~ \$1.-1B;
#X msg 114 175 set \$1.\$2A;
#X msg 214 175 set \$1.\$2B;
#X obj 114 105 list prepend \$1;
#X connect 4 0 9 0;
#X connect 4 1 10 0;
#X connect 5 0 11 0;
#X connect 6 0 5 0;
#X connect 7 0 1 0;
#X connect 8 0 0 0;
#X connect 9 0 7 0;
#X connect 10 0 3 0;
#X connect 10 0 8 0;
#X connect 11 0 4 0;
#X restore 31 134 pd out;
#N canvas 0 22 450 300 in 0;
#X obj 31 38 inlet~;
#X obj 141 38 inlet~;
#X obj 31 108 outlet~;
#X obj 31 68 s~ \$1.-1A;
#X obj 141 68 s~ \$1.-1B;
#X connect 0 0 3 0;
#X connect 1 0 4 0;
#X restore 31 74 pd in;
#X obj 101 34 inlet~;
#X obj 101 174 outlet~;
#X obj 31 104 pdom.core \$1;
#X connect 0 0 8 1;
#X connect 2 0 5 0;
#X connect 4 0 3 0;
#X connect 4 1 7 0;
#X connect 5 0 8 0;
#X connect 6 0 5 1;
#X connect 8 0 4 0;
#X connect 8 1 4 1;
