#N canvas 101 22 498 431 10;
#X obj 145 60 inlet;
#X obj 145 320 outlet;
#X obj 25 60 inlet~;
#X obj 25 200 outlet~;
#N canvas 75 188 426 408 out 0;
#X obj 114 225 outlet~;
#X obj 24 25 inlet~;
#X obj 114 185 r~ \$1.-1.node;
#X obj 114 25 r \$1;
#X msg 237 185 rack1.4.node;
#X obj 114 95 route last;
#X obj 114 125 route connect;
#X msg 134 66 last connect set rack1.0.node;
#X msg 233 152 set \$1;
#X connect 2 0 0 0;
#X connect 3 0 5 0;
#X connect 5 0 6 0;
#X connect 6 0 2 0;
#X connect 6 0 4 0;
#X connect 7 0 5 0;
#X restore 25 160 pd out;
#N canvas 134 271 450 300 in 0;
#X obj 31 38 inlet~;
#X obj 31 108 outlet~;
#X obj 31 68 s~ \$1.-1.node;
#X connect 0 0 2 0;
#X restore 25 100 pd in;
#X obj 25 130 pddom.bin~ \$1;
#X obj 315 190 pddom.core \$1;
#X obj 205 60 r \$1;
#N canvas 13 22 620 397 dsp 0;
#X obj 24 25 inlet;
#X obj 24 325 outlet;
#N canvas 127 22 317 391 turn-off-on-dsp-mode 0;
#X obj 24 25 inlet;
#X obj 47 135 outlet;
#X msg 199 179 \; pd dsp 0;
#X msg 24 366 \; pd dsp \$1;
#X obj 144 285 r netpd-dsp;
#X obj 144 255 s netpd-getdsp;
#X obj 144 225 loadbang;
#X obj 42 195 r pd;
#X obj 42 255 route dsp;
#X obj 24 326 f 1;
#X obj 42 225 spigot;
#X obj 24 65 t b a b;
#X obj 138 126 unpack f s f;
#X msg 138 96 1 bang 0;
#X connect 0 0 11 0;
#X connect 4 0 9 1;
#X connect 6 0 5 0;
#X connect 7 0 10 0;
#X connect 8 0 9 1;
#X connect 9 0 3 0;
#X connect 10 0 8 0;
#X connect 11 0 9 0;
#X connect 11 1 1 0;
#X connect 11 2 13 0;
#X connect 12 0 10 1;
#X connect 12 1 2 0;
#X connect 12 2 10 1;
#X connect 13 0 12 0;
#X restore 264 245 pd turn-off-on-dsp-mode;
#N canvas 0 22 433 288 dsp-tree-update-workaround 0;
#X obj 24 25 inlet;
#X obj 64 105 outlet;
#X obj 24 65 t b a;
#N canvas 0 22 450 300 \$1.dsp 0;
#X restore 24 225 pd \$1.dsp;
#X obj 24 145 list append \$1;
#X msg 24 175 \; pd-\$1.dsp obj 10 10 +~ \, clear;
#X connect 0 0 2 0;
#X connect 2 0 4 0;
#X connect 2 1 1 0;
#X connect 4 0 5 0;
#X restore 24 245 pd dsp-tree-update-workaround;
#X obj 24 215 spigot 1;
#X obj 264 215 spigot;
#X obj 24 55 route dsp-tree-update-mode;
#X obj 304 182 == 1;
#X obj 77 182 == 0;
#X obj 510 182 == 2;
#X obj 471 245 spigot;
#X connect 0 0 6 0;
#X connect 2 0 1 0;
#X connect 3 0 1 0;
#X connect 4 0 3 0;
#X connect 5 0 2 0;
#X connect 6 0 8 0;
#X connect 6 0 7 0;
#X connect 6 0 9 0;
#X connect 6 1 4 0;
#X connect 6 1 5 0;
#X connect 6 1 10 0;
#X connect 7 0 5 1;
#X connect 8 0 4 1;
#X connect 9 0 10 1;
#X connect 10 0 1 0;
#X restore 315 160 pd dsp;
#N canvas 290 22 247 219 vis 0;
#X obj 24 95 list prepend \$1;
#X obj 24 25 inlet;
#X msg 24 125 \; \$1.\$2.vis findparent;
#N canvas 436 47 251 284 node.check 0;
#X obj 24 25 inlet;
#X obj 24 225 outlet;
#X obj 81 125 list length;
#X obj 24 185 spigot;
#X obj 63 155 <;
#X obj 24 65 t a a b;
#X obj 81 95 pddom.get \$1.nodes;
#X connect 0 0 5 0;
#X connect 2 0 4 1;
#X connect 3 0 1 0;
#X connect 4 0 3 1;
#X connect 5 0 3 0;
#X connect 5 1 4 0;
#X connect 5 2 6 0;
#X connect 6 0 2 0;
#X restore 24 65 pd node.check;
#X connect 0 0 2 0;
#X connect 1 0 3 0;
#X connect 3 0 0 0;
#X restore 145 220 pd vis;
#N canvas 320 22 885 748 node.connect 0;
#X obj 164 475 list prepend \$1;
#X obj 164 195 list split;
#N canvas 0 22 286 252 list-replace-simple 0;
#X obj 24 25 inlet;
#X obj 204 25 inlet;
#X obj 100 25 inlet;
#X obj 24 195 outlet;
#X obj 24 65 list split;
#X obj 57 95 list split 1;
#X obj 24 155 list append;
#X obj 98 125 list prepend 0;
#X connect 0 0 4 0;
#X connect 1 0 7 1;
#X connect 2 0 4 1;
#X connect 4 0 6 0;
#X connect 4 1 5 0;
#X connect 4 2 6 0;
#X connect 5 1 7 0;
#X connect 6 0 3 0;
#X connect 7 0 6 1;
#X restore 604 355 pd list-replace-simple;
#X obj 604 385 s \$1.nodes~.set;
#X obj 679 275 t b a;
#X obj 604 205 t b a;
#N canvas 0 22 343 395 find.previous 0;
#X obj 24 25 inlet;
#X obj 24 325 outlet;
#X obj 47 125 list length;
#X obj 70 245 list split;
#X obj 70 215 list append;
#X obj 103 275 list split 1;
#X text 83 25 find last non zero;
#N canvas 44 22 290 211 count.down 0;
#X obj 89 126 - 1;
#X obj 24 25 inlet;
#X obj 24 165 outlet;
#X obj 24 65 t a a;
#X obj 24 95 until;
#X obj 24 125 f;
#X obj 114 25 inlet;
#X connect 0 0 5 1;
#X connect 1 0 3 0;
#X connect 3 0 4 0;
#X connect 3 1 0 0;
#X connect 4 0 5 0;
#X connect 5 0 2 0;
#X connect 5 0 0 0;
#X connect 6 0 4 1;
#X restore 47 155 pd count.down;
#X obj 47 185 t a b a;
#X obj 24 215 f;
#X obj 235 275 b;
#X obj 24 65 list prepend 0;
#X obj 24 95 t b a a;
#X obj 24 245 - 1;
#X obj 103 305 select .;
#X connect 0 0 11 0;
#X connect 2 0 7 0;
#X connect 3 1 5 0;
#X connect 4 0 3 0;
#X connect 5 0 14 0;
#X connect 7 0 8 0;
#X connect 8 0 9 1;
#X connect 8 1 4 0;
#X connect 8 2 3 1;
#X connect 9 0 13 0;
#X connect 10 0 7 1;
#X connect 11 0 12 0;
#X connect 12 0 9 0;
#X connect 12 1 2 0;
#X connect 12 2 4 1;
#X connect 13 0 1 0;
#X connect 14 1 10 0;
#X restore 164 225 pd find.previous;
#N canvas 340 22 385 513 find.next 0;
#X obj 84 125 list length;
#X obj 44 305 symbol last;
#X obj 44 345 route float;
#X obj 44 375 +;
#X obj 24 405 list append;
#X obj 24 65 t b a a b;
#X obj 24 25 inlet;
#X obj 44 155 sel 0;
#X obj 76 185 + 1;
#N canvas 680 22 226 465 find.next 0;
#X obj 24 25 inlet;
#X obj 24 415 outlet;
#X obj 24 95 list length;
#X obj 24 215 list split;
#X obj 24 185 list append;
#X obj 57 245 list split 1;
#N canvas 44 22 290 211 count.up 0;
#X obj 24 25 inlet;
#X obj 24 165 outlet;
#X obj 24 95 until;
#X obj 24 125 f;
#X obj 114 25 inlet;
#X obj 89 126 + 1;
#X obj 24 65 t a b;
#X obj 94 95 f 0;
#X connect 0 0 6 0;
#X connect 2 0 3 0;
#X connect 3 0 1 0;
#X connect 3 0 5 0;
#X connect 4 0 2 1;
#X connect 5 0 3 1;
#X connect 6 0 2 0;
#X connect 6 1 7 0;
#X connect 7 0 3 1;
#X restore 24 125 pd count.up;
#X obj 24 155 t b a a;
#X obj 24 345 f;
#X obj 24 65 t a a;
#X obj 110 305 t b b;
#X obj 174 215 b;
#X obj 24 375 + 1;
#X obj 57 275 select .;
#X connect 0 0 9 0;
#X connect 2 0 6 0;
#X connect 3 1 5 0;
#X connect 4 0 3 0;
#X connect 5 0 13 0;
#X connect 6 0 7 0;
#X connect 7 0 4 0;
#X connect 7 1 8 1;
#X connect 7 2 3 1;
#X connect 8 0 12 0;
#X connect 9 0 2 0;
#X connect 9 1 4 1;
#X connect 10 0 8 0;
#X connect 10 1 11 0;
#X connect 11 0 6 1;
#X connect 12 0 1 0;
#X connect 13 1 10 0;
#X restore 143 305 pd find.next;
#X obj 76 275 list split;
#X obj 253 305 symbol last;
#X obj 76 215 t b a b;
#X obj 24 445 outlet;
#X obj 84 95 pddom.get \$1.nodes~;
#X obj 76 245 pddom.get \$1.nodes~;
#X connect 0 0 7 1;
#X connect 1 0 2 0;
#X connect 2 0 3 0;
#X connect 2 1 4 1;
#X connect 3 0 4 1;
#X connect 4 0 13 0;
#X connect 5 0 4 0;
#X connect 5 1 7 0;
#X connect 5 2 3 1;
#X connect 5 3 14 0;
#X connect 6 0 5 0;
#X connect 7 0 1 0;
#X connect 7 1 8 0;
#X connect 8 0 12 0;
#X connect 9 0 2 0;
#X connect 10 1 9 0;
#X connect 11 0 2 0;
#X connect 12 0 15 0;
#X connect 12 1 10 1;
#X connect 12 2 11 0;
#X connect 14 0 0 0;
#X connect 15 0 10 0;
#X restore 352 388 pd find.next;
#X obj 164 255 t a b a;
#X text 604 185 register at nodes~;
#X obj 164 155 pddom.get \$1.nodes~;
#X obj 604 245 pddom.get \$1.nodes~;
#X text 352 338 tell next node to connect;
#X text 174 375 connect to previous node;
#X obj 164 545 s \$1;
#X obj 164 115 t b a;
#X obj 352 358 f;
#X obj 679 315 f;
#X obj 164 445 list prepend;
#X msg 164 505 \$2 connect set \$1.\$3.node;
#X obj 24 85 route last;
#X obj 352 528 list prepend \$1;
#X obj 352 468 list prepend;
#X msg 352 558 \$3 connect set \$1.\$2.node;
#X obj 24 245 b;
#N canvas 0 22 343 395 find.previous 0;
#X obj 24 25 inlet;
#X obj 24 325 outlet;
#X obj 47 125 list length;
#X obj 70 245 list split;
#X obj 70 215 list append;
#X obj 103 275 list split 1;
#N canvas 44 22 290 211 count.down 0;
#X obj 89 126 - 1;
#X obj 24 25 inlet;
#X obj 24 165 outlet;
#X obj 24 65 t a a;
#X obj 24 95 until;
#X obj 24 125 f;
#X obj 114 25 inlet;
#X connect 0 0 5 1;
#X connect 1 0 3 0;
#X connect 3 0 4 0;
#X connect 3 1 0 0;
#X connect 4 0 5 0;
#X connect 5 0 2 0;
#X connect 5 0 0 0;
#X connect 6 0 4 1;
#X restore 47 155 pd count.down;
#X obj 47 185 t a b a;
#X obj 24 215 f;
#X obj 235 275 b;
#X obj 24 65 list prepend 0;
#X obj 24 95 t b a a;
#X obj 24 245 - 1;
#X obj 103 305 select .;
#X text 83 25 find previous object;
#X connect 0 0 10 0;
#X connect 2 0 6 0;
#X connect 3 1 5 0;
#X connect 4 0 3 0;
#X connect 5 0 13 0;
#X connect 6 0 7 0;
#X connect 7 0 8 1;
#X connect 7 1 4 0;
#X connect 7 2 3 1;
#X connect 8 0 12 0;
#X connect 9 0 6 1;
#X connect 10 0 11 0;
#X connect 11 0 8 0;
#X connect 11 1 2 0;
#X connect 11 2 4 1;
#X connect 12 0 1 0;
#X connect 13 1 9 0;
#X restore 24 305 pd find.previous;
#X msg 24 335 last \$1;
#X obj 24 275 pddom.get \$1.nodes~;
#X obj 24 45 inlet;
#X obj 362 156 f;
#N canvas 0 22 286 252 list-replace-simple 0;
#X obj 24 25 inlet;
#X obj 204 25 inlet;
#X obj 100 25 inlet;
#X obj 24 195 outlet;
#X obj 24 65 list split;
#X obj 57 95 list split 1;
#X obj 24 155 list append;
#X obj 98 125 list prepend 0;
#X connect 0 0 4 0;
#X connect 1 0 7 1;
#X connect 2 0 4 1;
#X connect 4 0 6 0;
#X connect 4 1 5 0;
#X connect 4 2 6 0;
#X connect 5 1 7 0;
#X connect 6 0 3 0;
#X connect 7 0 6 1;
#X restore 573 588 pd list-replace-simple;
#X obj 573 618 s \$1.nodes~.set;
#X obj 573 488 t b a;
#X text 573 468 register at nodes~;
#X obj 573 528 pddom.get \$1.nodes~;
#X obj 648 558 unpack f f;
#X obj 352 418 select last;
#X obj 449 455 list prepend;
#X obj 454 486 t a a;
#X obj 354 442 symbol last;
#X connect 0 0 19 0;
#X connect 1 0 6 0;
#X connect 2 0 3 0;
#X connect 4 0 17 0;
#X connect 4 1 2 2;
#X connect 5 0 11 0;
#X connect 5 1 4 0;
#X connect 6 0 8 0;
#X connect 7 0 36 0;
#X connect 8 0 18 0;
#X connect 8 1 16 0;
#X connect 8 2 5 0;
#X connect 10 0 1 0;
#X connect 11 0 2 0;
#X connect 15 0 10 0;
#X connect 15 1 29 0;
#X connect 16 0 7 0;
#X connect 17 0 2 1;
#X connect 18 0 0 0;
#X connect 19 0 14 0;
#X connect 20 0 24 0;
#X connect 20 1 15 0;
#X connect 21 0 23 0;
#X connect 22 0 21 0;
#X connect 23 0 14 0;
#X connect 24 0 27 0;
#X connect 25 0 26 0;
#X connect 26 0 0 0;
#X connect 27 0 25 0;
#X connect 28 0 20 0;
#X connect 29 0 17 1;
#X connect 29 0 16 1;
#X connect 29 0 22 1;
#X connect 29 0 18 1;
#X connect 29 0 1 1;
#X connect 29 0 37 1;
#X connect 30 0 31 0;
#X connect 32 0 34 0;
#X connect 32 1 35 0;
#X connect 34 0 30 0;
#X connect 35 0 30 2;
#X connect 35 1 30 1;
#X connect 36 0 39 0;
#X connect 36 1 37 0;
#X connect 37 0 38 0;
#X connect 38 0 21 0;
#X connect 38 1 32 0;
#X connect 39 0 22 0;
#X restore 205 252 pd node.connect;
#X obj 145 130 route vis connect disconnect;
#N canvas 393 381 535 342 node.disconnect 0;
#X obj 24 25 inlet;
#X obj 24 115 symbol last;
#N canvas 173 24 393 348 list-drip 0;
#X obj 24 25 inlet;
#X obj 144 277 outlet;
#X obj 112 245 t b a;
#X obj 142 215 list;
#X obj 112 185 list split 1;
#X obj 24 155 t b a;
#X obj 54 125 list;
#X obj 24 95 list split 64;
#X msg 44 65 1 2;
#X msg 84 65 1 2 3 4 5;
#X connect 0 0 7 0;
#X connect 2 0 3 0;
#X connect 2 1 1 0;
#X connect 3 0 4 0;
#X connect 4 0 2 0;
#X connect 4 1 3 1;
#X connect 5 0 6 0;
#X connect 5 1 4 0;
#X connect 6 0 7 0;
#X connect 7 0 5 0;
#X connect 7 1 6 1;
#X connect 7 2 4 0;
#X connect 8 0 7 0;
#X connect 9 0 7 0;
#X restore 126 115 pd list-drip;
#X obj 256 145 t b a;
#N canvas 63 22 352 299 list-replace-simple 0;
#X obj 24 25 inlet;
#X obj 204 25 inlet;
#X obj 100 25 inlet;
#X obj 24 235 outlet;
#X obj 24 95 list split;
#X obj 57 125 list split 1;
#X obj 24 195 list append;
#X obj 100 55 t a b;
#X obj 218 155 b;
#X obj 98 155 list prepend .;
#X connect 0 0 4 0;
#X connect 1 0 9 1;
#X connect 2 0 7 0;
#X connect 4 0 6 0;
#X connect 4 1 5 0;
#X connect 4 2 6 0;
#X connect 5 1 9 0;
#X connect 6 0 3 0;
#X connect 7 0 4 1;
#X connect 7 1 8 0;
#X connect 8 0 6 1;
#X connect 9 0 6 1;
#X restore 256 205 pd list-replace-simple .;
#X obj 256 235 s \$1.nodes~.set;
#N canvas 173 24 393 348 list-drip 0;
#X obj 24 25 inlet;
#X obj 144 277 outlet;
#X obj 112 245 t b a;
#X obj 142 215 list;
#X obj 112 185 list split 1;
#X obj 24 155 t b a;
#X obj 54 125 list;
#X obj 24 95 list split 64;
#X msg 44 65 1 2;
#X msg 84 65 1 2 3 4 5;
#X connect 0 0 7 0;
#X connect 2 0 3 0;
#X connect 2 1 1 0;
#X connect 3 0 4 0;
#X connect 4 0 2 0;
#X connect 4 1 3 1;
#X connect 5 0 6 0;
#X connect 5 1 4 0;
#X connect 6 0 7 0;
#X connect 7 0 5 0;
#X connect 7 1 6 1;
#X connect 7 2 4 0;
#X connect 8 0 7 0;
#X connect 9 0 7 0;
#X restore 256 115 pd list-drip;
#X obj 24 65 t b a a;
#N canvas 376 22 358 447 nodes~.find 0;
#X obj 24 155 list length;
#N canvas 44 22 290 211 count.down 0;
#X obj 89 126 - 1;
#X obj 24 25 inlet;
#X obj 24 165 outlet;
#X obj 24 65 t a a;
#X obj 24 95 until;
#X obj 24 125 f;
#X obj 114 25 inlet;
#X connect 0 0 5 1;
#X connect 1 0 3 0;
#X connect 3 0 4 0;
#X connect 3 1 0 0;
#X connect 4 0 5 0;
#X connect 5 0 2 0;
#X connect 5 0 0 0;
#X connect 6 0 4 1;
#X restore 24 185 pd count.down;
#X obj 24 125 t a a;
#X obj 24 275 list split;
#X obj 24 305 list split 1;
#X obj 24 245 list append;
#X obj 24 65 t b a;
#X obj 24 335 sel -1;
#X obj 24 215 t b a a;
#X obj 24 365 f;
#X obj 194 285 t a;
#X obj 24 405 outlet;
#X obj 24 25 inlet;
#X text 154 185 might change to count.up;
#N canvas 44 22 290 211 count.up 0;
#X obj 24 25 inlet;
#X obj 24 165 outlet;
#X obj 24 95 until;
#X obj 24 125 f;
#X obj 114 25 inlet;
#X obj 89 126 + 1;
#X obj 24 65 t a b;
#X obj 94 95 f 0;
#X connect 0 0 6 0;
#X connect 2 0 3 0;
#X connect 3 0 1 0;
#X connect 3 0 5 0;
#X connect 4 0 2 1;
#X connect 5 0 3 1;
#X connect 6 0 2 0;
#X connect 6 1 7 0;
#X connect 7 0 3 1;
#X restore 234 215 pd count.up;
#X obj 24 95 pddom.get \$1.nodes~;
#X connect 0 0 1 0;
#X connect 1 0 8 0;
#X connect 2 0 0 0;
#X connect 2 1 5 1;
#X connect 3 1 4 0;
#X connect 4 0 7 0;
#X connect 5 0 3 0;
#X connect 6 0 15 0;
#X connect 6 1 10 0;
#X connect 7 0 9 0;
#X connect 8 0 5 0;
#X connect 8 1 9 1;
#X connect 8 2 3 1;
#X connect 9 0 11 0;
#X connect 10 0 7 1;
#X connect 12 0 6 0;
#X connect 15 0 2 0;
#X restore 126 145 pd nodes~.find;
#X obj 256 175 pddom.get \$1.nodes~;
#X obj 24 245 s \$1;
#X msg 24 215 connect \$1;
#X connect 0 0 7 0;
#X connect 1 0 11 0;
#X connect 2 0 8 0;
#X connect 3 0 9 0;
#X connect 3 1 4 1;
#X connect 4 0 5 0;
#X connect 6 0 3 0;
#X connect 7 0 1 0;
#X connect 7 1 2 0;
#X connect 7 2 6 0;
#X connect 8 0 11 0;
#X connect 9 0 4 0;
#X connect 11 0 10 0;
#X restore 261 222 pd node.disconnect;
#X text 23 20 Pd-Dom 0.5.0-dev - (c) by Enrique Erne \, MIT License
;
#X connect 0 0 12 0;
#X connect 2 0 5 0;
#X connect 4 0 3 0;
#X connect 5 0 6 0;
#X connect 6 0 4 0;
#X connect 8 0 12 0;
#X connect 9 0 7 0;
#X connect 12 0 10 0;
#X connect 12 1 11 0;
#X connect 12 2 13 0;
#X connect 12 3 9 0;
