#N canvas 219 22 581 431 10;
#X obj 145 60 inlet;
#X obj 25 60 inlet~;
#X obj 25 200 outlet~;
#X obj 25 130 pddom.bin~ \$1;
#X obj 408 209 pddom.core \$1;
#X obj 205 60 r \$1;
#N canvas 290 22 247 219 vis 0;
#X obj 24 95 list prepend \$1;
#X obj 24 25 inlet;
#X msg 24 125 \; \$1.\$2.vis findparent;
#N canvas 436 47 251 284 node.check 0;
#X obj 24 25 inlet;
#X obj 24 225 outlet;
#X obj 81 125 list length;
#X obj 24 185 spigot;
#X obj 63 155 <;
#X obj 24 65 t a a b;
#X obj 81 95 pddom.get \$1.nodes;
#X connect 0 0 5 0;
#X connect 2 0 4 1;
#X connect 3 0 1 0;
#X connect 4 0 3 1;
#X connect 5 0 3 0;
#X connect 5 1 4 0;
#X connect 5 2 6 0;
#X connect 6 0 2 0;
#X restore 24 65 pd node.check;
#X connect 0 0 2 0;
#X connect 1 0 3 0;
#X connect 3 0 0 0;
#X restore 335 210 pd vis;
#N canvas 679 22 449 509 node.disconnect 0;
#X obj 24 25 inlet;
#X obj 204 115 t b a;
#N canvas 764 22 352 299 list-replace-simple 0;
#X obj 24 25 inlet;
#X obj 204 25 inlet;
#X obj 100 25 inlet;
#X obj 24 235 outlet;
#X obj 24 95 list split;
#X obj 57 125 list split 1;
#X obj 24 195 list append;
#X obj 100 55 t a b;
#X obj 218 155 b;
#X obj 98 155 list prepend .;
#X connect 0 0 4 0;
#X connect 1 0 9 1;
#X connect 2 0 7 0;
#X connect 4 0 6 0;
#X connect 4 1 5 0;
#X connect 4 2 6 0;
#X connect 5 1 9 0;
#X connect 6 0 3 0;
#X connect 7 0 4 1;
#X connect 7 1 8 0;
#X connect 8 0 6 1;
#X connect 9 0 6 1;
#X restore 204 175 pd list-replace-simple .;
#X obj 204 205 s \$1.nodes~.set;
#X obj 204 145 pddom.get \$1.nodes~;
#X obj 24 455 s \$1;
#N canvas 340 22 385 513 find.next 0;
#X obj 84 125 list length;
#X obj 44 305 symbol last;
#X obj 44 345 route float;
#X obj 44 375 +;
#X obj 24 405 list append;
#X obj 24 65 t b a a b;
#X obj 24 25 inlet;
#X obj 44 155 sel 0;
#X obj 76 185 + 1;
#N canvas 124 22 226 465 find.next 0;
#X obj 24 25 inlet;
#X obj 24 415 outlet;
#X obj 24 95 list length;
#X obj 24 215 list split;
#X obj 24 185 list append;
#X obj 57 245 list split 1;
#N canvas 44 22 290 211 count.up 0;
#X obj 24 25 inlet;
#X obj 24 165 outlet;
#X obj 24 95 until;
#X obj 24 125 f;
#X obj 114 25 inlet;
#X obj 89 126 + 1;
#X obj 24 65 t a b;
#X obj 94 95 f 0;
#X connect 0 0 6 0;
#X connect 2 0 3 0;
#X connect 3 0 1 0;
#X connect 3 0 5 0;
#X connect 4 0 2 1;
#X connect 5 0 3 1;
#X connect 6 0 2 0;
#X connect 6 1 7 0;
#X connect 7 0 3 1;
#X restore 24 125 pd count.up;
#X obj 24 155 t b a a;
#X obj 24 345 f;
#X obj 24 65 t a a;
#X obj 110 305 t b b;
#X obj 174 215 b;
#X obj 24 375 + 1;
#X obj 57 275 select .;
#X connect 0 0 9 0;
#X connect 2 0 6 0;
#X connect 3 1 5 0;
#X connect 4 0 3 0;
#X connect 5 0 13 0;
#X connect 6 0 7 0;
#X connect 7 0 4 0;
#X connect 7 1 8 1;
#X connect 7 2 3 1;
#X connect 8 0 12 0;
#X connect 9 0 2 0;
#X connect 9 1 4 1;
#X connect 10 0 8 0;
#X connect 10 1 11 0;
#X connect 11 0 6 1;
#X connect 12 0 1 0;
#X connect 13 1 10 0;
#X restore 143 305 pd find.next;
#X obj 76 275 list split;
#X obj 253 305 symbol last;
#X obj 76 215 t b a b;
#X obj 24 445 outlet;
#X obj 84 95 pddom.get \$1.nodes~;
#X obj 76 245 pddom.get \$1.nodes~;
#X connect 0 0 7 1;
#X connect 1 0 2 0;
#X connect 2 0 3 0;
#X connect 2 1 4 1;
#X connect 3 0 4 1;
#X connect 4 0 13 0;
#X connect 5 0 4 0;
#X connect 5 1 7 0;
#X connect 5 2 3 1;
#X connect 5 3 14 0;
#X connect 6 0 5 0;
#X connect 7 0 1 0;
#X connect 7 1 8 0;
#X connect 8 0 12 0;
#X connect 9 0 2 0;
#X connect 10 1 9 0;
#X connect 11 0 2 0;
#X connect 12 0 15 0;
#X connect 12 1 10 1;
#X connect 12 2 11 0;
#X connect 14 0 0 0;
#X connect 15 0 10 0;
#X restore 24 165 pd find.next;
#X obj 24 65 t a a;
#X obj 24 105 t a a;
#X msg 24 425 connect \$1 \$2;
#N canvas 778 22 302 497 find.previous 0;
#X obj 24 25 inlet;
#X obj 24 425 outlet;
#X obj 47 225 list length;
#X obj 70 345 list split;
#X obj 70 315 list append;
#X obj 103 375 list split 1;
#N canvas 44 22 290 211 count.down 0;
#X obj 89 126 - 1;
#X obj 24 25 inlet;
#X obj 24 165 outlet;
#X obj 24 65 t a a;
#X obj 24 95 until;
#X obj 24 125 f;
#X obj 114 25 inlet;
#X connect 0 0 5 1;
#X connect 1 0 3 0;
#X connect 3 0 4 0;
#X connect 3 1 0 0;
#X connect 4 0 5 0;
#X connect 5 0 2 0;
#X connect 5 0 0 0;
#X connect 6 0 4 1;
#X restore 47 255 pd count.down;
#X obj 47 285 t a b a;
#X obj 24 315 f;
#X obj 235 375 b;
#X obj 24 165 list prepend 0;
#X obj 24 195 t b a a;
#X obj 24 345 - 1;
#X obj 103 405 select .;
#X obj 24 125 list split;
#X obj 24 95 pddom.get \$1.nodes~;
#X obj 24 65 t b a;
#X text 83 25 find previous non zero;
#X connect 0 0 16 0;
#X connect 2 0 6 0;
#X connect 3 1 5 0;
#X connect 4 0 3 0;
#X connect 5 0 13 0;
#X connect 6 0 7 0;
#X connect 7 0 8 1;
#X connect 7 1 4 0;
#X connect 7 2 3 1;
#X connect 8 0 12 0;
#X connect 9 0 6 1;
#X connect 10 0 11 0;
#X connect 11 0 8 0;
#X connect 11 1 2 0;
#X connect 11 2 4 1;
#X connect 12 0 1 0;
#X connect 13 1 9 0;
#X connect 14 0 10 0;
#X connect 15 0 14 0;
#X connect 16 0 15 0;
#X connect 16 1 14 1;
#X restore 64 135 pd find.previous;
#X obj 24 195 list append;
#X obj 24 225 t a a;
#X obj 144 295 route last;
#N canvas 0 22 286 252 list-replace-simple 0;
#X obj 24 25 inlet;
#X obj 204 25 inlet;
#X obj 100 25 inlet;
#X obj 24 195 outlet;
#X obj 24 65 list split;
#X obj 57 95 list split 1;
#X obj 24 155 list append;
#X obj 98 125 list prepend 0;
#X connect 0 0 4 0;
#X connect 1 0 7 1;
#X connect 2 0 4 1;
#X connect 4 0 6 0;
#X connect 4 1 5 0;
#X connect 4 2 6 0;
#X connect 5 1 7 0;
#X connect 6 0 3 0;
#X connect 7 0 6 1;
#X restore 214 425 pd list-replace-simple;
#X obj 214 455 s \$1.nodes~.set;
#X obj 214 335 t b a;
#X obj 214 365 pddom.get \$1.nodes~;
#X obj 289 395 unpack f f;
#X text 224 315 register;
#X obj 144 265 list trim;
#X connect 0 0 7 0;
#X connect 1 0 4 0;
#X connect 1 1 2 1;
#X connect 2 0 3 0;
#X connect 4 0 2 0;
#X connect 6 0 11 0;
#X connect 7 0 8 0;
#X connect 7 1 1 0;
#X connect 8 0 6 0;
#X connect 8 1 10 0;
#X connect 9 0 5 0;
#X connect 10 0 11 1;
#X connect 11 0 12 0;
#X connect 12 0 9 0;
#X connect 12 1 20 0;
#X connect 13 1 16 0;
#X connect 14 0 15 0;
#X connect 16 0 17 0;
#X connect 16 1 18 0;
#X connect 17 0 14 0;
#X connect 18 0 14 1;
#X connect 18 1 14 2;
#X connect 20 0 13 0;
#X restore 275 250 pd node.disconnect;
#N canvas 610 22 403 265 nodes~ 0;
#X obj 23 144 list;
#X obj 23 114 b;
#X obj 23 84 r \$1.nodes~.get;
#X obj 63 114 r \$1.nodes~.set;
#X obj 23 204 s \$1.nodes~;
#X obj 23 174 list trim;
#X text 23 24 Global accessible list of signal processing objects \,
see [pdom.get]. List contains id of sender that each object listens
to. Signal processing objects have to register themself to this list.
;
#X connect 0 0 5 0;
#X connect 1 0 0 0;
#X connect 2 0 1 0;
#X connect 3 0 0 1;
#X connect 5 0 4 0;
#X restore 265 60 pd nodes~;
#N canvas 38 327 426 408 node.last 0;
#X obj 114 195 outlet~;
#X obj 24 25 inlet~;
#X obj 114 165 r~ \$1.node.-1;
#X msg 137 135 rack1.node.2;
#X obj 114 25 r \$1.last;
#X msg 134 66 receive~ set rack1.node.-1;
#X obj 114 105 route receive~;
#X connect 2 0 0 0;
#X connect 4 0 6 0;
#X connect 5 0 6 0;
#X connect 6 0 3 0;
#X connect 6 0 2 0;
#X restore 25 160 pd node.last;
#N canvas 134 271 450 300 node.-1 0;
#X obj 31 38 inlet~;
#X obj 31 108 outlet~;
#X obj 31 68 s~ \$1.node.-1;
#X connect 0 0 2 0;
#X restore 25 100 pd node.-1;
#X text 23 20 Pd-Dom 0.6.0-dev - (c) by Enrique Erne \, MIT License
;
#N canvas 40 22 450 300 node.connect 0;
#X obj 24 25 inlet;
#X obj 24 185 s;
#X obj 24 65 list prepend \$1;
#X obj 24 125 unpack s s;
#X msg 24 95 \$1.node.\$3 \$1.\$2;
#X msg 24 155 receive~ set \$1;
#X connect 0 0 2 0;
#X connect 2 0 4 0;
#X connect 3 0 5 0;
#X connect 3 1 1 1;
#X connect 4 0 3 0;
#X connect 5 0 1 0;
#X restore 215 290 pd node.connect;
#N canvas 50 22 735 719 node.register 0;
#N canvas 778 22 302 497 find.previous 0;
#X obj 24 25 inlet;
#X obj 24 425 outlet;
#X obj 47 225 list length;
#X obj 70 345 list split;
#X obj 70 315 list append;
#X obj 103 375 list split 1;
#N canvas 44 22 290 211 count.down 0;
#X obj 89 126 - 1;
#X obj 24 25 inlet;
#X obj 24 165 outlet;
#X obj 24 65 t a a;
#X obj 24 95 until;
#X obj 24 125 f;
#X obj 114 25 inlet;
#X connect 0 0 5 1;
#X connect 1 0 3 0;
#X connect 3 0 4 0;
#X connect 3 1 0 0;
#X connect 4 0 5 0;
#X connect 5 0 2 0;
#X connect 5 0 0 0;
#X connect 6 0 4 1;
#X restore 47 255 pd count.down;
#X obj 47 285 t a b a;
#X obj 24 315 f;
#X obj 235 375 b;
#X obj 24 165 list prepend 0;
#X obj 24 195 t b a a;
#X obj 24 345 - 1;
#X obj 103 405 select .;
#X obj 24 125 list split;
#X obj 24 95 pddom.get \$1.nodes~;
#X obj 24 65 t b a;
#X text 83 25 find previous non zero;
#X connect 0 0 16 0;
#X connect 2 0 6 0;
#X connect 3 1 5 0;
#X connect 4 0 3 0;
#X connect 5 0 13 0;
#X connect 6 0 7 0;
#X connect 7 0 8 1;
#X connect 7 1 4 0;
#X connect 7 2 3 1;
#X connect 8 0 12 0;
#X connect 9 0 6 1;
#X connect 10 0 11 0;
#X connect 11 0 8 0;
#X connect 11 1 2 0;
#X connect 11 2 4 1;
#X connect 12 0 1 0;
#X connect 13 1 9 0;
#X connect 14 0 10 0;
#X connect 15 0 14 0;
#X connect 16 0 15 0;
#X connect 16 1 14 1;
#X restore 164 205 pd find.previous;
#N canvas 340 22 385 513 find.next 0;
#X obj 84 125 list length;
#X obj 44 305 symbol last;
#X obj 44 345 route float;
#X obj 44 375 +;
#X obj 24 405 list append;
#X obj 24 65 t b a a b;
#X obj 24 25 inlet;
#X obj 44 155 sel 0;
#X obj 76 185 + 1;
#N canvas 680 22 226 465 find.next 0;
#X obj 24 25 inlet;
#X obj 24 415 outlet;
#X obj 24 95 list length;
#X obj 24 215 list split;
#X obj 24 185 list append;
#X obj 57 245 list split 1;
#N canvas 44 22 290 211 count.up 0;
#X obj 24 25 inlet;
#X obj 24 165 outlet;
#X obj 24 95 until;
#X obj 24 125 f;
#X obj 114 25 inlet;
#X obj 89 126 + 1;
#X obj 24 65 t a b;
#X obj 94 95 f 0;
#X connect 0 0 6 0;
#X connect 2 0 3 0;
#X connect 3 0 1 0;
#X connect 3 0 5 0;
#X connect 4 0 2 1;
#X connect 5 0 3 1;
#X connect 6 0 2 0;
#X connect 6 1 7 0;
#X connect 7 0 3 1;
#X restore 24 125 pd count.up;
#X obj 24 155 t b a a;
#X obj 24 345 f;
#X obj 24 65 t a a;
#X obj 110 305 t b b;
#X obj 174 215 b;
#X obj 24 375 + 1;
#X obj 57 275 sel .;
#X connect 0 0 9 0;
#X connect 2 0 6 0;
#X connect 3 1 5 0;
#X connect 4 0 3 0;
#X connect 5 0 13 0;
#X connect 6 0 7 0;
#X connect 7 0 4 0;
#X connect 7 1 8 1;
#X connect 7 2 3 1;
#X connect 8 0 12 0;
#X connect 9 0 2 0;
#X connect 9 1 4 1;
#X connect 10 0 8 0;
#X connect 10 1 11 0;
#X connect 11 0 6 1;
#X connect 12 0 1 0;
#X connect 13 1 10 0;
#X restore 143 305 pd find.next;
#X obj 76 275 list split;
#X obj 253 305 symbol last;
#X obj 76 215 t b a b;
#X obj 24 445 outlet;
#X obj 84 95 pddom.get \$1.nodes~;
#X obj 76 245 pddom.get \$1.nodes~;
#X connect 0 0 7 1;
#X connect 1 0 2 0;
#X connect 2 0 3 0;
#X connect 2 1 4 1;
#X connect 3 0 4 1;
#X connect 4 0 13 0;
#X connect 5 0 4 0;
#X connect 5 1 7 0;
#X connect 5 2 3 1;
#X connect 5 3 14 0;
#X connect 6 0 5 0;
#X connect 7 0 1 0;
#X connect 7 1 8 0;
#X connect 8 0 12 0;
#X connect 9 0 2 0;
#X connect 10 1 9 0;
#X connect 11 0 2 0;
#X connect 12 0 15 0;
#X connect 12 1 10 1;
#X connect 12 2 11 0;
#X connect 14 0 0 0;
#X connect 15 0 10 0;
#X restore 352 388 pd find.next;
#X obj 164 235 t a b a;
#X text 174 345 connect to previous node;
#X obj 352 358 f;
#X obj 164 365 list prepend;
#X obj 24 65 route last;
#X obj 24 25 inlet;
#X obj 362 136 f;
#N canvas 0 22 286 252 list-replace-simple 0;
#X obj 24 25 inlet;
#X obj 204 25 inlet;
#X obj 100 25 inlet;
#X obj 24 195 outlet;
#X obj 24 65 list split;
#X obj 57 95 list split 1;
#X obj 24 155 list append;
#X obj 98 125 list prepend 0;
#X connect 0 0 4 0;
#X connect 1 0 7 1;
#X connect 2 0 4 1;
#X connect 4 0 6 0;
#X connect 4 1 5 0;
#X connect 4 2 6 0;
#X connect 5 1 7 0;
#X connect 6 0 3 0;
#X connect 7 0 6 1;
#X restore 547 627 pd list-replace-simple;
#X obj 547 657 s \$1.nodes~.set;
#X obj 547 537 t b a;
#X obj 547 567 pddom.get \$1.nodes~;
#X obj 622 597 unpack f f;
#X obj 352 418 select last;
#X obj 452 508 t a a;
#X obj 352 448 symbol last;
#X obj 352 478 list append;
#X obj 452 478 list append;
#X obj 547 307 list prepend;
#X text 557 517 register;
#X obj 24 625 s \$1;
#X msg 24 585 connect \$1 \$2;
#X msg 24 395 list last \$1;
#X obj 164 95 t a a;
#N canvas 447 22 311 448 find.last 0;
#X obj 24 25 inlet;
#X obj 24 395 outlet;
#X obj 47 195 list length;
#X obj 70 315 list split;
#X obj 70 285 list append;
#X obj 103 345 list split 1;
#N canvas 44 22 290 211 count.down 0;
#X obj 89 126 - 1;
#X obj 24 25 inlet;
#X obj 24 165 outlet;
#X obj 24 65 t a a;
#X obj 24 95 until;
#X obj 24 125 f;
#X obj 114 25 inlet;
#X connect 0 0 5 1;
#X connect 1 0 3 0;
#X connect 3 0 4 0;
#X connect 3 1 0 0;
#X connect 4 0 5 0;
#X connect 5 0 2 0;
#X connect 5 0 0 0;
#X connect 6 0 4 1;
#X restore 47 225 pd count.down;
#X obj 47 255 t a b a;
#X obj 24 285 f;
#X obj 235 345 b;
#X obj 24 135 list prepend 0;
#X obj 24 165 t b a a;
#X obj 24 315 - 1;
#X text 83 25 find last abstraction;
#X obj 24 75 b;
#X obj 24 105 pddom.get \$1.nodes~;
#X obj 103 375 sel .;
#X connect 0 0 14 0;
#X connect 2 0 6 0;
#X connect 3 1 5 0;
#X connect 4 0 3 0;
#X connect 5 0 16 0;
#X connect 6 0 7 0;
#X connect 7 0 8 1;
#X connect 7 1 4 0;
#X connect 7 2 3 1;
#X connect 8 0 12 0;
#X connect 9 0 6 1;
#X connect 10 0 11 0;
#X connect 11 0 8 0;
#X connect 11 1 2 0;
#X connect 11 2 4 1;
#X connect 12 0 1 0;
#X connect 14 0 15 0;
#X connect 15 0 10 0;
#X connect 16 1 9 0;
#X restore 24 365 pd find.last;
#X text 352 338 connect next node;
#X connect 0 0 2 0;
#X connect 1 0 14 0;
#X connect 2 0 5 0;
#X connect 2 1 4 0;
#X connect 2 2 19 0;
#X connect 4 0 1 0;
#X connect 5 0 22 0;
#X connect 6 0 25 0;
#X connect 6 1 24 0;
#X connect 7 0 6 0;
#X connect 8 0 4 1;
#X connect 8 0 5 1;
#X connect 8 0 17 1;
#X connect 8 0 18 1;
#X connect 8 0 19 1;
#X connect 9 0 10 0;
#X connect 11 0 12 0;
#X connect 11 1 13 0;
#X connect 12 0 9 0;
#X connect 13 0 9 1;
#X connect 13 1 9 2;
#X connect 14 0 16 0;
#X connect 14 1 18 0;
#X connect 15 0 22 0;
#X connect 15 1 11 0;
#X connect 16 0 17 0;
#X connect 17 0 22 0;
#X connect 18 0 15 0;
#X connect 19 0 11 0;
#X connect 22 0 21 0;
#X connect 23 0 22 0;
#X connect 24 0 0 0;
#X connect 24 1 8 0;
#X connect 25 0 23 0;
#X restore 145 320 pd node.register;
#X obj 145 130 route register connect disconnect vis;
#N canvas 59 22 396 264 extend 0;
#X obj 24 25 inlet;
#X obj 154 195 outlet;
#N canvas 417 22 348 277 reset 0;
#X obj 24 25 inlet;
#X obj 24 65 t b b;
#X obj 84 105 list append \$1;
#X obj 24 205 outlet;
#X msg 84 135 \; \$1.last receive~ set \$1.node.-1 \; \$1.nodes~.set
bang;
#X msg 24 135 reset;
#X connect 0 0 1 0;
#X connect 1 0 5 0;
#X connect 1 1 2 0;
#X connect 2 0 4 0;
#X connect 5 0 3 0;
#X restore 24 135 pd reset;
#X obj 24 65 route reset node;
#N canvas 385 22 450 300 node 0;
#X obj 134 195 s \$1.nodes~.set;
#X obj 134 165 list append .;
#X obj 134 135 pddom.get \$1.nodes~;
#X obj 24 25 inlet;
#X obj 24 65 route add;
#X obj 24 195 outlet;
#X msg 24 165 node add;
#X obj 24 95 t b b;
#X connect 1 0 0 0;
#X connect 2 0 1 0;
#X connect 3 0 4 0;
#X connect 4 0 7 0;
#X connect 6 0 5 0;
#X connect 7 0 6 0;
#X connect 7 1 2 0;
#X restore 74 105 pd node;
#X connect 0 0 3 0;
#X connect 2 0 1 0;
#X connect 3 0 2 0;
#X connect 3 1 4 0;
#X connect 3 2 1 0;
#X connect 4 0 1 0;
#X restore 408 179 pd extend;
#X connect 0 0 14 0;
#X connect 1 0 10 0;
#X connect 3 0 9 0;
#X connect 5 0 14 0;
#X connect 9 0 2 0;
#X connect 10 0 3 0;
#X connect 14 0 13 0;
#X connect 14 1 12 0;
#X connect 14 2 7 0;
#X connect 14 3 6 0;
#X connect 14 4 15 0;
#X connect 15 0 4 0;
