#N canvas 63 22 356 304 10;
#X obj 24 25 namecanvas \$1.\$2.vis;
#X obj 24 65 r \$1;
#X obj 24 95 route \$2;
#X obj 24 185 r~ \$1.-1.node;
#X obj 24 215 outlet~;
#X obj 24 125 route connect;
#X obj 214 65 loadbang;
#X obj 214 185 s \$1;
#X msg 214 125 connect \$1;
#X obj 214 95 f \$2;
#X msg 127 185 rack1.-1.node;
#X msg 122 155 set \$1;
#X connect 1 0 2 0;
#X connect 2 0 5 0;
#X connect 3 0 4 0;
#X connect 5 0 3 0;
#X connect 5 0 10 0;
#X connect 6 0 9 0;
#X connect 8 0 7 0;
#X connect 9 0 8 0;
