#N canvas 569 134 753 673 10;
#X obj 53 34 inlet;
#N canvas 206 22 755 561 node.new 0;
#X obj 24 25 inlet;
#X obj 254 325 t a a;
#X obj 253 415 pack f f;
#X obj 24 215 f;
#X obj 64 215 + 1;
#X msg 154 65 0;
#X obj 253 445 list prepend \$1;
#X obj 24 245 t a a;
#X obj 24 385 t a a;
#X obj 24 415 pack f f;
#X obj 24 445 list prepend \$1;
#X msg 94 385 0;
#X text 264 307 new node;
#X obj 154 215 list append 0;
#X obj 154 245 s \$1.nodes.set;
#X obj 24 105 t b b b;
#X obj 314 245 s \$1.nodes~.set;
#X text 34 365 connect this to the last node;
#X obj 24 275 + 1;
#X obj 306 355 * 30;
#X obj 306 385 + 40;
#X obj 314 215 list append .;
#X msg 253 475 \; pd-\$1.bin obj 10 \$3 pd \$1.node.\$2 \; pd-\$1.node.\$2
menuclose \, obj 10 10 inlet~ \, obj 10 100 outlet~ \, obj 50 50 pd
\$1.bin.\$2 \; pd-\$1.bin.\$2 menuclose;
#X msg 24 475 \; pd-\$1.bin connect \$3 0 \$2 0;
#X obj 154 25 inlet;
#X obj 154 185 pddom.get \$1.nodes;
#X obj 314 185 pddom.get \$1.nodes~;
#X connect 0 0 15 0;
#X connect 1 0 2 0;
#X connect 1 1 19 0;
#X connect 2 0 6 0;
#X connect 3 0 4 0;
#X connect 3 0 7 0;
#X connect 4 0 3 1;
#X connect 5 0 3 1;
#X connect 6 0 22 0;
#X connect 7 0 18 0;
#X connect 7 1 1 0;
#X connect 8 0 9 1;
#X connect 8 1 9 0;
#X connect 9 0 10 0;
#X connect 10 0 23 0;
#X connect 11 0 9 1;
#X connect 13 0 14 0;
#X connect 15 0 3 0;
#X connect 15 1 25 0;
#X connect 15 2 26 0;
#X connect 18 0 8 0;
#X connect 19 0 20 0;
#X connect 20 0 2 1;
#X connect 21 0 16 0;
#X connect 24 0 5 0;
#X connect 25 0 13 0;
#X connect 26 0 21 0;
#X restore 337 364 pd node.new;
#X obj 305 264 t a a;
#N canvas 436 47 346 401 node.check 0;
#X obj 24 25 inlet;
#X obj 24 365 outlet;
#X obj 24 155 t a b;
#X obj 56 215 list length;
#X obj 24 95 list split 1;
#X msg 44 65 3 testosc;
#X obj 24 245 -;
#X obj 24 305 until;
#X text 33 323 bang node.new n times;
#X obj 24 275 moses 1;
#X obj 24 125 + 1;
#X obj 56 185 pddom.get \$1.nodes;
#X connect 0 0 4 0;
#X connect 2 0 6 0;
#X connect 2 1 11 0;
#X connect 3 0 6 1;
#X connect 4 0 10 0;
#X connect 5 0 4 0;
#X connect 6 0 9 0;
#X connect 7 0 1 0;
#X connect 9 1 7 0;
#X connect 10 0 2 0;
#X connect 11 0 3 0;
#X restore 337 334 pd node.check;
#X obj 305 394 t a a;
#N canvas 142 22 458 308 nodes 0;
#X obj 23 114 list;
#X obj 23 84 b;
#X obj 23 54 r \$1.nodes.get;
#X obj 63 84 r \$1.nodes.set;
#X obj 23 174 s \$1.nodes;
#X obj 23 144 list trim;
#X text 23 24 Globel list of objects in the tree \, see [pdom.get].
;
#X connect 0 0 5 0;
#X connect 1 0 0 0;
#X connect 2 0 1 0;
#X connect 3 0 0 1;
#X connect 5 0 4 0;
#X restore 163 34 pd nodes;
#X obj 143 274 t a b;
#N canvas 173 24 393 348 list-drip 0;
#X obj 24 25 inlet;
#X obj 144 277 outlet;
#X obj 112 245 t b a;
#X obj 142 215 list;
#X obj 112 185 list split 1;
#X obj 24 155 t b a;
#X obj 54 125 list;
#X obj 24 95 list split 64;
#X msg 44 65 1 2;
#X msg 84 65 1 2 3 4 5;
#X connect 0 0 7 0;
#X connect 2 0 3 0;
#X connect 2 1 1 0;
#X connect 3 0 4 0;
#X connect 4 0 2 0;
#X connect 4 1 3 1;
#X connect 5 0 6 0;
#X connect 5 1 4 0;
#X connect 6 0 7 0;
#X connect 7 0 5 0;
#X connect 7 1 6 1;
#X connect 7 2 4 0;
#X connect 8 0 7 0;
#X connect 9 0 7 0;
#X restore 182 204 pd list-drip;
#X obj 533 454 t a a;
#N canvas 290 22 317 214 reset 0;
#X obj 24 25 inlet;
#X obj 24 65 list append \$1;
#X msg 24 95 \; \$1.nodes.set bang \; \$1.nodes~.set bang \; \$1 connect
last \; pd-\$1.bin clear \, obj 10 10 sig~ 0;
#X connect 0 0 1 0;
#X connect 1 0 2 0;
#X restore 536 294 pd reset;
#X obj 504 264 t b b;
#N canvas 265 38 531 452 node.check 0;
#X obj 24 25 inlet;
#X obj 24 65 list split 1;
#X obj 24 175 list split 1;
#X obj 24 205 list split 1;
#X floatatom 34 95 5 0 0 0 - - -;
#X obj 24 235 sel 0;
#X obj 24 115 t b a a;
#X obj 235 145 t a;
#X obj 24 265 b;
#X obj 24 295 f;
#X obj 24 335 outlet;
#X obj 24 145 pddom.get \$1.nodes;
#X connect 0 0 1 0;
#X connect 1 0 6 0;
#X connect 2 1 3 0;
#X connect 3 0 5 0;
#X connect 4 0 6 0;
#X connect 5 1 8 0;
#X connect 6 0 11 0;
#X connect 6 1 2 1;
#X connect 6 2 7 0;
#X connect 7 0 9 1;
#X connect 8 0 9 0;
#X connect 9 0 10 0;
#X connect 11 0 2 0;
#X restore 337 424 pd node.check;
#N canvas 657 22 549 442 node.delete 0;
#X obj 24 25 inlet;
#X obj 24 195 list prepend \$1;
#X obj 264 185 t b a;
#X msg 274 245 a b c d e;
#X msg 24 225 \; pd-\$1.bin.\$2 clear;
#X obj 264 305 s \$1.nodes.set;
#N canvas 63 22 352 299 list-replace-simple 0;
#X obj 24 25 inlet;
#X obj 204 25 inlet;
#X obj 100 25 inlet;
#X obj 24 235 outlet;
#X obj 24 95 list split;
#X obj 57 125 list split 1;
#X obj 24 195 list append;
#X obj 100 55 t a b;
#X obj 218 155 b;
#X obj 98 155 list prepend 0;
#X connect 0 0 4 0;
#X connect 1 0 9 1;
#X connect 2 0 7 0;
#X connect 4 0 6 0;
#X connect 4 1 5 0;
#X connect 4 2 6 0;
#X connect 5 1 9 0;
#X connect 6 0 3 0;
#X connect 7 0 4 1;
#X connect 7 1 8 0;
#X connect 8 0 6 1;
#X connect 9 0 6 1;
#X restore 264 275 pd list-replace-simple 0;
#X obj 24 155 t a a;
#N canvas 173 24 393 348 list-drip 0;
#X obj 24 25 inlet;
#X obj 144 277 outlet;
#X obj 112 245 t b a;
#X obj 142 215 list;
#X obj 112 185 list split 1;
#X obj 24 155 t b a;
#X obj 54 125 list;
#X obj 24 95 list split 64;
#X msg 44 65 1 2;
#X msg 84 65 1 2 3 4 5;
#X connect 0 0 7 0;
#X connect 2 0 3 0;
#X connect 2 1 1 0;
#X connect 3 0 4 0;
#X connect 4 0 2 0;
#X connect 4 1 3 1;
#X connect 5 0 6 0;
#X connect 5 1 4 0;
#X connect 6 0 7 0;
#X connect 7 0 5 0;
#X connect 7 1 6 1;
#X connect 7 2 4 0;
#X connect 8 0 7 0;
#X connect 9 0 7 0;
#X restore 24 65 pd list-drip;
#N canvas 69 22 450 300 node.exist 0;
#X obj 24 25 inlet;
#X text 84 55 check nodes list if position exist;
#X obj 24 245 outlet;
#X floatatom 44 55 5 0 0 0 - - -;
#X obj 63 145 list length;
#X obj 24 205 spigot;
#X obj 24 85 t a a b;
#X obj 43 175 <;
#X obj 63 115 pddom.get \$1.nodes;
#X connect 0 0 6 0;
#X connect 3 0 6 0;
#X connect 4 0 7 1;
#X connect 5 0 2 0;
#X connect 6 0 5 0;
#X connect 6 1 7 0;
#X connect 6 2 8 0;
#X connect 7 0 5 1;
#X connect 8 0 4 0;
#X restore 24 95 pd node.exist;
#X obj 264 215 pddom.get \$1.nodes;
#X text 74 135 set 0 position in nodes list and delete node;
#X connect 0 0 8 0;
#X connect 1 0 4 0;
#X connect 2 0 10 0;
#X connect 2 1 6 1;
#X connect 3 0 6 0;
#X connect 6 0 5 0;
#X connect 7 0 1 0;
#X connect 7 1 2 0;
#X connect 8 0 9 0;
#X connect 9 0 7 0;
#X connect 10 0 6 0;
#X restore 533 574 pd node.delete;
#N canvas 244 22 559 400 node.set 0;
#X obj 24 25 inlet;
#X msg 84 25 1 testosc;
#X obj 56 105 t b a;
#X obj 206 145 list split 1;
#X obj 56 235 s \$1.nodes.set;
#X msg 206 115 2 testosc;
#X obj 246 175 list split 1;
#X obj 24 275 list prepend \$1;
#X obj 24 65 t a a;
#N canvas 0 22 346 392 plugin.write 0;
#X obj 24 25 inlet;
#X obj 24 305 s;
#X obj 64 125 list prepend obj 10 10;
#X obj 24 95 list split 1;
#X msg 44 65 1 abs arg1 arg2;
#X obj 24 155 list prepend \$1;
#X obj 24 215 t b a;
#X msg 24 185 symbol pd-\$1.bin.\$2;
#X obj 24 245 list append;
#X obj 24 275 list trim;
#X connect 0 0 3 0;
#X connect 2 0 8 1;
#X connect 3 0 5 0;
#X connect 3 1 2 0;
#X connect 4 0 3 0;
#X connect 5 0 7 0;
#X connect 6 0 8 0;
#X connect 6 1 1 1;
#X connect 7 0 6 0;
#X connect 8 0 9 0;
#X connect 9 0 1 0;
#X restore 282 264 pd plugin.write;
#N canvas 0 22 286 252 list-replace-simple 0;
#X obj 24 25 inlet;
#X obj 204 25 inlet;
#X obj 100 25 inlet;
#X obj 24 195 outlet;
#X obj 24 65 list split;
#X obj 57 95 list split 1;
#X obj 24 155 list append;
#X obj 98 125 list prepend 0;
#X connect 0 0 4 0;
#X connect 1 0 7 1;
#X connect 2 0 4 1;
#X connect 4 0 6 0;
#X connect 4 1 5 0;
#X connect 4 2 6 0;
#X connect 5 1 7 0;
#X connect 6 0 3 0;
#X connect 7 0 6 1;
#X restore 56 205 pd list-replace-simple 0;
#X obj 56 145 pddom.get \$1.nodes;
#X msg 240 304 \; pd-\$1.bin.\$2 obj 10 10 \$3 \$1 \$2 \; \$1 connect
\$2 \; pd-\$1.bin.\$2 loadbang bang;
#X msg 24 305 \; pd-\$1.bin.\$2 obj 10 10 \$3 \$1 \$2 \; pd-\$1.bin.\$2
loadbang bang;
#X connect 0 0 8 0;
#X connect 2 0 11 0;
#X connect 2 1 3 0;
#X connect 3 0 10 1;
#X connect 3 1 6 0;
#X connect 5 0 3 0;
#X connect 6 0 10 2;
#X connect 7 0 13 0;
#X connect 8 0 7 0;
#X connect 8 1 2 0;
#X connect 10 0 4 0;
#X connect 11 0 10 0;
#X restore 143 464 pd node.set;
#X obj 564 543 s \$1;
#X obj 564 483 list prepend disconnect;
#X obj 564 513 list trim;
#N canvas 712 26 392 309 prepend-position 0;
#X obj 24 25 inlet;
#X obj 24 195 outlet;
#X obj 24 65 t a b;
#X obj 105 125 list length;
#X obj 24 155 list prepend;
#X msg 84 35 testosc;
#X obj 105 95 pddom.get \$1.nodes;
#X connect 0 0 2 0;
#X connect 2 0 4 0;
#X connect 2 1 6 0;
#X connect 3 0 4 1;
#X connect 4 0 1 0;
#X connect 5 0 2 0;
#X connect 6 0 3 0;
#X restore 143 234 pd prepend-position;
#N canvas 598 22 357 369 dsp 0;
#X obj 24 25 inlet;
#X obj 24 235 f 1;
#X obj 72 165 r pd;
#X obj 72 195 route dsp;
#X msg 24 295 \; pd dsp 0 \, dsp 1;
#X obj 24 265 select 1;
#X obj 24 135 spigot 1;
#X obj 24 65 route update disable enable;
#X msg 84 95 0;
#X msg 134 95 1;
#X connect 0 0 7 0;
#X connect 1 0 5 0;
#X connect 2 0 3 0;
#X connect 3 0 1 1;
#X connect 5 0 4 0;
#X connect 6 0 1 0;
#X connect 7 0 6 0;
#X connect 7 1 8 0;
#X connect 7 2 9 0;
#X connect 8 0 6 1;
#X connect 9 0 6 1;
#X restore 53 184 pd dsp;
#X obj 143 124 route add chain set delete reset;
#X obj 113 94 t b a;
#X obj 113 182 s \$1;
#X msg 113 152 dsp_ update;
#X obj 53 64 route dsp_;
#X connect 0 0 23 0;
#X connect 2 0 4 0;
#X connect 2 1 3 0;
#X connect 3 0 1 0;
#X connect 4 0 13 0;
#X connect 4 1 11 0;
#X connect 6 0 13 0;
#X connect 6 1 1 0;
#X connect 7 0 17 0;
#X connect 8 0 12 0;
#X connect 8 1 15 0;
#X connect 10 0 1 1;
#X connect 10 1 9 0;
#X connect 11 0 8 0;
#X connect 15 0 16 0;
#X connect 16 0 14 0;
#X connect 17 0 6 0;
#X connect 19 0 17 0;
#X connect 19 1 7 0;
#X connect 19 2 2 0;
#X connect 19 3 8 0;
#X connect 19 4 10 0;
#X connect 20 0 22 0;
#X connect 20 1 19 0;
#X connect 22 0 21 0;
#X connect 23 0 18 0;
#X connect 23 1 20 0;
