#N canvas 414 22 717 600 10;
#X obj 167 515 outlet~;
#X obj 67 515 outlet~;
#X obj 24 385 list prepend \$1;
#X obj 274 565 outlet;
#X obj 24 525 t a;
#X obj 24 165 list split;
#X obj 179 125 f \$2;
#X obj 24 25 r \$1.\$2;
#X msg 67 455 set \$1.\$2A;
#X msg 167 455 set \$1.\$2B;
#X obj 24 55 route connect;
#X symbolatom 268 478 14 0 0 0 - - -;
#X obj 24 415 t a a a;
#N canvas 0 22 286 252 list-replace-simple 0;
#X obj 24 25 inlet;
#X obj 204 25 inlet;
#X obj 100 25 inlet;
#X obj 24 195 outlet;
#X obj 24 65 list split;
#X obj 57 95 list split 1;
#X obj 24 155 list append;
#X obj 98 125 list prepend 0;
#X connect 0 0 4 0;
#X connect 1 0 7 1;
#X connect 2 0 4 1;
#X connect 4 0 6 0;
#X connect 4 1 5 0;
#X connect 4 2 6 0;
#X connect 5 1 7 0;
#X connect 6 0 3 0;
#X connect 7 0 6 1;
#X restore 514 385 pd list-replace-simple;
#X obj 514 415 s \$1.nodes~.set;
#X obj 589 355 f \$2;
#X obj 589 325 t b a;
#X obj 514 265 t b a;
#N canvas 0 22 343 395 find.previous 0;
#X obj 24 25 inlet;
#X obj 24 325 outlet;
#X obj 47 125 list length;
#X obj 70 245 list split;
#X obj 70 215 list append;
#X obj 103 275 list split 1;
#X text 83 25 find last non zero;
#N canvas 44 22 290 211 count.down 0;
#X obj 89 126 - 1;
#X obj 24 25 inlet;
#X obj 24 165 outlet;
#X obj 24 65 t a a;
#X obj 24 95 until;
#X obj 24 125 f;
#X obj 114 25 inlet;
#X connect 0 0 5 1;
#X connect 1 0 3 0;
#X connect 3 0 4 0;
#X connect 3 1 0 0;
#X connect 4 0 5 0;
#X connect 5 0 2 0;
#X connect 5 0 0 0;
#X connect 6 0 4 1;
#X restore 47 155 pd count.down;
#X obj 47 185 t a b a;
#X obj 24 215 f;
#X obj 235 275 b;
#X obj 24 65 list prepend 0;
#X obj 24 95 t b a a;
#X obj 24 245 - 1;
#X obj 103 305 select .;
#X connect 0 0 11 0;
#X connect 2 0 7 0;
#X connect 3 1 5 0;
#X connect 4 0 3 0;
#X connect 5 0 14 0;
#X connect 7 0 8 0;
#X connect 8 0 9 1;
#X connect 8 1 4 0;
#X connect 8 2 3 1;
#X connect 9 0 13 0;
#X connect 10 0 7 1;
#X connect 11 0 12 0;
#X connect 12 0 9 0;
#X connect 12 1 2 0;
#X connect 12 2 4 1;
#X connect 13 0 1 0;
#X connect 14 1 10 0;
#X restore 24 195 pd find.previous;
#X obj 67 485 r~ \$1.-1A;
#X obj 167 485 r~ \$1.-1B;
#N canvas 340 22 385 513 find.next 0;
#X obj 84 125 list length;
#X obj 44 305 symbol last;
#X obj 44 345 route float;
#X obj 44 375 +;
#X obj 24 405 list append;
#X obj 24 65 t b a a b;
#X obj 24 25 inlet;
#X obj 44 155 sel 0;
#X obj 76 185 + 1;
#N canvas 680 22 226 465 find.next 0;
#X obj 24 25 inlet;
#X obj 24 415 outlet;
#X obj 24 95 list length;
#X obj 24 215 list split;
#X obj 24 185 list append;
#X obj 57 245 list split 1;
#N canvas 44 22 290 211 count.up 0;
#X obj 24 25 inlet;
#X obj 24 165 outlet;
#X obj 24 95 until;
#X obj 24 125 f;
#X obj 114 25 inlet;
#X obj 89 126 + 1;
#X obj 24 65 t a b;
#X obj 94 95 f 0;
#X connect 0 0 6 0;
#X connect 2 0 3 0;
#X connect 3 0 1 0;
#X connect 3 0 5 0;
#X connect 4 0 2 1;
#X connect 5 0 3 1;
#X connect 6 0 2 0;
#X connect 6 1 7 0;
#X connect 7 0 3 1;
#X restore 24 125 pd count.up;
#X obj 24 155 t b a a;
#X obj 24 345 f;
#X obj 24 65 t a a;
#X obj 110 305 t b b;
#X obj 174 215 b;
#X obj 24 375 + 1;
#X obj 57 275 select .;
#X connect 0 0 9 0;
#X connect 2 0 6 0;
#X connect 3 1 5 0;
#X connect 4 0 3 0;
#X connect 5 0 13 0;
#X connect 6 0 7 0;
#X connect 7 0 4 0;
#X connect 7 1 8 1;
#X connect 7 2 3 1;
#X connect 8 0 12 0;
#X connect 9 0 2 0;
#X connect 9 1 4 1;
#X connect 10 0 8 0;
#X connect 10 1 11 0;
#X connect 11 0 6 1;
#X connect 12 0 1 0;
#X connect 13 1 10 0;
#X restore 143 305 pd find.next;
#X obj 76 275 list split;
#X obj 253 305 symbol last;
#X obj 76 215 t b a b;
#X obj 24 445 outlet;
#X obj 84 95 pddom.get \$1.nodes~;
#X obj 76 245 pddom.get \$1.nodes~;
#X connect 0 0 7 1;
#X connect 1 0 2 0;
#X connect 2 0 3 0;
#X connect 2 1 4 1;
#X connect 3 0 4 1;
#X connect 4 0 13 0;
#X connect 5 0 4 0;
#X connect 5 1 7 0;
#X connect 5 2 3 1;
#X connect 5 3 14 0;
#X connect 6 0 5 0;
#X connect 7 0 1 0;
#X connect 7 1 8 0;
#X connect 8 0 12 0;
#X connect 9 0 2 0;
#X connect 10 1 9 0;
#X connect 11 0 2 0;
#X connect 12 0 15 0;
#X connect 12 1 10 1;
#X connect 12 2 11 0;
#X connect 14 0 0 0;
#X connect 15 0 10 0;
#X restore 237 325 pd find.next;
#X obj 237 295 f \$2;
#X obj 24 225 t a b a;
#X obj 24 85 t b b;
#X msg 237 385 \; \$1.\$2 connect;
#X obj 237 355 list prepend \$1;
#X text 514 245 register at nodes~;
#X text 237 275 tell next plugin in chain to connect;
#X text 34 365 connect to previous plugin;
#X obj 554 25 namecanvas \$1.\$2.vis;
#X obj 24 125 pddom.get \$1.nodes~;
#X obj 514 295 pddom.get \$1.nodes~;
#X connect 2 0 12 0;
#X connect 4 0 3 0;
#X connect 5 0 18 0;
#X connect 6 0 5 1;
#X connect 7 0 10 0;
#X connect 8 0 19 0;
#X connect 9 0 11 0;
#X connect 9 0 20 0;
#X connect 10 0 24 0;
#X connect 12 0 4 0;
#X connect 12 1 8 0;
#X connect 12 2 9 0;
#X connect 13 0 14 0;
#X connect 15 0 13 1;
#X connect 16 0 15 0;
#X connect 16 1 13 2;
#X connect 17 0 32 0;
#X connect 17 1 16 0;
#X connect 18 0 23 0;
#X connect 19 0 1 0;
#X connect 20 0 0 0;
#X connect 21 0 26 0;
#X connect 22 0 21 0;
#X connect 23 0 2 0;
#X connect 23 1 22 0;
#X connect 23 2 17 0;
#X connect 24 0 31 0;
#X connect 24 1 6 0;
#X connect 26 0 25 0;
#X connect 31 0 5 0;
#X connect 32 0 13 0;
