#N canvas 63 22 356 304 10;
#X obj 24 25 namecanvas \$1.\$2.vis;
#X obj 24 215 outlet~;
#X obj 234 65 loadbang;
#X obj 234 155 s \$1;
#X msg 234 125 connect \$1;
#X obj 234 95 f \$2;
#X msg 37 155 rack1.node.-1;
#X msg 52 125 set \$1;
#X obj 24 185 r~ \$1.node.-1;
#X obj 24 65 r \$1.\$2;
#X obj 24 95 route receive~;
#X connect 2 0 5 0;
#X connect 4 0 3 0;
#X connect 5 0 4 0;
#X connect 8 0 1 0;
#X connect 9 0 10 0;
#X connect 10 0 6 0;
#X connect 10 0 8 0;
