#N canvas 63 22 375 239 10;
#X obj 24 25 namecanvas \$1.\$2.vis;
#X obj 234 65 loadbang;
#X obj 234 155 s \$1;
#X obj 234 95 f \$2;
#X obj 24 65 r \$1.\$2;
#X obj 24 95 route receive~;
#X obj 24 155 outlet;
#X msg 234 125 subscribe \$1;
#X connect 1 0 3 0;
#X connect 3 0 7 0;
#X connect 4 0 5 0;
#X connect 5 1 6 0;
#X connect 7 0 2 0;
