#N canvas 77 22 321 243 10;
#X obj 24 25 inlet;
#X obj 24 165 s;
#X obj 174 25 r \$1.\$2;
#X obj 174 65 route send;
#X msg 174 135 set \$1;
#X msg 174 165;
#X connect 0 0 1 0;
#X connect 2 0 3 0;
#X connect 3 0 1 1;
#X connect 3 0 4 0;
#X connect 4 0 5 0;
