#N canvas 245 73 1008 490 10;
#X obj 143 34 inlet;
#N canvas 13 22 616 393 dsp 0;
#X obj 24 25 inlet;
#X obj 24 325 outlet;
#N canvas 127 22 317 391 turn-off-on-dsp-mode 0;
#X obj 24 25 inlet;
#X obj 47 135 outlet;
#X msg 199 179 \; pd dsp 0;
#X msg 24 366 \; pd dsp \$1;
#X obj 144 285 r netpd-dsp;
#X obj 144 255 s netpd-getdsp;
#X obj 144 225 loadbang;
#X obj 42 195 r pd;
#X obj 42 255 route dsp;
#X obj 24 326 f 1;
#X obj 42 225 spigot;
#X obj 24 65 t b a b;
#X obj 138 126 unpack f s f;
#X msg 138 96 1 bang 0;
#X connect 0 0 11 0;
#X connect 4 0 9 1;
#X connect 6 0 5 0;
#X connect 7 0 10 0;
#X connect 8 0 9 1;
#X connect 9 0 3 0;
#X connect 10 0 8 0;
#X connect 11 0 9 0;
#X connect 11 1 1 0;
#X connect 11 2 13 0;
#X connect 12 0 10 1;
#X connect 12 1 2 0;
#X connect 12 2 10 1;
#X connect 13 0 12 0;
#X restore 264 245 pd turn-off-on-dsp-mode;
#N canvas 0 22 433 288 dsp-tree-update-workaround 0;
#X obj 24 25 inlet;
#X obj 64 105 outlet;
#X obj 24 65 t b a;
#N canvas 0 22 450 300 \$1.dsp 0;
#X restore 24 225 pd \$1.dsp;
#X obj 24 145 list append \$1;
#X msg 24 175 \; pd-\$1.dsp obj 10 10 +~ \, clear;
#X connect 0 0 2 0;
#X connect 2 0 4 0;
#X connect 2 1 1 0;
#X connect 4 0 5 0;
#X restore 24 245 pd dsp-tree-update-workaround;
#X obj 24 215 spigot 1;
#X obj 264 215 spigot;
#X obj 24 55 route dsp-tree-update-mode;
#X obj 304 182 == 1;
#X obj 77 182 == 0;
#X obj 510 182 == 2;
#X obj 471 245 spigot;
#X connect 0 0 6 0;
#X connect 2 0 1 0;
#X connect 3 0 1 0;
#X connect 4 0 3 0;
#X connect 5 0 2 0;
#X connect 6 0 8 0;
#X connect 6 0 7 0;
#X connect 6 0 9 0;
#X connect 6 1 4 0;
#X connect 6 1 5 0;
#X connect 6 1 10 0;
#X connect 7 0 5 1;
#X connect 8 0 4 1;
#X connect 9 0 10 1;
#X connect 10 0 1 0;
#X restore 143 74 pd dsp;
#N canvas 206 22 751 557 node.new 0;
#X obj 24 25 inlet;
#X obj 254 325 t a a;
#X obj 253 415 pack f f;
#X obj 24 215 f;
#X obj 64 215 + 1;
#X msg 154 65 0;
#X obj 274 25 loadbang;
#X msg 294 55 bang;
#X obj 274 85 list append \$1;
#X obj 253 445 list prepend \$1;
#X obj 24 245 t a a;
#X obj 24 385 t a a;
#X obj 24 415 pack f f;
#X obj 24 445 list prepend \$1;
#X msg 94 385 0;
#X text 264 307 new node;
#X obj 154 215 list append 0;
#X obj 154 245 s \$1.nodes.set;
#X obj 24 105 t b b b;
#X obj 314 245 s \$1.nodes~.set;
#X text 34 365 connect this to the last node;
#X obj 24 275 + 1;
#X obj 306 355 * 30;
#X obj 306 385 + 40;
#X obj 314 215 list append .;
#X msg 253 475 \; pd-\$1.bin obj 10 \$3 pd \$1.node.\$2 \; pd-\$1.node.\$2
menuclose \, obj 10 10 inlet~ \, obj 10 100 outlet~ \, obj 50 50 pd
\$1.bin.\$2 \; pd-\$1.bin.\$2 menuclose;
#X msg 24 475 \; pd-\$1.bin connect \$3 0 \$2 0;
#X msg 274 115 \; pd-\$1.bin obj 10 10 sig~ 0;
#X text 361 25 would be faster to save it with the sig~ than dynamic
patching the sig~ on loadbang.;
#X obj 154 25 inlet;
#X obj 154 185 pddom.get \$1.nodes;
#X obj 314 185 pddom.get \$1.nodes~;
#X connect 0 0 18 0;
#X connect 1 0 2 0;
#X connect 1 1 22 0;
#X connect 2 0 9 0;
#X connect 3 0 4 0;
#X connect 3 0 10 0;
#X connect 4 0 3 1;
#X connect 5 0 3 1;
#X connect 6 0 8 0;
#X connect 7 0 8 0;
#X connect 8 0 27 0;
#X connect 9 0 25 0;
#X connect 10 0 21 0;
#X connect 10 1 1 0;
#X connect 11 0 12 1;
#X connect 11 1 12 0;
#X connect 12 0 13 0;
#X connect 13 0 26 0;
#X connect 14 0 12 1;
#X connect 16 0 17 0;
#X connect 18 0 3 0;
#X connect 18 1 30 0;
#X connect 18 2 31 0;
#X connect 21 0 11 0;
#X connect 22 0 23 0;
#X connect 23 0 2 1;
#X connect 24 0 19 0;
#X connect 29 0 5 0;
#X connect 30 0 16 0;
#X connect 31 0 24 0;
#X restore 357 294 pd node.new;
#N canvas 483 22 555 396 plugin.new 0;
#X obj 24 25 inlet;
#X msg 84 25 1 testosc;
#X obj 56 105 t b a;
#X obj 206 145 list split 1;
#X obj 56 235 s \$1.nodes.set;
#X msg 206 115 2 testosc;
#X obj 246 175 list split 1;
#X obj 24 275 list prepend \$1;
#X obj 24 65 t a a;
#N canvas 0 22 342 388 plugin.write 0;
#X obj 24 25 inlet;
#X obj 24 305 s;
#X obj 64 125 list prepend obj 10 10;
#X obj 24 95 list split 1;
#X msg 44 65 1 abs arg1 arg2;
#X obj 24 155 list prepend \$1;
#X obj 24 215 t b a;
#X msg 24 185 symbol pd-\$1.bin.\$2;
#X obj 24 245 list append;
#X obj 24 275 list trim;
#X connect 0 0 3 0;
#X connect 2 0 8 1;
#X connect 3 0 5 0;
#X connect 3 1 2 0;
#X connect 4 0 3 0;
#X connect 5 0 7 0;
#X connect 6 0 8 0;
#X connect 6 1 1 1;
#X connect 7 0 6 0;
#X connect 8 0 9 0;
#X connect 9 0 1 0;
#X restore 282 264 pd plugin.write;
#N canvas 0 22 286 252 list-replace-simple 0;
#X obj 24 25 inlet;
#X obj 204 25 inlet;
#X obj 100 25 inlet;
#X obj 24 195 outlet;
#X obj 24 65 list split;
#X obj 57 95 list split 1;
#X obj 24 155 list append;
#X obj 98 125 list prepend 0;
#X connect 0 0 4 0;
#X connect 1 0 7 1;
#X connect 2 0 4 1;
#X connect 4 0 6 0;
#X connect 4 1 5 0;
#X connect 4 2 6 0;
#X connect 5 1 7 0;
#X connect 6 0 3 0;
#X connect 7 0 6 1;
#X restore 56 205 pd list-replace-simple 0;
#X msg 24 305 \; pd-\$1.bin.\$2 obj 10 10 \$3 \$1 \$2 \; \$1.\$2 connect
\; pd-\$1.bin.\$2 loadbang bang;
#X obj 56 145 pddom.get \$1.nodes;
#X connect 0 0 8 0;
#X connect 2 0 12 0;
#X connect 2 1 3 0;
#X connect 3 0 10 1;
#X connect 3 1 6 0;
#X connect 5 0 3 0;
#X connect 6 0 10 2;
#X connect 7 0 11 0;
#X connect 8 0 7 0;
#X connect 8 1 2 0;
#X connect 10 0 4 0;
#X connect 12 0 10 0;
#X restore 143 444 pd plugin.new;
#X obj 325 214 t a a;
#N canvas 436 47 346 401 node.check 0;
#X obj 24 25 inlet;
#X obj 24 365 outlet;
#X obj 24 155 t a b;
#X obj 56 215 list length;
#X obj 24 95 list split 1;
#X msg 44 65 3 testosc;
#X obj 24 245 -;
#X obj 24 305 until;
#X text 33 323 bang node.new n times;
#X obj 24 275 moses 1;
#X obj 24 125 + 1;
#X obj 56 185 pddom.get \$1.nodes;
#X connect 0 0 4 0;
#X connect 2 0 6 0;
#X connect 2 1 11 0;
#X connect 3 0 6 1;
#X connect 4 0 10 0;
#X connect 5 0 4 0;
#X connect 6 0 9 0;
#X connect 7 0 1 0;
#X connect 9 1 7 0;
#X connect 10 0 2 0;
#X connect 11 0 3 0;
#X restore 357 244 pd node.check;
#N canvas 657 22 549 442 plugin.delete 0;
#X obj 24 25 inlet;
#X obj 24 195 list prepend \$1;
#X obj 264 185 t b a;
#X msg 274 245 a b c d e;
#X msg 24 225 \; pd-\$1.bin.\$2 clear;
#X obj 264 305 s \$1.nodes.set;
#N canvas 63 22 352 299 list-replace-simple 0;
#X obj 24 25 inlet;
#X obj 204 25 inlet;
#X obj 100 25 inlet;
#X obj 24 235 outlet;
#X obj 24 95 list split;
#X obj 57 125 list split 1;
#X obj 24 195 list append;
#X obj 100 55 t a b;
#X obj 218 155 b;
#X obj 98 155 list prepend 0;
#X connect 0 0 4 0;
#X connect 1 0 9 1;
#X connect 2 0 7 0;
#X connect 4 0 6 0;
#X connect 4 1 5 0;
#X connect 4 2 6 0;
#X connect 5 1 9 0;
#X connect 6 0 3 0;
#X connect 7 0 4 1;
#X connect 7 1 8 0;
#X connect 8 0 6 1;
#X connect 9 0 6 1;
#X restore 264 275 pd list-replace-simple 0;
#X obj 24 155 t a a;
#N canvas 173 24 393 348 list-drip 0;
#X obj 24 25 inlet;
#X obj 144 277 outlet;
#X obj 112 245 t b a;
#X obj 142 215 list;
#X obj 112 185 list split 1;
#X obj 24 155 t b a;
#X obj 54 125 list;
#X obj 24 95 list split 64;
#X msg 44 65 1 2;
#X msg 84 65 1 2 3 4 5;
#X connect 0 0 7 0;
#X connect 2 0 3 0;
#X connect 2 1 1 0;
#X connect 3 0 4 0;
#X connect 4 0 2 0;
#X connect 4 1 3 1;
#X connect 5 0 6 0;
#X connect 5 1 4 0;
#X connect 6 0 7 0;
#X connect 7 0 5 0;
#X connect 7 1 6 1;
#X connect 7 2 4 0;
#X connect 8 0 7 0;
#X connect 9 0 7 0;
#X restore 24 65 pd list-drip;
#X text 74 135 set 0 position in nodes list and delete plugin;
#N canvas 0 22 450 300 node.exist 0;
#X obj 24 25 inlet;
#X text 84 55 check nodes list if position exist;
#X obj 24 245 outlet;
#X floatatom 44 55 5 0 0 0 - - -;
#X obj 63 145 list length;
#X obj 24 205 spigot;
#X obj 24 85 t a a b;
#X obj 43 175 <;
#X obj 63 115 pddom.get \$1.nodes;
#X connect 0 0 6 0;
#X connect 3 0 6 0;
#X connect 4 0 7 1;
#X connect 5 0 2 0;
#X connect 6 0 5 0;
#X connect 6 1 7 0;
#X connect 6 2 8 0;
#X connect 7 0 5 1;
#X connect 8 0 4 0;
#X restore 24 95 pd node.exist;
#X obj 264 215 pddom.get \$1.nodes;
#X connect 0 0 8 0;
#X connect 1 0 4 0;
#X connect 2 0 11 0;
#X connect 2 1 6 1;
#X connect 3 0 6 0;
#X connect 6 0 5 0;
#X connect 7 0 1 0;
#X connect 7 1 2 0;
#X connect 8 0 10 0;
#X connect 10 0 7 0;
#X connect 11 0 6 0;
#X restore 483 444 pd plugin.delete;
#N canvas 265 38 527 448 plugin.check 0;
#X obj 24 25 inlet;
#X obj 24 65 list split 1;
#X obj 24 175 list split 1;
#X obj 24 205 list split 1;
#X floatatom 34 95 5 0 0 0 - - -;
#X obj 24 235 sel 0;
#X obj 24 115 t b a a;
#X obj 235 145 t a;
#X obj 24 265 b;
#X obj 24 295 f;
#X obj 24 335 outlet;
#X obj 24 145 pddom.get \$1.nodes;
#X connect 0 0 1 0;
#X connect 1 0 6 0;
#X connect 2 1 3 0;
#X connect 3 0 5 0;
#X connect 4 0 6 0;
#X connect 5 1 8 0;
#X connect 6 0 11 0;
#X connect 6 1 2 1;
#X connect 6 2 7 0;
#X connect 7 0 9 1;
#X connect 8 0 9 0;
#X connect 9 0 10 0;
#X connect 11 0 2 0;
#X restore 357 354 pd plugin.check;
#X obj 325 324 t a a;
#N canvas 712 26 388 305 prepend-nodes.length 0;
#X obj 24 25 inlet;
#X obj 24 195 outlet;
#X obj 24 65 t a b;
#X obj 105 125 list length;
#X obj 24 155 list prepend;
#X msg 84 35 testosc;
#X obj 105 95 pddom.get \$1.nodes;
#X connect 0 0 2 0;
#X connect 2 0 4 0;
#X connect 2 1 6 0;
#X connect 3 0 4 1;
#X connect 4 0 1 0;
#X connect 5 0 2 0;
#X connect 6 0 3 0;
#X restore 143 214 pd prepend-nodes.length;
#N canvas 0 22 450 300 nodes 0;
#X obj 23 114 list;
#X obj 23 84 b;
#X obj 23 54 r \$1.nodes.get;
#X obj 63 84 r \$1.nodes.set;
#X obj 23 174 s \$1.nodes;
#X obj 23 144 list trim;
#X text 23 24 Globel list of objects in the tree \, see [pdom.get].
;
#X connect 0 0 5 0;
#X connect 1 0 0 0;
#X connect 2 0 1 0;
#X connect 3 0 0 1;
#X connect 5 0 4 0;
#X restore 253 34 pd nodes;
#N canvas 0 22 575 312 nodes~ 0;
#X obj 23 144 list;
#X obj 23 114 b;
#X obj 23 84 r \$1.nodes~.get;
#X obj 63 114 r \$1.nodes~.set;
#X obj 23 204 s \$1.nodes~;
#X obj 23 174 list trim;
#X text 23 24 Global accessible list of signal processing objects \,
see [pdom.get]. List contains id of sender that each object listens
to. Signal processing objects have to register themself to this list.
;
#X connect 0 0 5 0;
#X connect 1 0 0 0;
#X connect 2 0 1 0;
#X connect 3 0 0 1;
#X connect 5 0 4 0;
#X restore 343 34 pd nodes~;
#X obj 143 254 t a b;
#N canvas 173 24 393 348 list-drip 0;
#X obj 24 25 inlet;
#X obj 144 277 outlet;
#X obj 112 245 t b a;
#X obj 142 215 list;
#X obj 112 185 list split 1;
#X obj 24 155 t b a;
#X obj 54 125 list;
#X obj 24 95 list split 64;
#X msg 44 65 1 2;
#X msg 84 65 1 2 3 4 5;
#X connect 0 0 7 0;
#X connect 2 0 3 0;
#X connect 2 1 1 0;
#X connect 3 0 4 0;
#X connect 4 0 2 0;
#X connect 4 1 3 1;
#X connect 5 0 6 0;
#X connect 5 1 4 0;
#X connect 6 0 7 0;
#X connect 7 0 5 0;
#X connect 7 1 6 1;
#X connect 7 2 4 0;
#X connect 8 0 7 0;
#X connect 9 0 7 0;
#X restore 182 184 pd list-drip;
#N canvas 128 201 535 342 plugin.disconnect 0;
#X obj 24 25 inlet;
#X obj 24 115 symbol last;
#N canvas 173 24 393 348 list-drip 0;
#X obj 24 25 inlet;
#X obj 144 277 outlet;
#X obj 112 245 t b a;
#X obj 142 215 list;
#X obj 112 185 list split 1;
#X obj 24 155 t b a;
#X obj 54 125 list;
#X obj 24 95 list split 64;
#X msg 44 65 1 2;
#X msg 84 65 1 2 3 4 5;
#X connect 0 0 7 0;
#X connect 2 0 3 0;
#X connect 2 1 1 0;
#X connect 3 0 4 0;
#X connect 4 0 2 0;
#X connect 4 1 3 1;
#X connect 5 0 6 0;
#X connect 5 1 4 0;
#X connect 6 0 7 0;
#X connect 7 0 5 0;
#X connect 7 1 6 1;
#X connect 7 2 4 0;
#X connect 8 0 7 0;
#X connect 9 0 7 0;
#X restore 126 115 pd list-drip;
#X obj 256 145 t b a;
#N canvas 63 22 352 299 list-replace-simple 0;
#X obj 24 25 inlet;
#X obj 204 25 inlet;
#X obj 100 25 inlet;
#X obj 24 235 outlet;
#X obj 24 95 list split;
#X obj 57 125 list split 1;
#X obj 24 195 list append;
#X obj 100 55 t a b;
#X obj 218 155 b;
#X obj 98 155 list prepend .;
#X connect 0 0 4 0;
#X connect 1 0 9 1;
#X connect 2 0 7 0;
#X connect 4 0 6 0;
#X connect 4 1 5 0;
#X connect 4 2 6 0;
#X connect 5 1 9 0;
#X connect 6 0 3 0;
#X connect 7 0 4 1;
#X connect 7 1 8 0;
#X connect 8 0 6 1;
#X connect 9 0 6 1;
#X restore 256 205 pd list-replace-simple .;
#X obj 256 235 s \$1.nodes~.set;
#X obj 24 185 list prepend \$1;
#X msg 24 215 \; \$1.\$2 connect;
#N canvas 173 24 393 348 list-drip 0;
#X obj 24 25 inlet;
#X obj 144 277 outlet;
#X obj 112 245 t b a;
#X obj 142 215 list;
#X obj 112 185 list split 1;
#X obj 24 155 t b a;
#X obj 54 125 list;
#X obj 24 95 list split 64;
#X msg 44 65 1 2;
#X msg 84 65 1 2 3 4 5;
#X connect 0 0 7 0;
#X connect 2 0 3 0;
#X connect 2 1 1 0;
#X connect 3 0 4 0;
#X connect 4 0 2 0;
#X connect 4 1 3 1;
#X connect 5 0 6 0;
#X connect 5 1 4 0;
#X connect 6 0 7 0;
#X connect 7 0 5 0;
#X connect 7 1 6 1;
#X connect 7 2 4 0;
#X connect 8 0 7 0;
#X connect 9 0 7 0;
#X restore 256 115 pd list-drip;
#X obj 24 65 t b a a;
#N canvas 376 22 358 447 nodes~.find 0;
#X obj 24 155 list length;
#N canvas 44 22 290 211 count.down 0;
#X obj 89 126 - 1;
#X obj 24 25 inlet;
#X obj 24 165 outlet;
#X obj 24 65 t a a;
#X obj 24 95 until;
#X obj 24 125 f;
#X obj 114 25 inlet;
#X connect 0 0 5 1;
#X connect 1 0 3 0;
#X connect 3 0 4 0;
#X connect 3 1 0 0;
#X connect 4 0 5 0;
#X connect 5 0 2 0;
#X connect 5 0 0 0;
#X connect 6 0 4 1;
#X restore 24 185 pd count.down;
#X obj 24 125 t a a;
#X obj 24 275 list split;
#X obj 24 305 list split 1;
#X obj 24 245 list append;
#X obj 24 65 t b a;
#X obj 24 335 sel -1;
#X obj 24 215 t b a a;
#X obj 24 365 f;
#X obj 194 285 t a;
#X obj 24 405 outlet;
#X obj 24 25 inlet;
#X text 154 185 might change to count.up;
#N canvas 44 22 290 211 count.up 0;
#X obj 24 25 inlet;
#X obj 24 165 outlet;
#X obj 24 95 until;
#X obj 24 125 f;
#X obj 114 25 inlet;
#X obj 89 126 + 1;
#X obj 24 65 t a b;
#X obj 94 95 f 0;
#X connect 0 0 6 0;
#X connect 2 0 3 0;
#X connect 3 0 1 0;
#X connect 3 0 5 0;
#X connect 4 0 2 1;
#X connect 5 0 3 1;
#X connect 6 0 2 0;
#X connect 6 1 7 0;
#X connect 7 0 3 1;
#X restore 234 215 pd count.up;
#X obj 24 95 pddom.get \$1.nodes~;
#X connect 0 0 1 0;
#X connect 1 0 8 0;
#X connect 2 0 0 0;
#X connect 2 1 5 1;
#X connect 3 1 4 0;
#X connect 4 0 7 0;
#X connect 5 0 3 0;
#X connect 6 0 15 0;
#X connect 6 1 10 0;
#X connect 7 0 9 0;
#X connect 8 0 5 0;
#X connect 8 1 9 1;
#X connect 8 2 3 1;
#X connect 9 0 11 0;
#X connect 10 0 7 1;
#X connect 12 0 6 0;
#X connect 15 0 2 0;
#X restore 126 145 pd nodes~.find;
#X obj 256 175 pddom.get \$1.nodes~;
#X connect 0 0 9 0;
#X connect 1 0 6 0;
#X connect 2 0 10 0;
#X connect 3 0 11 0;
#X connect 3 1 4 1;
#X connect 4 0 5 0;
#X connect 6 0 7 0;
#X connect 8 0 3 0;
#X connect 9 0 1 0;
#X connect 9 1 2 0;
#X connect 9 2 8 0;
#X connect 10 0 6 0;
#X connect 11 0 4 0;
#X restore 623 444 pd plugin.disconnect;
#X obj 483 274 t a a;
#X obj 623 334 t a;
#X obj 357 384 t a a;
#X obj 31 34 inlet~;
#X obj 31 114 outlet~;
#N canvas 290 22 313 210 reset 0;
#X obj 24 25 inlet;
#X obj 24 65 list append \$1;
#X msg 24 95 \; \$1.nodes.set bang \; \$1.nodes~.set bang \; \$1.last
connect \; pd-\$1.bin clear \, obj 10 10 sig~ 0;
#X connect 0 0 1 0;
#X connect 1 0 2 0;
#X restore 526 214 pd reset;
#N canvas 290 22 247 219 vis 0;
#X obj 24 95 list prepend \$1;
#X obj 24 25 inlet;
#X msg 24 125 \; \$1.\$2.vis findparent;
#N canvas 436 47 251 284 node.check 0;
#X obj 24 25 inlet;
#X obj 24 225 outlet;
#X obj 81 125 list length;
#X obj 24 185 spigot;
#X obj 63 155 <;
#X obj 24 65 t a a b;
#X obj 81 95 pddom.get \$1.nodes;
#X connect 0 0 5 0;
#X connect 2 0 4 1;
#X connect 3 0 1 0;
#X connect 4 0 3 1;
#X connect 5 0 3 0;
#X connect 5 1 4 0;
#X connect 5 2 6 0;
#X connect 6 0 2 0;
#X restore 24 65 pd node.check;
#X connect 0 0 2 0;
#X connect 1 0 3 0;
#X connect 3 0 0 0;
#X restore 502 154 pd vis;
#X obj 494 184 t b b;
#X obj 143 104 route add chain set delete disconnect reset vis;
#X obj 31 74 pddom.bin~ \$1;
#X connect 0 0 1 0;
#X connect 1 0 23 0;
#X connect 4 0 8 0;
#X connect 4 1 5 0;
#X connect 5 0 2 0;
#X connect 7 0 17 0;
#X connect 8 0 3 0;
#X connect 8 1 7 0;
#X connect 9 0 12 0;
#X connect 12 0 3 0;
#X connect 12 1 2 0;
#X connect 13 0 9 0;
#X connect 15 0 6 0;
#X connect 15 1 14 0;
#X connect 16 0 14 0;
#X connect 17 0 6 0;
#X connect 17 1 14 0;
#X connect 22 0 2 1;
#X connect 22 1 20 0;
#X connect 23 0 9 0;
#X connect 23 1 13 0;
#X connect 23 2 4 0;
#X connect 23 3 15 0;
#X connect 23 4 16 0;
#X connect 23 5 22 0;
#X connect 23 6 21 0;
