#N canvas 136 22 849 457 10;
#X obj 53 34 inlet;
#N canvas 336 22 635 579 node.new 0;
#X obj 24 25 inlet;
#X obj 254 275 t a a;
#X obj 253 365 pack f f;
#X obj 24 175 f;
#X obj 64 175 + 1;
#X msg 284 115 0;
#X obj 253 395 list prepend \$1;
#X obj 24 205 t a a;
#X obj 24 305 t a a;
#X obj 24 335 pack f f;
#X obj 24 365 list prepend \$1;
#X text 264 257 new node;
#X text 34 285 connect this to the last node;
#X obj 24 235 + 1;
#X obj 306 305 * 30;
#X obj 306 335 + 40;
#X msg 253 425 \; pd-\$1.bin obj 10 \$3 pd \$1.node.\$2 \; pd-\$1.node.\$2
menuclose \, obj 10 10 inlet~ \, obj 10 100 outlet~ \, obj 50 50 pd
\$1.bin.\$2 \; pd-\$1.bin.\$2 menuclose;
#X msg 24 395 \; pd-\$1.bin connect \$3 0 \$2 0;
#X obj 284 25 inlet;
#X obj 24 65 t b b;
#X msg 64 95 node add;
#X obj 64 125 s \$1;
#X connect 0 0 19 0;
#X connect 1 0 2 0;
#X connect 1 1 14 0;
#X connect 2 0 6 0;
#X connect 3 0 4 0;
#X connect 3 0 7 0;
#X connect 4 0 3 1;
#X connect 5 0 3 1;
#X connect 5 0 9 1;
#X connect 6 0 16 0;
#X connect 7 0 13 0;
#X connect 7 1 1 0;
#X connect 8 0 9 1;
#X connect 8 1 9 0;
#X connect 9 0 10 0;
#X connect 10 0 17 0;
#X connect 13 0 8 0;
#X connect 14 0 15 0;
#X connect 15 0 2 1;
#X connect 18 0 5 0;
#X connect 19 0 3 0;
#X connect 19 1 20 0;
#X connect 20 0 21 0;
#X restore 547 294 pd node.new;
#X obj 515 194 t a a;
#N canvas 436 47 311 419 node.check 0;
#X obj 24 25 inlet;
#X obj 24 365 outlet;
#X obj 24 155 t a b;
#X obj 56 215 list length;
#X obj 24 95 list split 1;
#X msg 44 65 3 testosc;
#X obj 24 245 -;
#X obj 24 305 until;
#X text 33 323 bang node.new n times;
#X obj 24 275 moses 1;
#X obj 24 125 + 1;
#X obj 56 185 pddom.get \$1.nodes;
#X connect 0 0 4 0;
#X connect 2 0 6 0;
#X connect 2 1 11 0;
#X connect 3 0 6 1;
#X connect 4 0 10 0;
#X connect 5 0 4 0;
#X connect 6 0 9 0;
#X connect 7 0 1 0;
#X connect 9 1 7 0;
#X connect 10 0 2 0;
#X connect 11 0 3 0;
#X restore 547 244 pd node.check;
#X obj 515 334 t a a;
#X obj 363 254 t a b;
#N canvas 173 24 393 348 list-drip 0;
#X obj 24 25 inlet;
#X obj 144 277 outlet;
#X obj 112 245 t b a;
#X obj 142 215 list;
#X obj 112 185 list split 1;
#X obj 24 155 t b a;
#X obj 54 125 list;
#X obj 24 95 list split 64;
#X msg 84 65 1 2 3 4 5;
#X connect 0 0 7 0;
#X connect 2 0 3 0;
#X connect 2 1 1 0;
#X connect 3 0 4 0;
#X connect 4 0 2 0;
#X connect 4 1 3 1;
#X connect 5 0 6 0;
#X connect 5 1 4 0;
#X connect 6 0 7 0;
#X connect 7 0 5 0;
#X connect 7 1 6 1;
#X connect 7 2 4 0;
#X connect 8 0 7 0;
#X restore 403 184 pd list-drip;
#N canvas 893 22 317 214 reset 0;
#X obj 24 25 inlet;
#X obj 24 65 list append \$1;
#X msg 24 95 \; \$1 node reset \; pd-\$1.bin clear \, obj 10 10 sig~
0;
#X connect 0 0 1 0;
#X connect 1 0 2 0;
#X restore 735 217 pd reset;
#X obj 703 187 t b b;
#N canvas 32 22 392 433 node.check 0;
#X obj 24 25 inlet;
#X obj 24 65 list split 1;
#X obj 24 175 list split 1;
#X obj 24 205 list split 1;
#X floatatom 34 95 5 0 0 0 - - -;
#X obj 24 235 sel 0;
#X obj 24 115 t b a a;
#X obj 235 145 t a;
#X obj 24 265 b;
#X obj 24 295 f;
#X obj 24 335 outlet;
#X obj 24 145 pddom.get \$1.nodes;
#X connect 0 0 1 0;
#X connect 1 0 6 0;
#X connect 2 1 3 0;
#X connect 3 0 5 0;
#X connect 4 0 6 0;
#X connect 5 1 8 0;
#X connect 6 0 11 0;
#X connect 6 1 2 1;
#X connect 6 2 7 0;
#X connect 7 0 9 1;
#X connect 8 0 9 0;
#X connect 9 0 10 0;
#X connect 11 0 2 0;
#X restore 542 364 pd node.check;
#N canvas 467 22 361 289 node.delete 0;
#X obj 24 25 inlet;
#N canvas 394 22 450 300 node.exist 0;
#X obj 24 25 inlet;
#X obj 24 225 outlet;
#X obj 83 125 list length;
#X obj 24 185 spigot;
#X obj 24 65 t a a b;
#X obj 63 155 <;
#X obj 83 95 pddom.get \$1.nodes;
#X connect 0 0 4 0;
#X connect 2 0 5 1;
#X connect 3 0 1 0;
#X connect 4 0 3 0;
#X connect 4 1 5 0;
#X connect 4 2 6 0;
#X connect 5 0 3 1;
#X connect 6 0 2 0;
#X restore 24 65 pd node.exist;
#X obj 24 95 list prepend \$1;
#X msg 24 125 \; \$1 disconnect \$2 \, node replace \$2 0 \; pd-\$1.bin.\$2
clear;
#X connect 0 0 1 0;
#X connect 1 0 2 0;
#X connect 2 0 3 0;
#X restore 703 407 pd node.delete;
#N canvas 463 27 559 400 node.set 0;
#X obj 24 25 inlet;
#X msg 84 25 1 testosc;
#X obj 24 175 list prepend \$1;
#X obj 24 65 t a a;
#N canvas 112 22 346 392 plugin.write 0;
#X obj 24 25 inlet;
#X obj 24 305 s;
#X obj 64 125 list prepend obj 10 10;
#X obj 24 95 list split 1;
#X msg 44 65 1 abs arg1 arg2;
#X obj 24 155 list prepend \$1;
#X obj 24 215 t b a;
#X msg 24 185 symbol pd-\$1.bin.\$2;
#X obj 24 245 list append;
#X obj 24 275 list trim;
#X connect 0 0 3 0;
#X connect 2 0 8 1;
#X connect 3 0 5 0;
#X connect 3 1 2 0;
#X connect 4 0 3 0;
#X connect 5 0 7 0;
#X connect 6 0 8 0;
#X connect 6 1 1 1;
#X connect 7 0 6 0;
#X connect 8 0 9 0;
#X connect 9 0 1 0;
#X restore 242 164 pd plugin.write;
#X msg 24 205 \; pd-\$1.bin.\$2 obj 10 10 \$3 \$1 \$2 \; pd-\$1.bin.\$2
loadbang bang;
#X msg 64 105 node replace \$1 \$2;
#X obj 64 132 s \$1;
#X connect 0 0 3 0;
#X connect 2 0 5 0;
#X connect 3 0 2 0;
#X connect 3 1 6 0;
#X connect 6 0 7 0;
#X restore 363 404 pd node.set;
#N canvas 712 26 392 309 prepend-position 0;
#X obj 24 25 inlet;
#X obj 24 195 outlet;
#X obj 24 65 t a b;
#X obj 105 125 list length;
#X obj 24 155 list prepend;
#X msg 84 35 testosc;
#X obj 105 95 pddom.get \$1.nodes;
#X connect 0 0 2 0;
#X connect 2 0 4 0;
#X connect 2 1 6 0;
#X connect 3 0 4 1;
#X connect 4 0 1 0;
#X connect 5 0 2 0;
#X connect 6 0 3 0;
#X restore 363 214 pd prepend-position;
#N canvas 598 22 357 369 dsp 0;
#X obj 24 25 inlet;
#X obj 24 235 f 1;
#X obj 72 165 r pd;
#X obj 72 195 route dsp;
#X msg 24 295 \; pd dsp 0 \, dsp 1;
#X obj 24 265 select 1;
#X obj 24 135 spigot 1;
#X obj 24 65 route update disable enable;
#X msg 84 95 0;
#X msg 134 95 1;
#X connect 0 0 7 0;
#X connect 1 0 5 0;
#X connect 2 0 3 0;
#X connect 3 0 1 1;
#X connect 5 0 4 0;
#X connect 6 0 1 0;
#X connect 7 0 6 0;
#X connect 7 1 8 0;
#X connect 7 2 9 0;
#X connect 8 0 6 1;
#X connect 9 0 6 1;
#X restore 213 114 pd dsp;
#X obj 283 104 t b a;
#X obj 283 184 s \$1;
#X msg 283 144 dsp_ update;
#N canvas 73 22 546 555 node 0;
#X obj 24 25 inlet;
#X obj 24 175 list append 0;
#X obj 24 205 s \$1.nodes.set;
#X obj 24 145 pddom.get \$1.nodes;
#X obj 23 424 list;
#X obj 23 394 b;
#X obj 23 364 r \$1.nodes.get;
#X obj 63 394 r \$1.nodes.set;
#X obj 23 484 s \$1.nodes;
#X obj 23 454 list trim;
#X text 23 334 Globel list of objects in the tree \, see [pdom.get].
;
#X obj 24 65 route add replace reset;
#X obj 364 135 b;
#X obj 364 195 s \$1.nodes.set;
#N canvas 0 22 286 252 list-replace-simple 0;
#X obj 24 25 inlet;
#X obj 204 25 inlet;
#X obj 100 25 inlet;
#X obj 24 195 outlet;
#X obj 24 65 list split;
#X obj 57 95 list split 1;
#X obj 24 155 list append;
#X obj 98 125 list prepend 0;
#X connect 0 0 4 0;
#X connect 1 0 7 1;
#X connect 2 0 4 1;
#X connect 4 0 6 0;
#X connect 4 1 5 0;
#X connect 4 2 6 0;
#X connect 5 1 7 0;
#X connect 6 0 3 0;
#X connect 7 0 6 1;
#X restore 174 225 pd list-replace-simple;
#X obj 174 135 t b a;
#X obj 249 195 list split 1;
#X obj 174 255 s \$1.nodes.set;
#X obj 174 165 pddom.get \$1.nodes;
#N canvas 63 22 352 299 list-replace-simple2 0;
#X obj 24 25 inlet;
#X obj 204 25 inlet;
#X obj 100 25 inlet;
#X obj 24 235 outlet;
#X obj 24 95 list split;
#X obj 57 125 list split 1;
#X obj 24 195 list append;
#X obj 100 55 t a b;
#X obj 218 155 b;
#X obj 98 155 list prepend 0;
#X connect 0 0 4 0;
#X connect 1 0 9 1;
#X connect 2 0 7 0;
#X connect 4 0 6 0;
#X connect 4 1 5 0;
#X connect 4 2 6 0;
#X connect 5 1 9 0;
#X connect 6 0 3 0;
#X connect 7 0 4 1;
#X connect 7 1 8 0;
#X connect 8 0 6 1;
#X connect 9 0 6 1;
#X restore 264 285 pd list-replace-simple2 0;
#X connect 0 0 11 0;
#X connect 1 0 2 0;
#X connect 3 0 1 0;
#X connect 4 0 9 0;
#X connect 5 0 4 0;
#X connect 6 0 5 0;
#X connect 7 0 4 1;
#X connect 9 0 8 0;
#X connect 11 0 3 0;
#X connect 11 1 15 0;
#X connect 11 2 12 0;
#X connect 12 0 13 0;
#X connect 14 0 17 0;
#X connect 15 0 18 0;
#X connect 15 1 16 0;
#X connect 16 0 14 1;
#X connect 16 1 14 2;
#X connect 18 0 14 0;
#X restore 163 144 pd node;
#X obj 363 104 route add chain set delete reset;
#N canvas 173 24 393 348 list-drip 0;
#X obj 24 25 inlet;
#X obj 144 277 outlet;
#X obj 112 245 t b a;
#X obj 142 215 list;
#X obj 112 185 list split 1;
#X obj 24 155 t b a;
#X obj 54 125 list;
#X obj 24 95 list split 64;
#X msg 44 65 1 2;
#X msg 84 65 1 2 3 4 5;
#X connect 0 0 7 0;
#X connect 2 0 3 0;
#X connect 2 1 1 0;
#X connect 3 0 4 0;
#X connect 4 0 2 0;
#X connect 4 1 3 1;
#X connect 5 0 6 0;
#X connect 5 1 4 0;
#X connect 6 0 7 0;
#X connect 7 0 5 0;
#X connect 7 1 6 1;
#X connect 7 2 4 0;
#X connect 8 0 7 0;
#X connect 9 0 7 0;
#X restore 703 267 pd list-drip;
#N canvas 598 22 357 369 connect 0;
#X obj 24 25 inlet;
#X obj 24 75 list prepend \$1;
#X msg 24 105 \; \$1.\$3 send symbol \$1.\$2;
#X connect 0 0 1 0;
#X connect 1 0 2 0;
#X restore 113 174 pd connect;
#N canvas 60 22 474 345 subscribe 0;
#N canvas 778 22 302 497 find.previous 0;
#X obj 24 25 inlet;
#X obj 24 425 outlet;
#X obj 47 225 list length;
#X obj 70 345 list split;
#X obj 70 315 list append;
#X obj 103 375 list split 1;
#N canvas 44 22 290 211 count.down 0;
#X obj 89 126 - 1;
#X obj 24 25 inlet;
#X obj 24 165 outlet;
#X obj 24 65 t a a;
#X obj 24 95 until;
#X obj 24 125 f;
#X obj 114 25 inlet;
#X connect 0 0 5 1;
#X connect 1 0 3 0;
#X connect 3 0 4 0;
#X connect 3 1 0 0;
#X connect 4 0 5 0;
#X connect 5 0 2 0;
#X connect 5 0 0 0;
#X connect 6 0 4 1;
#X restore 47 255 pd count.down;
#X obj 47 285 t a b a;
#X obj 24 315 f;
#X obj 235 375 b;
#X obj 24 165 list prepend 0;
#X obj 24 195 t b a a;
#X obj 24 345 - 1;
#X obj 103 405 select .;
#X obj 24 125 list split;
#X obj 24 95 pddom.get \$1.nodes~;
#X obj 24 65 t b a;
#X text 83 25 find previous non zero;
#X connect 0 0 16 0;
#X connect 2 0 6 0;
#X connect 3 1 5 0;
#X connect 4 0 3 0;
#X connect 5 0 13 0;
#X connect 6 0 7 0;
#X connect 7 0 8 1;
#X connect 7 1 4 0;
#X connect 7 2 3 1;
#X connect 8 0 12 0;
#X connect 9 0 6 1;
#X connect 10 0 11 0;
#X connect 11 0 8 0;
#X connect 11 1 2 0;
#X connect 11 2 4 1;
#X connect 12 0 1 0;
#X connect 13 1 9 0;
#X connect 14 0 10 0;
#X connect 15 0 14 0;
#X connect 16 0 15 0;
#X connect 16 1 14 1;
#X restore 74 155 pd find.previous;
#N canvas 647 22 385 513 find.next 0;
#X obj 84 125 list length;
#X obj 44 305 symbol last;
#X obj 44 345 route float;
#X obj 44 375 +;
#X obj 24 405 list append;
#X obj 24 65 t b a a b;
#X obj 24 25 inlet;
#X obj 44 155 sel 0;
#X obj 76 185 + 1;
#N canvas 680 22 226 465 find.next 0;
#X obj 24 25 inlet;
#X obj 24 415 outlet;
#X obj 24 95 list length;
#X obj 24 215 list split;
#X obj 24 185 list append;
#X obj 57 245 list split 1;
#N canvas 44 22 290 211 count.up 0;
#X obj 24 25 inlet;
#X obj 24 165 outlet;
#X obj 24 95 until;
#X obj 24 125 f;
#X obj 114 25 inlet;
#X obj 89 126 + 1;
#X obj 24 65 t a b;
#X obj 94 95 f 0;
#X connect 0 0 6 0;
#X connect 2 0 3 0;
#X connect 3 0 1 0;
#X connect 3 0 5 0;
#X connect 4 0 2 1;
#X connect 5 0 3 1;
#X connect 6 0 2 0;
#X connect 6 1 7 0;
#X connect 7 0 3 1;
#X restore 24 125 pd count.up;
#X obj 24 155 t b a a;
#X obj 24 345 f;
#X obj 24 65 t a a;
#X obj 110 305 t b b;
#X obj 174 215 b;
#X obj 24 375 + 1;
#X obj 57 275 sel .;
#X connect 0 0 9 0;
#X connect 2 0 6 0;
#X connect 3 1 5 0;
#X connect 4 0 3 0;
#X connect 5 0 13 0;
#X connect 6 0 7 0;
#X connect 7 0 4 0;
#X connect 7 1 8 1;
#X connect 7 2 3 1;
#X connect 8 0 12 0;
#X connect 9 0 2 0;
#X connect 9 1 4 1;
#X connect 10 0 8 0;
#X connect 10 1 11 0;
#X connect 11 0 6 1;
#X connect 12 0 1 0;
#X connect 13 1 10 0;
#X restore 143 305 pd find.next;
#X obj 76 275 list split;
#X obj 253 305 symbol last;
#X obj 76 215 t b a b;
#X obj 24 445 outlet;
#X obj 84 95 pddom.get \$1.nodes~;
#X obj 76 245 pddom.get \$1.nodes~;
#X connect 0 0 7 1;
#X connect 1 0 2 0;
#X connect 2 0 3 0;
#X connect 2 1 4 1;
#X connect 3 0 4 1;
#X connect 4 0 13 0;
#X connect 5 0 4 0;
#X connect 5 1 7 0;
#X connect 5 2 3 1;
#X connect 5 3 14 0;
#X connect 6 0 5 0;
#X connect 7 0 1 0;
#X connect 7 1 8 0;
#X connect 8 0 12 0;
#X connect 9 0 2 0;
#X connect 10 1 9 0;
#X connect 11 0 2 0;
#X connect 12 0 15 0;
#X connect 12 1 10 1;
#X connect 12 2 11 0;
#X connect 14 0 0 0;
#X connect 15 0 10 0;
#X restore 304 155 pd find.next;
#X text 84 135 connect to previous node;
#X obj 24 25 inlet;
#X obj 24 295 s \$1;
#X obj 24 65 t a a;
#X text 309 135 connect next node;
#X obj 254 115 t a a;
#X obj 24 115 t a a;
#X obj 254 195 list prepend;
#X obj 24 195 list append;
#X msg 24 255 connect \$1 \$2;
#X connect 0 0 10 1;
#X connect 1 0 9 1;
#X connect 3 0 5 0;
#X connect 5 0 8 0;
#X connect 5 1 7 0;
#X connect 7 0 9 0;
#X connect 7 1 1 0;
#X connect 8 0 10 0;
#X connect 8 1 0 0;
#X connect 9 0 11 0;
#X connect 10 0 11 0;
#X connect 11 0 4 0;
#X restore 53 204 pd subscribe;
#X obj 53 74 route subscribe connect disconnect node dsp_;
#X connect 0 0 22 0;
#X connect 2 0 4 0;
#X connect 2 1 3 0;
#X connect 3 0 1 0;
#X connect 4 0 11 0;
#X connect 4 1 9 0;
#X connect 5 0 11 0;
#X connect 5 1 1 0;
#X connect 6 0 12 0;
#X connect 8 0 1 1;
#X connect 8 1 7 0;
#X connect 9 0 10 0;
#X connect 12 0 5 0;
#X connect 14 0 16 0;
#X connect 14 1 18 0;
#X connect 16 0 15 0;
#X connect 18 0 12 0;
#X connect 18 1 6 0;
#X connect 18 2 2 0;
#X connect 18 3 19 0;
#X connect 18 4 8 0;
#X connect 19 0 10 0;
#X connect 22 0 21 0;
#X connect 22 1 20 0;
#X connect 22 3 17 0;
#X connect 22 4 13 0;
#X connect 22 5 14 0;
