#N canvas 271 55 501 448 10;
#X msg 33 150 bang;
#X obj 33 210 print nodes;
#X msg 33 280 bang;
#X obj 33 340 print nodes~;
#X msg 33 40 chain this-abs-doesnt-exist neither-this-one so-you-get-an-error
;
#X obj 33 180 pddom.get getHelp.nodes;
#X obj 33 310 pddom.get getHelp.nodes~;
#X obj 33 80 pddom.core getHelp;
#X obj 183 80 pddom.bin~ getHelp;
#X text 33 130 get all nodes in tree;
#X text 33 260 get all signal processing nodes;
#X connect 0 0 5 0;
#X connect 2 0 6 0;
#X connect 4 0 7 0;
#X connect 5 0 1 0;
#X connect 6 0 3 0;
