#N canvas 268 45 404 380 10;
#X obj 147 261 realtime;
#X floatatom 119 118 9 0 0 0 - - -;
#X obj 147 201 t b b b;
#X obj 239 261 outlet;
#X obj 102 117 bng 15 250 50 0 empty empty empty 17 7 0 10 -262144
-1 -1;
#X obj 147 161 inlet;
#X obj 59 261 outlet;
#X obj 59 231 t f;
#X connect 0 0 7 0;
#X connect 2 0 0 1;
#X connect 2 1 3 0;
#X connect 2 2 0 0;
#X connect 4 0 2 0;
#X connect 5 0 2 0;
#X connect 7 0 1 0;
#X connect 7 0 6 0;
#X coords 0 -1 1 1 85 35 1 100 100;
