#N canvas 268 45 450 300 10;
#X floatatom 119 120 9 0 0 0 - - -;
#X obj 102 118 tgl 15 0 empty empty empty 17 7 0 10 -262144 -1 -1 1
1;
#X obj 270 90 inlet~;
#X obj 102 68 loadbang;
#X obj 270 150 snapshot~;
#X obj 102 168 metro 100;
#X connect 1 0 5 0;
#X connect 1 0 0 0;
#X connect 2 0 4 0;
#X connect 3 0 1 0;
#X connect 4 0 0 0;
#X connect 5 0 4 0;
#X coords 0 -1 1 1 85 35 1 100 100;
