#N canvas 342 22 623 407 10;
#X declare -path ./ -path ../../;
#X declare -path ./ -path ../../;
#X declare -path ./ -path ../../;
#X declare -path ./ -path ../../;
#X declare -path ./ -path ../../;
#X declare -path ./ -path ../../;
#X declare -path ../ -path basic/ -path delay/;
#X declare -path ./ -path ../../;
#X declare -path ./ -path ../../;
#X msg 30 27 bang;
#X obj 80 97 print;
#X obj 80 177 print;
#X msg 30 117 bang;
#X obj 80 257 print;
#X msg 30 197 bang;
#X obj 80 337 print;
#X msg 30 277 bang;
#X obj 260 127 print;
#X msg 210 67 bang;
#X obj 260 207 print;
#X msg 210 147 bang;
#X obj 210 97 run-delete;
#X obj 210 177 run-delete-dsp1;
#X obj 30 67 run-add;
#X obj 30 147 run-add-dsp1;
#X obj 30 227 run-set;
#X obj 30 307 run-set-dsp1;
#X obj 170 27 declare -path ../ -path basic/ -path delay/;
#X obj 350 97 run-shift;
#X obj 390 127 print;
#X msg 350 67 bang;
#X msg 210 227 bang;
#X obj 210 257 run-delete2;
#X obj 260 287 print;
#X connect 0 0 14 0;
#X connect 3 0 15 0;
#X connect 5 0 16 0;
#X connect 7 0 17 0;
#X connect 9 0 12 0;
#X connect 11 0 13 0;
#X connect 12 0 8 0;
#X connect 12 0 11 0;
#X connect 13 0 10 0;
#X connect 13 0 22 0;
#X connect 14 0 1 0;
#X connect 14 0 3 0;
#X connect 15 0 2 0;
#X connect 15 0 5 0;
#X connect 16 0 4 0;
#X connect 16 0 7 0;
#X connect 17 0 6 0;
#X connect 17 0 9 0;
#X connect 19 0 20 0;
#X connect 21 0 19 0;
#X connect 22 0 23 0;
#X connect 23 0 24 0;
#X connect 23 0 21 0;
