#N canvas 595 22 423 551 10;
#X declare -path ../ -path basic/;
#X declare -path ./ -path ../../;
#X declare -path ./ -path ../../;
#X declare -path ./ -path ../../;
#X declare -path ./ -path ../../;
#X declare -path ./ -path ../../;
#X declare -path ./ -path ../../;
#X msg 30 27 bang;
#X obj 80 97 print;
#X obj 80 177 print;
#X msg 30 117 bang;
#X obj 80 257 print;
#X msg 30 197 bang;
#X obj 80 337 print;
#X msg 30 277 bang;
#X obj 170 27 declare -path ../ -path basic/;
#X obj 80 417 print;
#X msg 30 357 bang;
#X obj 80 497 print;
#X msg 30 437 bang;
#X obj 30 387 run-delete;
#X obj 30 467 run-delete-dsp1;
#X obj 30 67 run-add;
#X obj 30 147 run-add-dsp1;
#X obj 30 227 run-set;
#X obj 30 307 run-set-dsp1;
#X connect 0 0 15 0;
#X connect 3 0 16 0;
#X connect 5 0 17 0;
#X connect 7 0 18 0;
#X connect 10 0 13 0;
#X connect 12 0 14 0;
#X connect 13 0 9 0;
#X connect 13 0 12 0;
#X connect 14 0 11 0;
#X connect 15 0 1 0;
#X connect 15 0 3 0;
#X connect 16 0 2 0;
#X connect 16 0 5 0;
#X connect 17 0 4 0;
#X connect 17 0 7 0;
#X connect 18 0 6 0;
#X connect 18 0 10 0;
