#N canvas 595 22 417 444 10;
#X declare -path ../ -path add/;
#X declare -path ./ -path ../../;
#X declare -path ./ -path ../../;
#X declare -path ./ -path ../../;
#X declare -path ./ -path ../../;
#X msg 30 27 bang;
#X obj 80 97 print;
#X obj 170 27 declare -path ../ -path add/;
#X obj 80 167 print;
#X msg 30 107 bang;
#X obj 30 67 run-add-sig1;
#X obj 30 137 run-add-sig1-dsp1;
#X obj 80 237 print;
#X msg 30 177 bang;
#X obj 80 307 print;
#X msg 30 247 bang;
#X obj 30 277 run-set-sig1-dsp1;
#X obj 30 207 run-set-sig1;
#X connect 0 0 5 0;
#X connect 4 0 6 0;
#X connect 5 0 1 0;
#X connect 5 0 4 0;
#X connect 6 0 3 0;
#X connect 6 0 8 0;
#X connect 8 0 12 0;
#X connect 10 0 11 0;
#X connect 11 0 9 0;
#X connect 12 0 7 0;
#X connect 12 0 10 0;
