#N canvas 595 22 417 444 10;
#X declare -path ../ -path basic/;
#X msg 30 27 bang;
#X obj 80 97 print;
#X obj 80 177 print;
#X msg 30 117 bang;
#X obj 30 67 run-add-sig1;
#X obj 30 147 run-add-sig1-dsp1;
#X obj 80 257 print;
#X msg 30 197 bang;
#X obj 80 337 print;
#X msg 30 277 bang;
#X obj 30 307 run-set-sig1-dsp1;
#X obj 30 227 run-set-sig1;
#X obj 170 27 declare -path ../ -path basic/;
#X connect 0 0 4 0;
#X connect 3 0 5 0;
#X connect 4 0 1 0;
#X connect 4 0 3 0;
#X connect 5 0 2 0;
#X connect 5 0 7 0;
#X connect 7 0 11 0;
#X connect 9 0 10 0;
#X connect 10 0 8 0;
#X connect 11 0 6 0;
#X connect 11 0 9 0;
