#N canvas 281 22 466 425 10;
#X declare -path ../abstractions/ -path ../../;
#X declare -path ../abstractions/ -path ../../;
#X declare -path ../abstractions/ -path ../../;
#X declare -path ../abstractions/ -path ../../;
#X declare -path ../abstractions/ -path ../../;
#X declare -path ../abstractions/ -path ../../;
#X declare -path ../ -path abstractions/;
#X obj 30 197 delay/shift-test;
#X obj 30 237 message/set-test;
#X obj 30 67 basic/add-test;
#X obj 30 97 basic/chain-test;
#X obj 30 127 basic/delete-test;
#X obj 30 157 basic/set-test;
#X msg 30 27 bang;
#X obj 170 27 declare -path ../ -path abstractions/;
#X connect 0 0 1 0;
#X connect 2 0 3 0;
#X connect 3 0 4 0;
#X connect 4 0 5 0;
#X connect 5 0 0 0;
#X connect 6 0 2 0;
