#N canvas 54 55 352 447 10;
#X obj 29 79 pdom.r~ \$1 \$2;
#X obj 29 389 pdom.s~ \$1 \$2;
#X text 29 29 example/02.latency.and.delay.pd;
#N canvas 306 22 450 300 write 0;
#X obj 25 28 inlet~;
#X obj 25 138 outlet~;
#X obj 25 58 delwrite~ \$0-delay-1 100;
#X obj 225 28 inlet~;
#X obj 225 58 delwrite~ \$0-delay-2 100;
#X connect 0 0 2 0;
#X connect 3 0 4 0;
#X restore 29 119 pd write;
#N canvas 306 22 450 300 read 0;
#X obj 25 28 inlet~;
#X obj 25 138 outlet~;
#X obj 95 28 inlet;
#X obj 25 108 delread~ \$0-delay-1;
#X obj 195 138 outlet~;
#X obj 195 108 delread~ \$0-delay-2;
#X connect 2 0 3 0;
#X connect 2 0 5 0;
#X connect 3 0 1 0;
#X connect 5 0 4 0;
#X restore 29 349 pd read;
#X obj 211 249 samplerate~;
#X obj 179 219 t a b;
#X obj 179 309 /;
#X obj 211 279 / 1000;
#X obj 209 149 loadbang;
#X obj 209 179 f 20;
#X obj 179 109 route delay;
#X obj 179 79 r \$1.\$2;
#X connect 0 0 3 0;
#X connect 0 1 3 1;
#X connect 3 0 4 0;
#X connect 4 0 1 0;
#X connect 4 1 1 1;
#X connect 5 0 8 0;
#X connect 6 0 7 0;
#X connect 6 1 5 0;
#X connect 7 0 4 1;
#X connect 8 0 7 1;
#X connect 9 0 10 0;
#X connect 10 0 6 0;
#X connect 11 0 6 0;
#X connect 12 0 11 0;
