#N canvas 5 42 532 444 10;
#X obj 188 128 osc~;
#X obj 56 134 pdom.r~ \$1 \$2;
#X obj 56 194 pdom.s~ \$1 \$2;
#X obj 318 127 ../examples/get.snapshot~;
#X obj 188 28 tabread~ \$1;
#X obj 188 -2 f \$2;
#X obj 188 -32 loadbang;
#X obj 288 28 tabread~ \$1.level;
#X obj 318 77 ../examples/get.snapshot~;
#X obj 188 158 *~;
#N canvas 0 22 450 300 (subpatch) 0;
#X array \$0-wave 64 float 0;
#X coords 0 1 63 0 200 100 1;
#X restore 165 229 graph;
#X obj 277 209 tabwrite~ \$0-wave;
#X msg 300 186 bang;
#X connect 0 0 9 0;
#X connect 1 0 2 0;
#X connect 1 1 2 1;
#X connect 4 0 3 0;
#X connect 4 0 0 0;
#X connect 5 0 4 0;
#X connect 5 0 7 0;
#X connect 6 0 5 0;
#X connect 7 0 8 0;
#X connect 7 0 9 1;
#X connect 7 0 11 0;
#X connect 9 0 2 1;
#X connect 9 0 2 0;
#X connect 12 0 11 0;
