#N canvas 80 335 972 409 10;
#X obj 168 148 osc~;
#X obj 36 184 pdom.r~ \$1 \$2;
#X obj 36 244 pdom.s~ \$1 \$2;
#X obj 337 86 f \$2;
#X obj 337 26 loadbang;
#X obj 449 326 s pd-\$1.gop;
#X obj 168 118 mtof;
#X obj 337 146 + 18;
#X obj 337 116 * 18;
#X obj 337 326 random 127;
#X obj 168 208 *~;
#X obj 446 95 list prepend \$1 \$2;
#X obj 168 88 r \$1.\$2.freq;
#X obj 218 138 r \$1.\$2.level;
#X obj 337 356 s \$1.\$2.freq-r;
#X obj 337 176 t a a;
#X msg 357 296 bang;
#X msg 357 56 bang;
#X obj 337 206 list prepend \$1 \$2;
#X obj 337 236 t b a;
#X msg 449 286 obj 9 \$3 hsl 128 15 0 127 0 0 \$1.\$2.freq \$1.\$2.freq-r
\$2.frequency 4 7 1 10 -262144 -1 -1 0 1;
#X obj 218 168 dbtorms;
#X msg 446 125 \; pd-\$1.gop obj 148 \$3 hsl 128 15 0 100 0 0 \$1.\$2.level
\$1.\$2.level-r \$2.level 4 7 1 10 -262144 -1 -1 0 1 \; \$1.\$2.level-r
72;
#X connect 0 0 10 0;
#X connect 1 0 2 0;
#X connect 1 1 2 1;
#X connect 3 0 8 0;
#X connect 4 0 3 0;
#X connect 6 0 0 0;
#X connect 7 0 15 0;
#X connect 8 0 7 0;
#X connect 9 0 14 0;
#X connect 10 0 2 1;
#X connect 10 0 2 0;
#X connect 11 0 22 0;
#X connect 12 0 6 0;
#X connect 13 0 21 0;
#X connect 15 0 18 0;
#X connect 15 1 11 0;
#X connect 16 0 9 0;
#X connect 17 0 3 0;
#X connect 18 0 19 0;
#X connect 19 0 9 0;
#X connect 19 1 20 0;
#X connect 20 0 5 0;
#X connect 21 0 10 1;
