#N canvas 503 43 457 407 10;
#X obj 124 285 outlet~;
#X obj 24 285 outlet~;
#X obj 24 25 namecanvas \$1.\$2.vis;
#X obj 24 125 route set;
#X obj 24 155 symbol;
#X msg 24 225 set \$1.A;
#X msg 124 225 set \$1.B;
#X obj 224 65 loadbang;
#X obj 224 155 s \$1;
#X obj 224 95 f \$2;
#X msg 111 131 rack2.node.-1;
#X obj 24 255 r~ \$1.node.-1.A;
#X obj 124 255 r~ \$1.node.-1.B;
#X obj 24 65 r \$1.\$2;
#X obj 24 95 route receive~;
#X msg 224 125 subscribe~ \$1;
#X connect 3 0 4 0;
#X connect 4 0 5 0;
#X connect 4 0 6 0;
#X connect 5 0 11 0;
#X connect 6 0 12 0;
#X connect 7 0 9 0;
#X connect 9 0 15 0;
#X connect 11 0 1 0;
#X connect 12 0 0 0;
#X connect 13 0 14 0;
#X connect 14 0 3 0;
#X connect 14 0 10 0;
#X connect 15 0 8 0;
