#N canvas 301 48 606 368 10;
#X obj 204 162 osc~;
#X obj 204 42 loadbang;
#X obj 204 102 + 57;
#X obj 204 132 mtof;
#X obj 204 72 random 12;
#X obj 284 162 osc~;
#X obj 284 102 + 57;
#X obj 284 132 mtof;
#X obj 284 72 random 12;
#X obj 56 154 pddom2.from~ \$1 \$2;
#X obj 56 264 pddom2.to~ \$1 \$2;
#X connect 0 0 10 0;
#X connect 0 0 10 1;
#X connect 1 0 4 0;
#X connect 1 0 8 0;
#X connect 2 0 3 0;
#X connect 3 0 0 0;
#X connect 4 0 2 0;
#X connect 5 0 10 1;
#X connect 5 0 10 0;
#X connect 6 0 7 0;
#X connect 7 0 5 0;
#X connect 8 0 6 0;
#X connect 9 0 10 0;
#X connect 9 1 10 1;
