#N canvas 5 42 541 285 10;
#X obj 188 148 osc~;
#X obj 188 118 mtof~;
#X obj 188 178 *~ 0.1;
#X obj 188 58 f \$2;
#X obj 188 28 loadbang;
#X obj 56 214 pddom.s~ \$1 \$2;
#X obj 318 127 get.snapshot~;
#X obj 56 154 pddom.from~ \$1 \$2;
#X obj 188 88 tabread~ \$1-table;
#X connect 0 0 2 0;
#X connect 1 0 0 0;
#X connect 2 0 5 0;
#X connect 3 0 8 0;
#X connect 4 0 3 0;
#X connect 7 0 5 0;
#X connect 8 0 1 0;
#X connect 8 0 6 0;
