#N canvas 463 56 656 499 10;
#X declare -path ./ -path ../ -path ../../;
#N canvas 352 206 784 485 04.gui2.gop 0;
#X msg 400 100 lalal;
#X coords 0 -1 1 1 300 400 1 0 0;
#X restore 330 36 pd 04.gui2.gop;
#X obj 58 90 pd-dom 04.gui2;
#X msg 73 274 \; pd-04.gui2.gop clear \; pd-04.gui2.gop msg 400 100
lalal;
#X msg 177 80 vis \$1;
#X obj 177 61 hradio 15 1 0 8 empty empty empty 0 -8 0 10 -262144 -1
-1 0;
#X obj 45 456 declare -path ./ -path ../ -path ../../;
#X msg 139 38 add gui02-osc~;
#X obj 58 130 get.output~;
#X connect 1 0 7 0;
#X connect 1 1 7 1;
#X connect 3 0 1 2;
#X connect 4 0 3 0;
#X connect 6 0 1 2;
