#N canvas 603 22 528 518 10;
#X declare -path ./ -path ../ -path ../../;
#N canvas 0 22 450 300 (subpatch) 0;
#X array 03.gui 7 float 2;
#X coords 0 127 7 0 200 127 1;
#X restore 188 293 graph;
#X obj 192 70 loadbang;
#X obj 192 130 until;
#X msg 132 40 bang;
#X obj 192 100 f 7;
#X obj 132 158 t b b;
#N canvas 0 22 549 349 extend-table 0;
#X obj 104 73 f;
#X obj 104 33 inlet;
#X obj 144 73 + 1;
#X msg 197 193 \; 03.gui resize \$1;
#X obj 54 153 random 24;
#X obj 54 214 + 32;
#X obj 54 244 tabwrite 03.gui;
#X obj 197 163 + 1;
#X obj 104 103 t b a a;
#X obj 54 183 * 3;
#X connect 0 0 2 0;
#X connect 0 0 8 0;
#X connect 1 0 0 0;
#X connect 2 0 0 1;
#X connect 4 0 9 0;
#X connect 5 0 6 0;
#X connect 7 0 3 0;
#X connect 8 0 4 0;
#X connect 8 1 6 1;
#X connect 8 2 7 0;
#X connect 9 0 5 0;
#X restore 164 188 pd extend-table;
#X obj 58 250 pd-dom 03.gui;
#X text 312 277 frequencies;
#X msg 324 249 vis \$1;
#X obj 324 229 hradio 15 1 0 8 empty empty empty 0 -8 0 10 -262144
-1 -1 0;
#X text 178 35 add an other osc~;
#X obj 45 456 declare -path ./ -path ../ -path ../../;
#X msg 132 218 add parameter-osc~;
#X obj 58 290 get.output~;
#X connect 1 0 4 0;
#X connect 2 0 5 0;
#X connect 3 0 5 0;
#X connect 4 0 2 0;
#X connect 5 0 13 0;
#X connect 5 1 6 0;
#X connect 7 0 14 0;
#X connect 7 1 14 1;
#X connect 9 0 7 2;
#X connect 10 0 9 0;
#X connect 13 0 7 2;
