#N canvas 603 22 528 518 10;
#X declare -path ./ -path ../ -path ../../;
#N canvas 0 22 450 300 (subpatch) 0;
#X array 03.gui 7 float 2;
#X coords 0 127 7 0 200 127 1;
#X restore 188 293 graph;
#X obj 192 70 loadbang;
#X obj 192 130 until;
#X msg 132 40 bang;
#X obj 192 100 f 7;
#X obj 132 158 t b b;
#N canvas 0 22 549 349 extend-table 0;
#X obj 104 73 f;
#X obj 104 33 inlet;
#X obj 144 73 + 1;
#X msg 197 193 \; 03.gui resize \$1;
#X obj 54 153 random 24;
#X obj 54 214 + 32;
#X obj 54 244 tabwrite 03.gui;
#X obj 197 163 + 1;
#X obj 104 103 t b a a;
#X obj 54 183 * 3;
#X connect 0 0 2 0;
#X connect 0 0 8 0;
#X connect 1 0 0 0;
#X connect 2 0 0 1;
#X connect 4 0 9 0;
#X connect 5 0 6 0;
#X connect 7 0 3 0;
#X connect 8 0 4 0;
#X connect 8 1 6 1;
#X connect 8 2 7 0;
#X connect 9 0 5 0;
#X restore 164 188 pd extend-table;
#X obj 58 250 pd-dom 03.gui;
#N canvas 40 22 651 595 output~ 0;
#X obj 105 120 vsl 15 64 0 100 0 0 \$0-volume \$0-volume-r Volume 0
-10 0 12 -262144 -1 -1 4410 1;
#X obj 105 210 tgl 15 0 empty empty DSP 19 7 0 12 -262144 -1 -1 0 1
;
#X obj 105 191 bng 15 250 50 0 \$0-mute \$0-mute-r Mute 19 7 0 12 -262144
-1 -1;
#X obj 410 78 inlet~;
#X obj 242 382 line~;
#X obj 395 449 *~;
#X obj 395 489 dac~;
#X text 331 78 audio in;
#X obj 473 78 inlet~;
#X obj 457 448 *~;
#X obj 410 329 hip~ 3;
#X obj 472 329 hip~ 3;
#X obj 105 279 send pd;
#X obj 242 342 pack 0 50;
#X obj 232 175 dbtorms;
#X obj 233 299 f;
#X obj 261 240 f 0;
#X obj 301 240 == 0;
#X obj 261 270 select 1;
#X text 313 489 audio out;
#X obj 232 75 loadbang;
#X obj 232 105 f 70;
#X obj 104 409 rmstodb;
#X msg 104 440 set \$1;
#X msg 105 249 dsp \$1;
#X obj 252 145 r \$0-volume;
#X obj 261 210 r \$0-mute;
#X obj 104 469 s \$0-volume-r;
#X obj 14 101 r pd;
#X obj 14 131 route dsp;
#X msg 14 161 set \$1;
#X connect 1 0 24 0;
#X connect 3 0 10 0;
#X connect 4 0 9 0;
#X connect 4 0 5 0;
#X connect 5 0 6 0;
#X connect 8 0 11 0;
#X connect 9 0 6 1;
#X connect 10 0 5 1;
#X connect 11 0 9 1;
#X connect 13 0 4 0;
#X connect 13 0 22 0;
#X connect 14 0 15 0;
#X connect 15 0 13 0;
#X connect 16 0 17 0;
#X connect 16 0 18 0;
#X connect 17 0 16 1;
#X connect 18 0 15 0;
#X connect 18 1 13 0;
#X connect 20 0 21 0;
#X connect 21 0 14 0;
#X connect 22 0 23 0;
#X connect 23 0 27 0;
#X connect 24 0 12 0;
#X connect 25 0 14 0;
#X connect 26 0 16 0;
#X connect 28 0 29 0;
#X connect 29 0 30 0;
#X connect 30 0 1 0;
#X coords 0 -1 1 1 55 130 2 100 100;
#X restore 58 280 pd output~;
#X text 312 277 frequencies;
#X msg 324 249 vis \$1;
#X obj 324 229 hradio 15 1 0 8 empty empty empty 0 -8 0 10 -262144
-1 -1 0;
#X text 178 35 add an other osc~;
#X obj 45 456 declare -path ./ -path ../ -path ../../;
#X msg 132 218 add parameter-osc~;
#X connect 1 0 4 0;
#X connect 2 0 5 0;
#X connect 3 0 5 0;
#X connect 4 0 2 0;
#X connect 5 0 14 0;
#X connect 5 1 6 0;
#X connect 7 0 8 0;
#X connect 7 1 8 1;
#X connect 10 0 7 2;
#X connect 11 0 10 0;
#X connect 14 0 7 2;
