#N canvas 301 48 333 313 10;
#X text 29 29 example/01.test100.pd;
#X obj 80 124 sig~ 1;
#X obj 56 154 pddom.to~ \$1 \$2;
#X obj 56 94 pddom.from~ \$1 \$2;
#X connect 1 0 2 0;
#X connect 3 0 2 0;
#X connect 3 1 2 1;
