#N canvas 600 22 462 382 10;
#X declare -path ../ -path ../plugins -path ../includes;
#X obj 136 34 get.time;
#X obj 34 254 get.snapshot~;
#X msg 34 34 \; pd dsp 1;
#X msg 136 84 100;
#X obj 136 114 until;
#X msg 34 74 \; pd dsp 0;
#X msg 136 144 add test.sig1~;
#X obj 34 314 declare -path ../ -path ../plugins -path ../includes
;
#X msg 248 187 vis \$1;
#X obj 248 157 hradio 15 1 0 8 empty empty empty 0 -8 0 10 -262144
-1 -1 0;
#N canvas 157 22 508 489 more 0;
#X obj 36 34 get.time;
#X msg 136 114 100;
#X obj 136 144 until;
#X msg 36 214 chain test.sig1~ test.sig1~ test.sig1~ test.sig1~ test.sig1~
test.sig1~ test.sig1~ test.sig1~ test.sig1~ test.sig1~ test.sig1~ test.sig1~
test.sig1~ test.sig1~ test.sig1~ test.sig1~ test.sig1~ test.sig1~ test.sig1~
test.sig1~ test.sig1~ test.sig1~ test.sig1~ test.sig1~ test.sig1~ test.sig1~
test.sig1~ test.sig1~ test.sig1~ test.sig1~ test.sig1~ test.sig1~ test.sig1~
test.sig1~ test.sig1~ test.sig1~ test.sig1~ test.sig1~ test.sig1~ test.sig1~
test.sig1~ test.sig1~ test.sig1~ test.sig1~ test.sig1~ test.sig1~ test.sig1~
test.sig1~ test.sig1~ test.sig1~ test.sig1~ test.sig1~ test.sig1~ test.sig1~
test.sig1~ test.sig1~ test.sig1~ test.sig1~ test.sig1~ test.sig1~ test.sig1~
test.sig1~ test.sig1~ test.sig1~ test.sig1~ test.sig1~ test.sig1~ test.sig1~
test.sig1~ test.sig1~ test.sig1~ test.sig1~ test.sig1~ test.sig1~ test.sig1~
test.sig1~ test.sig1~ test.sig1~ test.sig1~ test.sig1~ test.sig1~ test.sig1~
test.sig1~ test.sig1~ test.sig1~ test.sig1~ test.sig1~ test.sig1~ test.sig1~
test.sig1~ test.sig1~ test.sig1~ test.sig1~ test.sig1~ test.sig1~ test.sig1~
test.sig1~ test.sig1~ test.sig1~ test.sig1~;
#X msg 256 174 set chain;
#X obj 136 84 t b b;
#X obj 136 34 get.time;
#X obj 36 484 outlet;
#X msg 136 174 add2 test.sig1~;
#X connect 0 0 3 0;
#X connect 1 0 2 0;
#X connect 2 0 8 0;
#X connect 3 0 7 0;
#X connect 4 0 3 0;
#X connect 5 0 1 0;
#X connect 5 1 4 0;
#X connect 6 0 5 0;
#X connect 8 0 3 0;
#X restore 171 177 pd more;
#X obj 34 224 pd-dom test100;
#X connect 0 0 3 0;
#X connect 3 0 4 0;
#X connect 4 0 6 0;
#X connect 6 0 11 2;
#X connect 8 0 11 2;
#X connect 9 0 8 0;
#X connect 10 0 11 2;
#X connect 11 0 1 0;
