#N canvas 300 115 909 583 10;
#X declare -path ../ -path ../plugins -path ../includes;
#X msg 265 69 add test.bypass;
#N canvas 0 22 450 300 (subpatch) 0;
#X array \$0-impulse 67 float 2;
#X coords 0 1 67 -1 200 40 1;
#X restore 678 122 graph;
#N canvas 0 22 450 300 (subpatch) 0;
#X array \$0-pdom 64 float 2;
#X coords 0 1 64 -1 200 40 1;
#X restore 678 192 graph;
#X obj 45 416 tabwrite~ \$0-pdom;
#X obj 45 276 pdom 02.latency;
#X obj 45 496 declare -path ../ -path ../plugins -path ../includes
;
#N canvas 0 22 450 300 (subpatch) 0;
#X array 02.sinesum 515 float 2;
#X coords 0 1 515 -1 200 40 1;
#X restore 678 292 graph;
#N canvas 0 22 450 300 (subpatch) 0;
#X array \$0-output2 515 float 2;
#X coords 0 1 515 -1 200 40 1;
#X restore 678 372 graph;
#X obj 96 209 r 02.latency.test2;
#X obj 116 306 r 02.latency.test2;
#X obj 96 239 tabplay~ 02.sinesum;
#X msg 407 157 \; pd dsp 1 \; 02.sinesum sinesum 512 1 1 \; 02.latency.test2
bang;
#X obj 96 336 tabwrite~ \$0-output2;
#X floatatom 203 69 5 0 0 0 - - -;
#N canvas 535 286 373 372 impulse 0;
#X obj 23 282 vline~;
#X obj 23 28 inlet;
#X obj 93 28 inlet;
#X obj 23 322 outlet~;
#X obj 125 128 samplerate~;
#X obj 93 98 t a b;
#X obj 93 188 /;
#X obj 23 222 f;
#X msg 23 252 1 \, 0 0 \$1;
#X obj 125 158 / 1000;
#X obj 153 28 loadbang;
#X obj 153 58 f 20;
#X connect 0 0 3 0;
#X connect 1 0 7 0;
#X connect 2 0 5 0;
#X connect 4 0 9 0;
#X connect 5 0 6 0;
#X connect 5 1 4 0;
#X connect 6 0 7 1;
#X connect 7 0 8 0;
#X connect 8 0 0 0;
#X connect 9 0 6 1;
#X connect 10 0 11 0;
#X connect 11 0 5 0;
#X restore 45 89 pd impulse 20;
#X floatatom 438 407 5 0 0 0 - - -;
#N canvas 0 22 450 300 delay~ 0;
#X obj 25 28 inlet~;
#X obj 25 258 outlet~;
#N canvas 306 22 450 300 write 0;
#X obj 25 28 inlet~;
#X obj 25 138 outlet~;
#X obj 25 58 delwrite~ \$0-delay 100;
#X connect 0 0 2 0;
#X restore 25 58 pd write;
#N canvas 306 22 450 300 read 0;
#X obj 25 28 inlet~;
#X obj 25 138 outlet~;
#X obj 25 108 delread~ \$0-delay;
#X obj 95 28 inlet;
#X connect 2 0 1 0;
#X connect 3 0 2 0;
#X restore 25 228 pd read;
#X obj 115 28 inlet;
#X obj 147 128 samplerate~;
#X obj 115 98 t a b;
#X obj 115 188 /;
#X obj 147 158 / 1000;
#X obj 175 28 loadbang;
#X obj 175 58 f 20;
#X connect 0 0 2 0;
#X connect 2 0 3 0;
#X connect 3 0 1 0;
#X connect 4 0 6 0;
#X connect 5 0 8 0;
#X connect 6 0 7 0;
#X connect 6 1 5 0;
#X connect 7 0 3 1;
#X connect 8 0 7 1;
#X connect 9 0 10 0;
#X connect 10 0 6 0;
#X restore 367 426 pd delay~ 20;
#X obj 65 386 r 02.latency.test1;
#X obj 45 59 r 02.latency.test1;
#X obj 265 246 t a;
#X obj 85 119 r 02.latency.test1;
#X floatatom 407 237 5 0 0 0 - - -;
#X msg 305 129 vis 0;
#X msg 285 99 set 0 test.delay;
#X obj 407 267 clip 0 60;
#X msg 407 297 \; 02.latency.0 delay \$1 \; 02.latency.test1 bang \;
02.latency.test2 bang;
#X obj 75 149 tabwrite~ \$0-impulse;
#X connect 0 0 19 0;
#X connect 4 0 3 0;
#X connect 4 1 12 0;
#X connect 8 0 10 0;
#X connect 9 0 12 0;
#X connect 10 0 4 1;
#X connect 13 0 14 1;
#X connect 14 0 4 0;
#X connect 14 0 26 0;
#X connect 15 0 16 1;
#X connect 17 0 3 0;
#X connect 18 0 14 0;
#X connect 19 0 4 2;
#X connect 20 0 26 0;
#X connect 21 0 24 0;
#X connect 22 0 19 0;
#X connect 23 0 19 0;
#X connect 24 0 25 0;
