#N canvas 603 22 563 664 10;
#X declare -path ../ -path ../plugins -path ../includes;
#X obj 132 -90 loadbang;
#X obj 132 48 until;
#X obj 353 81 samplerate~;
#N canvas 0 22 450 300 (subpatch) 0;
#X array 03.shepard 7 float 0;
#X coords 0 12000 6 0 200 100 1;
#X restore 98 175 graph;
#X obj 132 -30 t a a;
#X obj 353 141 t a b;
#X obj 353 51 t b a;
#X obj 399 171 f 0;
#X obj 353 221 phasor~;
#X obj 353 111 /;
#X obj 383 21 + 1;
#X obj 353 21 f;
#X msg 335 -19 bang;
#X floatatom 415 59 5 0 0 0 - - -;
#X obj 353 171 sig~;
#X msg 386 -17 32;
#X floatatom 451 152 5 0 0 0 - - -;
#N canvas 0 22 450 300 (subpatch) 0;
#X array 03.shepard.level 64 float 0;
#X coords 0 1 63 0 200 100 1;
#X restore 98 295 graph;
#X obj 333 306 cos~;
#X msg 132 88 add test.shepard-osc~;
#X obj 333 396 dbtorms~;
#X obj 423 336 mtof~;
#X obj 423 306 +~ 32;
#X obj 423 276 *~ 84;
#X obj 333 336 *~ 50;
#X obj 333 366 +~ 50;
#X obj 333 276 +~ 0.33;
#X obj 45 486 declare -path ../ -path ../plugins -path ../includes
;
#X msg 214 139 vis \$1;
#X obj 211 117 hradio 15 1 0 8 empty empty empty 0 -8 0 10 -262144
-1 -1 0;
#X floatatom 394 121 9 0 0 0 - - -;
#N canvas 40 22 651 595 output~ 0;
#X obj 105 120 vsl 15 64 0 100 0 0 \$0-volume \$0-volume-r Volume 0
-10 0 12 -262144 -1 -1 4300 1;
#X obj 105 210 tgl 15 0 empty empty DSP 19 7 0 12 -262144 -1 -1 0 1
;
#X obj 105 191 bng 15 250 50 0 \$0-mute \$0-mute-r Mute 19 7 0 12 -262144
-1 -1;
#X obj 410 78 inlet~;
#X obj 242 382 line~;
#X obj 395 449 *~;
#X obj 395 489 dac~;
#X text 331 78 audio in;
#X obj 473 78 inlet~;
#X obj 457 448 *~;
#X obj 410 329 hip~ 3;
#X obj 472 329 hip~ 3;
#X obj 105 279 send pd;
#X obj 242 342 pack 0 50;
#X obj 232 175 dbtorms;
#X obj 233 299 f;
#X obj 261 240 f 0;
#X obj 301 240 == 0;
#X obj 261 270 select 1;
#X text 313 489 audio out;
#X obj 232 75 loadbang;
#X obj 232 105 f 70;
#X obj 104 409 rmstodb;
#X msg 104 440 set \$1;
#X msg 105 249 dsp \$1;
#X obj 252 145 r \$0-volume;
#X obj 261 210 r \$0-mute;
#X obj 104 469 s \$0-volume-r;
#X obj 14 101 r pd;
#X obj 14 131 route dsp;
#X msg 14 161 set \$1;
#X connect 1 0 24 0;
#X connect 3 0 10 0;
#X connect 4 0 9 0;
#X connect 4 0 5 0;
#X connect 5 0 6 0;
#X connect 8 0 11 0;
#X connect 9 0 6 1;
#X connect 10 0 5 1;
#X connect 11 0 9 1;
#X connect 13 0 4 0;
#X connect 13 0 22 0;
#X connect 14 0 15 0;
#X connect 15 0 13 0;
#X connect 16 0 17 0;
#X connect 16 0 18 0;
#X connect 17 0 16 1;
#X connect 18 0 15 0;
#X connect 18 1 13 0;
#X connect 20 0 21 0;
#X connect 21 0 14 0;
#X connect 22 0 23 0;
#X connect 23 0 27 0;
#X connect 24 0 12 0;
#X connect 25 0 14 0;
#X connect 26 0 16 0;
#X connect 28 0 29 0;
#X connect 29 0 30 0;
#X connect 30 0 1 0;
#X coords 0 -1 1 1 55 130 2 100 100;
#X restore 25 215 pd output~;
#X obj 28 120 pd-dom 03.shepard;
#X obj 333 426 tabsend~ 03.shepard.level;
#X obj 423 366 tabsend~ 03.shepard;
#X obj 439 171 sig~ 0.1;
#X obj 132 -60 f 16;
#X connect 0 0 36 0;
#X connect 1 0 19 0;
#X connect 2 0 9 0;
#X connect 4 0 1 0;
#X connect 4 1 11 0;
#X connect 5 0 14 0;
#X connect 5 1 7 0;
#X connect 6 0 2 0;
#X connect 6 1 9 1;
#X connect 6 1 13 0;
#X connect 7 0 8 1;
#X connect 8 0 23 0;
#X connect 8 0 26 0;
#X connect 9 0 5 0;
#X connect 9 0 30 0;
#X connect 10 0 11 1;
#X connect 11 0 10 0;
#X connect 11 0 6 0;
#X connect 12 0 11 0;
#X connect 12 0 19 0;
#X connect 14 0 8 0;
#X connect 15 0 11 0;
#X connect 16 0 35 0;
#X connect 18 0 24 0;
#X connect 19 0 32 2;
#X connect 20 0 33 0;
#X connect 21 0 34 0;
#X connect 22 0 21 0;
#X connect 23 0 22 0;
#X connect 24 0 25 0;
#X connect 25 0 20 0;
#X connect 26 0 18 0;
#X connect 28 0 32 2;
#X connect 29 0 28 0;
#X connect 32 0 31 0;
#X connect 32 1 31 1;
#X connect 35 0 8 0;
#X connect 36 0 4 0;
