#N canvas 603 22 454 537 10;
#X declare -path ../ -path ../plugins -path ../includes;
#X obj 58 260 dac~;
#N canvas 0 22 450 300 (subpatch) 0;
#X array 04.gui 7 float 2;
#X coords 0 127 7 0 200 127 1;
#X restore 123 274 graph;
#X obj 192 50 loadbang;
#X obj 192 110 until;
#X msg 132 50 bang;
#X obj 192 80 f 7;
#X msg 132 198 add test.parameter-osc~;
#X obj 132 138 t b b;
#N canvas 313 22 549 349 extend-table 0;
#X obj 104 73 f;
#X obj 104 33 inlet;
#X obj 144 73 + 1;
#X obj 54 153 random 24;
#X obj 54 214 + 32;
#X obj 197 163 + 1;
#X obj 104 103 t b a a;
#X obj 54 183 * 3;
#X obj 54 244 tabwrite 04.gui;
#X msg 197 193 \; 04.gui resize \$1;
#X connect 0 0 2 0;
#X connect 0 0 6 0;
#X connect 1 0 0 0;
#X connect 2 0 0 1;
#X connect 3 0 7 0;
#X connect 4 0 8 0;
#X connect 5 0 9 0;
#X connect 6 0 3 0;
#X connect 6 1 8 1;
#X connect 6 2 5 0;
#X connect 7 0 4 0;
#X restore 164 168 pd extend-table;
#X obj 45 456 declare -path ../ -path ../plugins -path ../includes
;
#X msg 178 243 vis \$1;
#X obj 178 223 hradio 15 1 0 8 empty empty empty 0 -8 0 10 -262144
-1 -1 0;
#X obj 58 230 pd-dom 04.gui;
#X connect 2 0 5 0;
#X connect 3 0 7 0;
#X connect 4 0 7 0;
#X connect 5 0 3 0;
#X connect 6 0 12 2;
#X connect 7 0 6 0;
#X connect 7 1 8 0;
#X connect 10 0 12 2;
#X connect 11 0 10 0;
#X connect 12 0 0 0;
#X connect 12 1 0 1;
