#N canvas 244 22 1024 682 10;
#X declare -path ../abstractions/ -path ../../;
#X obj 270 397 snapshot~;
#X obj 270 267 pd-dom add-sig1;
#X obj 30 27 declare -path ../abstractions/ -path ../../;
#N canvas 372 22 384 408 fail 0;
#X obj 30 27 inlet;
#X msg 30 67 \; pd dsp \$2 \; \$1.print __ pd dsp \$2 \; \$1.print
__ should FAIL [set 0 add1( then test -1 \; \$1.expect -1 \; \$1.set
set 0 add1 \; \$1.test -1 \; \$1.expect 0.999 \; \$1.try -0.999 \;
pd dsp 0 \; \$1.reset bang;
#X connect 0 0 1 0;
#X restore 684 468 pd fail;
#X obj 30 157 utils/get.time;
#X obj 270 557 utils/test.log;
#X obj 270 497 >=;
#X obj 30 327 utils/test.later;
#X obj 320 507 r \$0.log;
#X obj 60 237 list prepend \$0;
#X obj 30 207 t b a;
#X obj 200 168 s \$0.log;
#X obj 270 427 t a a;
#X obj 410 467 list prepend got:;
#X obj 540 467 r \$0.expect;
#X obj 200 138 list prepend prepend try:;
#X obj 30 557 s \$0.next;
#X obj 459 87 r \$0.next;
#X obj 30 107 t a a;
#X obj 459 147 list append \$0;
#X obj 649 67 s \$0.next;
#X obj 30 357 t b b;
#X obj 459 117 f;
#X obj 489 117 + 1;
#X obj 649 27 inlet;
#X obj 459 177 route 0 1 2;
#X obj 290 467 r \$0.expect;
#X msg 580 557 reset;
#X obj 540 497 t a b;
#X obj 540 527 list prepend expect: >=;
#X msg 60 267 \; pd dsp 1 \; \$1.log (processed in: \$2 ms);
#X obj 30 67 r \$0.run;
#X msg 459 397 \; pd dsp 0 \; \$1.expect 1 \; \$1.run add sig1~;
#X msg 719 397 \; pd dsp 0 \; \$1.expect -0.001 \; \$1.run reset;
#X msg 459 237 \; pd dsp 1 \; \$1.expect 1 \; \$1.run add sig1~;
#X msg 579 237 \; \$1.expect 2 \; \$1.run add sig1~;
#X msg 719 237 \; \$1.expect -0.001 \; \$1.run reset;
#X msg 579 397 \; pd dsp 0 \; \$1.expect 2 \; \$1.run add sig1~;
#X obj 719 347 outlet;
#X obj 719 317 b;
#X obj 459 357 route 3 4 5;
#X msg 739 27 0;
#X connect 0 0 12 0;
#X connect 1 0 0 0;
#X connect 4 0 10 0;
#X connect 4 1 1 1;
#X connect 6 0 5 0;
#X connect 7 0 21 0;
#X connect 8 0 5 1;
#X connect 9 0 30 0;
#X connect 10 0 7 0;
#X connect 10 1 9 0;
#X connect 12 0 6 0;
#X connect 12 1 13 0;
#X connect 13 0 5 1;
#X connect 14 0 28 0;
#X connect 15 0 11 0;
#X connect 17 0 22 0;
#X connect 18 0 4 0;
#X connect 18 1 15 0;
#X connect 19 0 25 0;
#X connect 21 0 16 0;
#X connect 21 1 0 0;
#X connect 22 0 23 0;
#X connect 22 0 19 0;
#X connect 23 0 22 1;
#X connect 24 0 20 0;
#X connect 25 0 34 0;
#X connect 25 1 35 0;
#X connect 25 2 36 0;
#X connect 25 3 40 0;
#X connect 26 0 6 1;
#X connect 27 0 5 1;
#X connect 28 0 29 0;
#X connect 28 1 27 0;
#X connect 29 0 5 1;
#X connect 31 0 18 0;
#X connect 39 0 38 0;
#X connect 40 0 32 0;
#X connect 40 1 37 0;
#X connect 40 2 33 0;
#X connect 40 3 39 0;
#X connect 41 0 20 0;
