#N canvas 105 22 908 640 10;
#X declare -path ../abstractions/ -path ../../;
#X obj 270 397 snapshot~;
#X obj 270 267 pd-dom add-sig1;
#X obj 30 27 declare -path ../abstractions/ -path ../../;
#X obj 709 57 r test;
#X msg 689 27 bang;
#N canvas 372 22 384 408 fail 0;
#X obj 30 27 inlet;
#X msg 30 67 \; pd dsp \$2 \; \$1.print __ pd dsp \$2 \; \$1.print
__ should FAIL [set 0 add1( then test -1 \; \$1.expect -1 \; \$1.set
set 0 add1 \; \$1.test -1 \; \$1.expect 0.999 \; \$1.try -0.999 \;
pd dsp 0 \; \$1.reset bang;
#X connect 0 0 1 0;
#X restore 684 498 pd fail;
#X obj 30 157 utils/get.time;
#X obj 30 67 r \$0.test;
#X obj 270 557 utils/test.log;
#X obj 270 467 >=;
#X obj 30 327 utils/test.later;
#X obj 290 507 r \$0.log;
#X obj 60 237 list prepend \$0;
#X msg 60 267 \; pd dsp 1 \; \$1.log (processed in: \$2 ms);
#X obj 30 207 t b a;
#X obj 200 168 s \$0.log;
#X obj 270 427 t a a;
#X obj 360 507 list prepend got:;
#X obj 500 427 r \$0.expect;
#X obj 689 117 r \$0.print;
#X obj 200 138 list prepend prepend try:;
#X obj 30 557 s \$0.next;
#X obj 499 87 r \$0.next;
#X obj 30 107 t a a;
#X obj 499 157 list append \$0;
#X obj 689 87 s \$0.next;
#X obj 499 127 f;
#X obj 529 127 + 1;
#X obj 30 357 t b b;
#X msg 390 227 reset;
#X obj 500 507 list prepend expect: >=;
#X obj 689 147 print INFO;
#X msg 499 237 \$1 0;
#X msg 639 237 \$1 0;
#X msg 549 237 \$1 1;
#X msg 689 237 \$1 1;
#X obj 499 187 route 0 1 2 3 4;
#X obj 559 127 % 5;
#X msg 499 287 \; pd dsp \$2 \; \$1.print pd dsp \$2 \; \$1.log reset
\; \$1.expect 1 \; \$1.test add sig1~ \;;
#X msg 639 287 \; pd dsp \$2 \; \$1.print pd dsp \$2 \; \$1.log reset
\; \$1.expect 2 \; \$1.test add sig1~;
#X connect 0 0 16 0;
#X connect 1 0 0 0;
#X connect 3 0 25 0;
#X connect 4 0 25 0;
#X connect 6 0 14 0;
#X connect 6 1 1 1;
#X connect 7 0 23 0;
#X connect 9 0 8 0;
#X connect 10 0 28 0;
#X connect 11 0 8 1;
#X connect 12 0 13 0;
#X connect 14 0 10 0;
#X connect 14 1 12 0;
#X connect 16 0 9 0;
#X connect 16 1 17 0;
#X connect 17 0 8 1;
#X connect 18 0 9 1;
#X connect 18 0 30 0;
#X connect 19 0 31 0;
#X connect 20 0 15 0;
#X connect 22 0 26 0;
#X connect 23 0 6 0;
#X connect 23 1 20 0;
#X connect 24 0 36 0;
#X connect 26 0 27 0;
#X connect 26 0 24 0;
#X connect 27 0 37 0;
#X connect 28 0 21 0;
#X connect 28 1 0 0;
#X connect 29 0 1 1;
#X connect 30 0 8 1;
#X connect 32 0 38 0;
#X connect 33 0 39 0;
#X connect 34 0 38 0;
#X connect 35 0 39 0;
#X connect 36 0 32 0;
#X connect 36 1 34 0;
#X connect 36 2 33 0;
#X connect 36 3 35 0;
#X connect 37 0 26 1;
