#N canvas 121 22 1059 650 10;
#X declare -path ../abstractions/ -path ../../;
#X obj 270 397 snapshot~;
#X obj 30 27 declare -path ../abstractions/ -path ../../;
#X obj 30 157 utils/get.time;
#X obj 270 607 utils/test.log;
#X obj 30 327 utils/test.later;
#X obj 550 547 r \$0.log;
#X obj 60 237 list prepend \$0;
#X obj 30 207 t b a;
#X obj 200 168 s \$0.log;
#X obj 270 427 t a a;
#X obj 630 547 list prepend got:;
#X obj 285 477 r \$0.expect;
#X obj 200 138 list prepend prepend try:;
#X obj 30 617 s \$0.next;
#X obj 509 37 r \$0.next;
#X obj 30 107 t a a;
#X obj 509 97 list append \$0;
#X obj 859 117 s \$0.next;
#X obj 30 357 t b b;
#X obj 509 67 f;
#X obj 539 67 + 1;
#X obj 879 57 inlet;
#X msg 487 547 reset;
#X msg 60 267 \; pd dsp 1 \; \$1.log (processed in: \$2 ms);
#X obj 30 67 r \$0.run;
#X obj 919 327 outlet;
#X obj 919 297 b;
#X obj 285 507 t a a b;
#X msg 859 87 0;
#X msg 859 27 bang;
#X obj 509 127 t a a;
#X msg 699 117 \$1;
#X msg 699 187 \; pd dsp \$1;
#X obj 799 187 change;
#X obj 799 217 print pd_dsp;
#X msg 799 307 \; \$1.expect 0 \; \$1.run reset;
#X obj 270 547 ==;
#X obj 317 547 list prepend expect: ==;
#X obj 340 187 r \$0.prepare;
#X obj 340 217 print prepare;
#X obj 509 247 route 0 1 2 3 4 5 6 7 8 9 10 11;
#X obj 699 147 < 6;
#X msg 819 387 \; \$1.expect 1 \; \$1.run delete 1 3;
#X msg 509 437 \; \$1.prepare chain sig1~ sig1~ sig1~ sig1~ sig1~ sig1~
\; \$1.expect 5 \; \$1.run delete 2;
#X msg 549 387 \; \$1.expect 4 \; \$1.run delete 0;
#X msg 589 337 \; \$1.expect 3 \; \$1.run delete 5;
#X msg 699 387 \; \$1.expect 3 \; \$1.run delete 11;
#X obj 270 267 pd-dom delete-test;
#X connect 0 0 9 0;
#X connect 2 0 7 0;
#X connect 2 1 47 1;
#X connect 4 0 18 0;
#X connect 5 0 3 1;
#X connect 6 0 23 0;
#X connect 7 0 4 0;
#X connect 7 1 6 0;
#X connect 9 0 36 0;
#X connect 9 1 10 0;
#X connect 10 0 3 1;
#X connect 11 0 27 0;
#X connect 12 0 8 0;
#X connect 14 0 19 0;
#X connect 15 0 2 0;
#X connect 15 1 12 0;
#X connect 16 0 30 0;
#X connect 18 0 13 0;
#X connect 18 1 0 0;
#X connect 19 0 20 0;
#X connect 19 0 16 0;
#X connect 20 0 19 1;
#X connect 21 0 28 0;
#X connect 22 0 3 1;
#X connect 24 0 15 0;
#X connect 26 0 25 0;
#X connect 27 0 36 1;
#X connect 27 1 37 0;
#X connect 27 2 22 0;
#X connect 28 0 17 0;
#X connect 29 0 28 0;
#X connect 30 0 40 0;
#X connect 30 1 31 0;
#X connect 31 0 41 0;
#X connect 33 0 34 0;
#X connect 36 0 3 0;
#X connect 37 0 3 1;
#X connect 38 0 39 0;
#X connect 38 0 47 1;
#X connect 40 0 43 0;
#X connect 40 1 44 0;
#X connect 40 2 45 0;
#X connect 40 3 46 0;
#X connect 40 4 42 0;
#X connect 40 5 35 0;
#X connect 40 6 43 0;
#X connect 40 7 44 0;
#X connect 40 8 45 0;
#X connect 40 9 46 0;
#X connect 40 10 42 0;
#X connect 40 11 35 0;
#X connect 40 12 26 0;
#X connect 41 0 32 0;
#X connect 41 0 33 0;
#X connect 47 0 0 0;
