#N canvas 188 22 513 670 10;
#X declare -path ./ -path ../../;
#X msg 250 237 add sig1~;
#X obj 170 27 declare -path ./ -path ../../;
#X obj 30 627 outlet;
#X obj 130 317 snapshot~;
#X msg 30 57 bang;
#X msg 172 119 \; pd dsp 0;
#X obj 30 87 t b b;
#X msg 60 217 \; pd dsp 1;
#X floatatom 150 547 5 0 0 0 - - -;
#X floatatom 210 547 5 0 0 0 - - -;
#X symbolatom 60 547 10 0 0 0 - - -;
#N canvas 204 22 413 303 del 0;
#X obj 26 31 inlet;
#X obj 76 121 samplerate~;
#X obj 26 151 /;
#X obj 26 91 t a b;
#X msg 26 61 1000;
#X obj 26 211 delay;
#X obj 26 241 outlet;
#X obj 26 181 * 64;
#N canvas 677 22 582 299 why-one-block 0;
#X obj 75 193 sig~;
#X obj 42 103 t b b;
#X obj 75 133 f 1;
#X floatatom 42 254 5 0 0 0 - - -;
#X obj 42 224 snapshot~;
#X obj 328 195 sig~;
#X obj 255 105 t b b;
#X obj 328 135 f 1;
#X floatatom 255 256 5 0 0 0 - - -;
#X msg 388 155 0;
#X obj 255 226 snapshot~;
#X text 420 154 reset;
#N canvas 204 22 450 300 del 0;
#X obj 26 31 inlet;
#X obj 76 121 samplerate~;
#X obj 26 151 /;
#X obj 26 91 t a b;
#X msg 26 61 1000;
#X obj 26 211 delay;
#X obj 26 241 outlet;
#X obj 26 181 * 64;
#X connect 0 0 4 0;
#X connect 1 0 2 1;
#X connect 2 0 7 0;
#X connect 3 0 2 0;
#X connect 3 1 1 0;
#X connect 4 0 3 0;
#X connect 5 0 6 0;
#X connect 7 0 5 0;
#X restore 255 135 pd del;
#X msg 42 43 set sig~ and convert signal to a number with snapshot~
wont imediately display the current set value. It will take another
block read the set sig~value.;
#X connect 0 0 4 0;
#X connect 1 0 4 0;
#X connect 1 1 2 0;
#X connect 2 0 0 0;
#X connect 4 0 3 0;
#X connect 5 0 10 0;
#X connect 6 0 12 0;
#X connect 6 1 7 0;
#X connect 7 0 5 0;
#X connect 9 0 5 0;
#X connect 9 0 0 0;
#X connect 10 0 8 0;
#X connect 12 0 10 0;
#X connect 13 0 1 0;
#X connect 13 0 6 0;
#X restore 186 31 pd why-one-block;
#X connect 0 0 4 0;
#X connect 1 0 2 1;
#X connect 2 0 7 0;
#X connect 3 0 2 0;
#X connect 3 1 1 0;
#X connect 4 0 3 0;
#X connect 5 0 6 0;
#X connect 7 0 5 0;
#X restore 30 267 pd del;
#X obj 30 27 inlet;
#X obj 30 477 list append;
#X obj 130 437 pack s f;
#X obj 130 347 t f f;
#X obj 30 187 t b b f;
#X obj 60 517 unpack s f f;
#N canvas 804 22 338 358 passed? 0;
#X obj 37 34 inlet;
#X obj 37 184 outlet;
#X msg 37 124 symbol passed;
#X msg 167 124 symbol failed;
#X obj 37 74 select 1;
#X connect 0 0 4 0;
#X connect 2 0 1 0;
#X connect 3 0 1 0;
#X connect 4 0 2 0;
#X connect 4 1 3 0;
#X restore 130 407 pd passed?;
#X obj 130 377 >= 1;
#X obj 130 277 pd-dom add-sig1;
#X msg 30 587 \$1: add abstraction sig1~ (DSP off). got \$2 expect
>= 1 in \$3 ms;
#X obj 30 127 utils/get.time;
#X connect 0 0 20 1;
#X connect 3 0 15 0;
#X connect 4 0 6 0;
#X connect 6 0 22 0;
#X connect 6 1 5 0;
#X connect 11 0 3 0;
#X connect 12 0 4 0;
#X connect 13 0 21 0;
#X connect 13 0 17 0;
#X connect 14 0 13 0;
#X connect 15 0 19 0;
#X connect 15 1 14 1;
#X connect 16 0 11 0;
#X connect 16 1 7 0;
#X connect 16 2 13 1;
#X connect 17 0 10 0;
#X connect 17 1 8 0;
#X connect 17 2 9 0;
#X connect 18 0 14 0;
#X connect 19 0 18 0;
#X connect 20 0 3 0;
#X connect 21 0 2 0;
#X connect 22 0 16 0;
#X connect 22 1 0 0;
