#N canvas 159 26 1016 669 10;
#X declare -path ../abstractions/ -path ../../;
#X obj 270 397 snapshot~;
#X obj 30 27 declare -path ../abstractions/ -path ../../;
#X obj 30 157 utils/get.time;
#X obj 270 607 utils/test.log;
#X obj 30 327 utils/test.later;
#X obj 550 547 r \$0.log;
#X obj 60 237 list prepend \$0;
#X obj 30 207 t b a;
#X obj 200 168 s \$0.log;
#X obj 270 427 t a a;
#X obj 630 547 list prepend got:;
#X obj 285 477 r \$0.expect;
#X obj 200 138 list prepend prepend try:;
#X obj 30 617 s \$0.next;
#X obj 449 37 r \$0.next;
#X obj 30 107 t a a;
#X obj 449 97 list append \$0;
#X obj 859 117 s \$0.next;
#X obj 30 357 t b b;
#X obj 449 67 f;
#X obj 479 67 + 1;
#X obj 879 57 inlet;
#X msg 487 547 reset;
#X msg 60 267 \; pd dsp 1 \; \$1.log (processed in: \$2 ms);
#X obj 30 67 r \$0.run;
#X obj 859 377 outlet;
#X obj 859 347 b;
#X obj 285 507 t a a b;
#X msg 859 87 0;
#X msg 859 27 bang;
#X obj 449 127 t a a;
#X msg 639 157 \$1;
#X msg 639 227 \; pd dsp \$1;
#X obj 449 247 route 0 1 2 3 4 5;
#X obj 639 187 < 3;
#X obj 739 227 change;
#X obj 739 257 print pd_dsp;
#X msg 759 347 \; \$1.expect 0 \; \$1.run reset;
#X obj 270 547 ==;
#X obj 317 547 list prepend expect: ==;
#X msg 449 347 \; \$1.expect 1 \; \$1.run set 0 sig1~;
#X msg 599 347 \; \$1.expect 2 \; \$1.run set 5 sig1~;
#X obj 270 267 pd-dom set-test;
#X connect 0 0 9 0;
#X connect 2 0 7 0;
#X connect 2 1 42 1;
#X connect 4 0 18 0;
#X connect 5 0 3 1;
#X connect 6 0 23 0;
#X connect 7 0 4 0;
#X connect 7 1 6 0;
#X connect 9 0 38 0;
#X connect 9 1 10 0;
#X connect 10 0 3 1;
#X connect 11 0 27 0;
#X connect 12 0 8 0;
#X connect 14 0 19 0;
#X connect 15 0 2 0;
#X connect 15 1 12 0;
#X connect 16 0 30 0;
#X connect 18 0 13 0;
#X connect 18 1 0 0;
#X connect 19 0 20 0;
#X connect 19 0 16 0;
#X connect 20 0 19 1;
#X connect 21 0 28 0;
#X connect 22 0 3 1;
#X connect 24 0 15 0;
#X connect 26 0 25 0;
#X connect 27 0 38 1;
#X connect 27 1 39 0;
#X connect 27 2 22 0;
#X connect 28 0 17 0;
#X connect 29 0 28 0;
#X connect 30 0 33 0;
#X connect 30 1 31 0;
#X connect 31 0 34 0;
#X connect 33 0 40 0;
#X connect 33 1 41 0;
#X connect 33 2 37 0;
#X connect 33 3 40 0;
#X connect 33 4 41 0;
#X connect 33 5 37 0;
#X connect 33 6 26 0;
#X connect 34 0 32 0;
#X connect 34 0 35 0;
#X connect 35 0 36 0;
#X connect 38 0 3 0;
#X connect 39 0 3 1;
#X connect 42 0 0 0;
