#N canvas 542 22 457 466 10;
#X declare -path ../abstractions/ -path ../../;
#X msg 46 76 \; pd dsp 1;
#X msg 46 116 \; pd dsp 0;
#X msg 260 229 vis \$1;
#X obj 260 199 hradio 15 1 0 8 empty empty empty 0 -8 0 10 -262144
-1 -1 0;
#X obj 46 266 pd-dom dsp-update~;
#X msg 146 126 add random-osc~;
#N canvas 77 22 433 288 dsp-tree-update-workaround 0;
#X obj 24 25 inlet;
#X obj 64 105 outlet;
#X obj 24 65 t b a;
#N canvas 0 22 450 300 \$0.dsp 0;
#X restore 24 205 pd \$0.dsp;
#X msg 24 145 obj 10 10 +~ \, clear;
#X obj 24 175 s pd-\$0.dsp;
#X connect 0 0 2 0;
#X connect 2 0 4 0;
#X connect 2 1 1 0;
#X connect 4 0 5 0;
#X restore 146 156 pd dsp-tree-update-workaround;
#X obj 46 180 loadbang;
#X msg 46 208 dsp_ disable;
#X obj 148 76 ../../utils/get.time;
#X obj 46 306 ../../utils/get.output~;
#X obj 46 36 declare -path ../abstractions/ -path ../../;
#X connect 2 0 4 1;
#X connect 3 0 2 0;
#X connect 4 0 10 0;
#X connect 4 0 10 1;
#X connect 5 0 6 0;
#X connect 6 0 4 1;
#X connect 7 0 8 0;
#X connect 8 0 4 1;
#X connect 9 0 5 0;
