#N canvas 600 22 462 382 10;
#X declare -path ./ -path ../../;
#X msg 34 34 \; pd dsp 1;
#X msg 136 84 100;
#X obj 136 114 until;
#X msg 34 74 \; pd dsp 0;
#X msg 248 187 vis \$1;
#X obj 248 157 hradio 15 1 0 8 empty empty empty 0 -8 0 10 -262144
-1 -1 0;
#N canvas 157 22 508 489 more 0;
#X msg 176 114 100;
#X obj 176 144 until;
#X msg 36 214 chain sig1~ sig1~ sig1~ sig1~ sig1~ sig1~ sig1~ sig1~
sig1~ sig1~ sig1~ sig1~ sig1~ sig1~ sig1~ sig1~ sig1~ sig1~ sig1~ sig1~
sig1~ sig1~ sig1~ sig1~ sig1~ sig1~ sig1~ sig1~ sig1~ sig1~ sig1~ sig1~
sig1~ sig1~ sig1~ sig1~ sig1~ sig1~ sig1~ sig1~ sig1~ sig1~ sig1~ sig1~
sig1~ sig1~ sig1~ sig1~ sig1~ sig1~ sig1~ sig1~ sig1~ sig1~ sig1~ sig1~
sig1~ sig1~ sig1~ sig1~ sig1~ sig1~ sig1~ sig1~ sig1~ sig1~ sig1~ sig1~
sig1~ sig1~ sig1~ sig1~ sig1~ sig1~ sig1~ sig1~ sig1~ sig1~ sig1~ sig1~
sig1~ sig1~ sig1~ sig1~ sig1~ sig1~ sig1~ sig1~ sig1~ sig1~ sig1~ sig1~
sig1~ sig1~ sig1~ sig1~ sig1~ sig1~ sig1~ sig1~;
#X msg 296 174 set chain;
#X obj 176 84 t b b;
#X obj 36 484 outlet;
#X msg 176 174 add2 sig1~;
#X obj 36 34 ../../utils/get.time;
#X obj 176 34 ../../utils/get.time;
#X connect 0 0 1 0;
#X connect 1 0 6 0;
#X connect 2 0 5 0;
#X connect 3 0 2 0;
#X connect 4 0 0 0;
#X connect 4 1 3 0;
#X connect 6 0 2 0;
#X connect 7 0 2 0;
#X connect 8 0 4 0;
#X restore 171 177 pd more;
#X msg 136 144 add sig1~;
#X obj 34 314 declare -path ./ -path ../../;
#X obj 34 224 pd-dom 100sig~;
#X obj 34 254 ../../utils/get.snapshot~;
#X obj 136 34 ../../utils/get.time;
#X connect 1 0 2 0;
#X connect 2 0 7 0;
#X connect 4 0 9 1;
#X connect 5 0 4 0;
#X connect 6 0 9 1;
#X connect 7 0 9 1;
#X connect 9 0 10 0;
#X connect 11 1 1 0;
