#N canvas 600 22 462 438 10;
#X declare -path ../abstractions/ -path ../../;
#X msg 46 86 \; pd dsp 1;
#X obj 148 166 until;
#X msg 46 126 \; pd dsp 0;
#X msg 260 239 vis \$1;
#X obj 260 209 hradio 15 1 0 8 empty empty empty 0 -8 0 10 -262144
-1 -1 0;
#N canvas 157 22 508 489 more 0;
#X msg 176 114 100;
#X obj 176 144 until;
#X msg 36 214 chain sig1~ sig1~ sig1~ sig1~ sig1~ sig1~ sig1~ sig1~
sig1~ sig1~ sig1~ sig1~ sig1~ sig1~ sig1~ sig1~ sig1~ sig1~ sig1~ sig1~
sig1~ sig1~ sig1~ sig1~ sig1~ sig1~ sig1~ sig1~ sig1~ sig1~ sig1~ sig1~
sig1~ sig1~ sig1~ sig1~ sig1~ sig1~ sig1~ sig1~ sig1~ sig1~ sig1~ sig1~
sig1~ sig1~ sig1~ sig1~ sig1~ sig1~ sig1~ sig1~ sig1~ sig1~ sig1~ sig1~
sig1~ sig1~ sig1~ sig1~ sig1~ sig1~ sig1~ sig1~ sig1~ sig1~ sig1~ sig1~
sig1~ sig1~ sig1~ sig1~ sig1~ sig1~ sig1~ sig1~ sig1~ sig1~ sig1~ sig1~
sig1~ sig1~ sig1~ sig1~ sig1~ sig1~ sig1~ sig1~ sig1~ sig1~ sig1~ sig1~
sig1~ sig1~ sig1~ sig1~ sig1~ sig1~ sig1~ sig1~;
#X msg 296 174 set chain;
#X obj 176 84 t b b;
#X obj 36 484 outlet;
#X msg 176 174 add2 sig1~;
#X obj 36 34 ../../utils/get.time;
#X obj 176 34 ../../utils/get.time;
#X connect 0 0 1 0;
#X connect 1 0 6 0;
#X connect 2 0 5 0;
#X connect 3 0 2 0;
#X connect 4 0 0 0;
#X connect 4 1 3 0;
#X connect 6 0 2 0;
#X connect 7 0 2 0;
#X connect 8 0 4 0;
#X restore 183 229 pd more;
#X msg 148 196 add sig1~;
#X obj 46 306 ../../utils/get.snapshot~;
#X obj 148 86 ../../utils/get.time;
#X msg 148 136 10;
#X obj 46 36 declare -path ../abstractions/ -path ../../;
#X obj 46 276 pd-dom 10sig~;
#X connect 1 0 6 0;
#X connect 3 0 11 1;
#X connect 4 0 3 0;
#X connect 5 0 11 1;
#X connect 6 0 11 1;
#X connect 8 1 9 0;
#X connect 9 0 1 0;
#X connect 11 0 7 0;
