#N canvas 558 22 443 315 10;
#X obj 174 253 print;
#X floatatom 34 253 5 0 0 0 - - -;
#X msg 70 218 received float;
#X obj 70 188 select 1;
#X msg 194 69 1 2 3;
#X msg 74 29 4;
#X msg 174 194 wrong type expect float but got \$1;
#X msg 74 69 bang;
#X floatatom 34 29 5 0 0 0 - - -;
#X msg 334 69 a b c;
#X msg 244 69 list a b c;
#X msg 124 69 symbol a;
#X obj 34 153 test.float;
#X connect 2 0 0 0;
#X connect 3 0 2 0;
#X connect 4 0 12 0;
#X connect 5 0 12 0;
#X connect 6 0 0 0;
#X connect 7 0 12 0;
#X connect 8 0 12 0;
#X connect 9 0 12 0;
#X connect 10 0 12 0;
#X connect 11 0 12 0;
#X connect 12 0 1 0;
#X connect 12 0 3 0;
#X connect 12 1 6 0;
