#N canvas 264 22 528 533 10;
#X obj 29 145 list append;
#X obj 29 65 t b a;
#X obj 29 25 inlet;
#X obj 139 25 inlet;
#X obj 29 425 test.log;
#X obj 59 355 r \$1.print;
#X obj 109 385 r \$1.log;
#X obj 249 145 s \$1.log;
#N canvas 326 22 572 303 type 0;
#X obj 29 25 inlet;
#X obj 29 165 outlet;
#X obj 29 125 spigot;
#X obj 29 65 t a a;
#X obj 129 165 s \$1.print;
#X msg 129 135 0 wrong type! expect float but got \$1.;
#X obj 59 95 test.float;
#X connect 0 0 3 0;
#X connect 2 0 1 0;
#X connect 3 0 2 0;
#X connect 3 1 6 0;
#X connect 5 0 4 0;
#X connect 6 0 2 1;
#X connect 6 1 5 0;
#X restore 29 185 pd type;
#N canvas 326 22 547 426 equal 0;
#X obj 29 25 inlet;
#X obj 29 165 outlet;
#X obj 29 65 t a a;
#X obj 29 125 ==;
#X obj 159 135 list prepend prepend result:;
#X obj 159 165 s \$1.log;
#X obj 159 25 inlet;
#X connect 0 0 2 0;
#X connect 2 0 3 0;
#X connect 2 1 4 0;
#X connect 3 0 1 0;
#X connect 4 0 5 0;
#X connect 6 0 3 1;
#X restore 29 295 pd equal;
#X obj 69 255 t a a b;
#X obj 249 385 list prepend prepend expect:;
#X obj 69 225 r \$1.expect;
#X obj 249 425 s \$1.log;
#X obj 249 255 r \$1.setup;
#X obj 59 385 t a b;
#X obj 119 175 s \$1.log;
#X obj 119 115 r \$0.reset;
#X obj 249 305 s \$0.reset;
#X obj 249 115 list prepend append;
#X msg 119 145 reset;
#X connect 0 0 8 0;
#X connect 1 0 0 0;
#X connect 1 1 19 0;
#X connect 2 0 1 0;
#X connect 3 0 0 1;
#X connect 5 0 15 0;
#X connect 6 0 4 1;
#X connect 8 0 9 0;
#X connect 9 0 4 0;
#X connect 10 0 9 1;
#X connect 10 1 11 0;
#X connect 10 2 18 0;
#X connect 11 0 13 0;
#X connect 12 0 10 0;
#X connect 14 0 18 0;
#X connect 15 0 4 0;
#X connect 15 1 4 1;
#X connect 17 0 0 1;
#X connect 17 0 20 0;
#X connect 19 0 7 0;
#X connect 20 0 16 0;
