#N canvas 437 22 396 458 10;
#X obj 25 28 inlet;
#X obj 25 248 list append;
#X obj 165 28 inlet;
#X obj 165 208 t a a;
#X obj 275 208 t a a;
#X obj 25 278 list trim;
#X obj 165 58 list trim;
#X obj 25 308 route 1 0;
#X obj 25 398 print PASSED_______;
#X obj 55 368 print FAILED_______;
#X obj 85 338 print INFO;
#X obj 165 88 route append prepend reset;
#X obj 275 138 t b b;
#X obj 165 168 list prepend;
#X obj 275 168 list append;
#X connect 0 0 1 0;
#X connect 1 0 5 0;
#X connect 2 0 6 0;
#X connect 3 0 1 1;
#X connect 3 1 13 1;
#X connect 3 1 14 1;
#X connect 4 0 1 1;
#X connect 4 1 13 1;
#X connect 4 1 14 1;
#X connect 5 0 7 0;
#X connect 6 0 11 0;
#X connect 7 0 8 0;
#X connect 7 1 9 0;
#X connect 7 2 10 0;
#X connect 11 0 13 0;
#X connect 11 1 14 0;
#X connect 11 2 12 0;
#X connect 11 3 13 0;
#X connect 12 0 14 0;
#X connect 12 1 14 1;
#X connect 13 0 3 0;
#X connect 14 0 4 0;
