#N canvas 497 52 517 380 10;
#X obj 85 203 sig~;
#X obj 42 103 t b b;
#X obj 85 143 f 1;
#X floatatom 62 274 5 0 0 0 - - -;
#X obj 42 244 snapshot~;
#X obj 338 205 sig~;
#X obj 255 105 t b b;
#X obj 338 145 f 1;
#X floatatom 275 276 5 0 0 0 - - -;
#X msg 398 165 0;
#X obj 255 246 snapshot~;
#X text 430 164 reset;
#X obj 255 145 test.later;
#X obj 42 304 print;
#X msg 42 63 bang;
#X text 186 144 next block;
#X connect 0 0 4 0;
#X connect 1 0 4 0;
#X connect 1 1 2 0;
#X connect 2 0 0 0;
#X connect 4 0 3 0;
#X connect 4 0 13 0;
#X connect 5 0 10 0;
#X connect 6 0 12 0;
#X connect 6 1 7 0;
#X connect 7 0 5 0;
#X connect 9 0 5 0;
#X connect 9 0 0 0;
#X connect 10 0 8 0;
#X connect 10 0 13 0;
#X connect 12 0 10 0;
#X connect 14 0 1 0;
#X connect 14 0 6 0;
