#N canvas 101 22 612 340 10;
#X obj 25 28 inlet;
#X obj 155 168 b;
#X obj 245 168 b;
#X obj 445 168 b;
#X msg 155 198 symbol list;
#X msg 245 198 symbol symbol;
#X msg 445 198 symbol anything;
#X obj 345 168 b;
#X msg 345 198 symbol bang;
#X obj 155 258 outlet;
#X obj 155 128 route list symbol bang;
#X obj 25 68 route float;
#X obj 25 138 b;
#X msg 25 168 1;
#X obj 105 98 t b a;
#X msg 105 167 0;
#X obj 25 258 outlet;
#X connect 0 0 11 0;
#X connect 1 0 4 0;
#X connect 2 0 5 0;
#X connect 3 0 6 0;
#X connect 4 0 9 0;
#X connect 5 0 9 0;
#X connect 6 0 9 0;
#X connect 7 0 8 0;
#X connect 8 0 9 0;
#X connect 10 0 1 0;
#X connect 10 1 2 0;
#X connect 10 2 7 0;
#X connect 10 3 3 0;
#X connect 11 0 12 0;
#X connect 11 1 14 0;
#X connect 12 0 13 0;
#X connect 13 0 16 0;
#X connect 14 0 15 0;
#X connect 14 1 10 0;
#X connect 15 0 16 0;
