#N canvas 437 22 442 464 10;
#X obj 25 28 inlet;
#X obj 25 238 list append;
#X obj 25 338 list prepend;
#X obj 145 338 list prepend;
#X obj 25 368 list trim;
#X obj 145 368 list trim;
#X obj 175 28 inlet;
#X obj 175 168 list append;
#X obj 175 198 t a a;
#X obj 175 88 route append prepend bang;
#X obj 285 198 t a a;
#X obj 275 118 t b b;
#X obj 25 268 list trim;
#X obj 175 58 list trim;
#X obj 25 298 route 1 0;
#X obj 265 338 list prepend;
#X obj 265 368 list trim;
#X obj 285 168 list prepend;
#X obj 25 398 print PASSED_______;
#X obj 145 398 print FAILED_______;
#X obj 265 398 print INFO;
#X connect 0 0 1 0;
#X connect 1 0 12 0;
#X connect 2 0 4 0;
#X connect 3 0 5 0;
#X connect 4 0 18 0;
#X connect 5 0 19 0;
#X connect 6 0 13 0;
#X connect 7 0 8 0;
#X connect 8 0 1 1;
#X connect 8 1 7 1;
#X connect 9 0 7 0;
#X connect 9 1 17 0;
#X connect 9 2 11 0;
#X connect 10 0 3 1;
#X connect 10 0 2 1;
#X connect 10 0 15 1;
#X connect 10 1 17 1;
#X connect 11 0 7 0;
#X connect 11 0 17 0;
#X connect 11 1 7 1;
#X connect 11 1 17 1;
#X connect 12 0 14 0;
#X connect 13 0 9 0;
#X connect 14 0 2 0;
#X connect 14 1 3 0;
#X connect 14 2 15 0;
#X connect 15 0 16 0;
#X connect 16 0 20 0;
#X connect 17 0 10 0;
