#N canvas 505 22 615 408 10;
#X obj 199 235 +;
#X obj 29 65 t a a;
#X obj 69 95 list prepend prepend try:;
#X obj 29 165 get.time;
#X obj 29 285 test.equal \$0;
#X obj 29 25 r \$0.in;
#X obj 219 205 r \$0.setup;
#X obj 69 125 s \$0.log;
#X obj 319 85 f \$0;
#X obj 339 55 r test;
#X msg 319 25 bang;
#X msg 499 135;
#X obj 499 25 r test.equal;
#X obj 499 95 f \$0;
#X obj 499 65 route bang;
#X msg 29 235 (processed in: \$1 ms);
#X msg 319 135 \; \$1.setup 1 \; \$1.print __ test [+ 1] \; \$1.expect
2 \; \$1.in 1 \; \$1.expect 0 \; \$1.in -1 \; \$1.expect 100000 \;
\$1.in 99999 \; \$1.expect 4 \; \$1.in 2 2 \; \$1.print __ should FAIL:
\; \$1.expect 123 \; \$1.in -10 \; \$1.setup -0.12 \; \$1.print test
[+ -0.12] \; \$1.expect 9.81 \; \$1.in 9.93;
#X connect 0 0 4 1;
#X connect 1 0 3 0;
#X connect 1 1 2 0;
#X connect 2 0 7 0;
#X connect 3 0 15 0;
#X connect 3 1 0 0;
#X connect 5 0 1 0;
#X connect 6 0 0 1;
#X connect 8 0 16 0;
#X connect 9 0 8 0;
#X connect 10 0 8 0;
#X connect 12 0 14 0;
#X connect 13 0 11 0;
#X connect 14 0 13 0;
#X connect 14 1 11 0;
#X connect 15 0 4 0;
