#N canvas 96 22 468 262 10;
#X obj 321 34 inlet;
#X obj 321 214 outlet;
#X obj 31 34 inlet~;
#X obj 31 214 outlet~;
#N canvas 0 22 613 315 out 0;
#X obj 214 245 outlet~;
#X obj 114 245 outlet~;
#X obj 24 25 inlet~;
#X obj 114 75 route last;
#X obj 114 25 inlet;
#X obj 114 205 r~ \$1.-1A;
#X obj 214 205 r~ \$1.-1B;
#X msg 114 175 set \$1.\$2A;
#X msg 214 175 set \$1.\$2B;
#X obj 114 105 list prepend \$1;
#X obj 314 245 outlet~;
#X obj 414 245 outlet~;
#X msg 314 175 set \$1.\$2C;
#X obj 314 205 r~ \$1.-1C;
#X msg 414 175 set \$1.\$2D;
#X obj 414 205 r~ \$1.-1D;
#X connect 3 0 9 0;
#X connect 4 0 3 0;
#X connect 5 0 1 0;
#X connect 6 0 0 0;
#X connect 7 0 5 0;
#X connect 8 0 6 0;
#X connect 9 0 7 0;
#X connect 9 0 8 0;
#X connect 9 0 12 0;
#X connect 9 0 14 0;
#X connect 12 0 13 0;
#X connect 13 0 10 0;
#X connect 14 0 15 0;
#X connect 15 0 11 0;
#X restore 31 154 pd out;
#N canvas 0 22 552 289 in 0;
#X obj 31 38 inlet~;
#X obj 141 38 inlet~;
#X obj 31 108 outlet~;
#X obj 31 68 s~ \$1.-1A;
#X obj 141 68 s~ \$1.-1B;
#X obj 251 38 inlet~;
#X obj 251 68 s~ \$1.-1C;
#X obj 361 38 inlet~;
#X obj 361 68 s~ \$1.-1D;
#X connect 0 0 3 0;
#X connect 1 0 4 0;
#X connect 5 0 6 0;
#X connect 7 0 8 0;
#X restore 31 94 pd in;
#X obj 101 34 inlet~;
#X obj 101 214 outlet~;
#X obj 31 124 pddom.core~ \$1;
#X obj 171 34 inlet~;
#X obj 171 214 outlet~;
#X obj 241 34 inlet~;
#X obj 241 214 outlet~;
#X connect 0 0 8 1;
#X connect 2 0 5 0;
#X connect 4 0 3 0;
#X connect 4 1 7 0;
#X connect 4 2 10 0;
#X connect 4 3 12 0;
#X connect 5 0 8 0;
#X connect 6 0 5 1;
#X connect 8 0 4 0;
#X connect 8 1 4 1;
#X connect 9 0 5 2;
#X connect 11 0 5 3;
