#N canvas 583 22 589 353 10;
#X obj 321 34 inlet;
#X obj 321 254 outlet;
#X obj 31 34 inlet~;
#X obj 31 254 outlet~;
#N canvas 577 22 595 487 out 0;
#X obj 234 355 outlet~;
#X obj 114 355 outlet~;
#X obj 24 25 inlet~;
#X obj 354 355 outlet~;
#X obj 474 355 outlet~;
#X obj 114 125 route connect;
#X obj 114 95 route last;
#X obj 114 155 route set;
#X msg 114 285 set \$1.A;
#X msg 234 285 set \$1.B;
#X msg 354 285 set \$1.C;
#X msg 474 285 set \$1.D;
#X obj 114 185 symbol;
#X obj 114 25 r \$1;
#X msg 204 161;
#X msg 134 66 last connect set rack4.node.-1;
#X obj 114 315 r~ \$1.node.-1.A;
#X obj 234 315 r~ \$1.node.-1.B;
#X obj 354 315 r~ \$1.node.-1.C;
#X obj 474 315 r~ \$1.node.-1.D;
#X connect 5 0 7 0;
#X connect 5 0 14 0;
#X connect 6 0 5 0;
#X connect 7 0 12 0;
#X connect 8 0 16 0;
#X connect 9 0 17 0;
#X connect 10 0 18 0;
#X connect 11 0 19 0;
#X connect 12 0 11 0;
#X connect 12 0 10 0;
#X connect 12 0 9 0;
#X connect 12 0 8 0;
#X connect 13 0 6 0;
#X connect 15 0 6 0;
#X connect 16 0 1 0;
#X connect 17 0 0 0;
#X connect 18 0 3 0;
#X connect 19 0 4 0;
#X restore 31 154 pd out;
#N canvas 220 22 552 289 in 0;
#X obj 31 38 inlet~;
#X obj 141 38 inlet~;
#X obj 31 108 outlet~;
#X obj 251 38 inlet~;
#X obj 361 38 inlet~;
#X obj 31 68 s~ \$1.node.-1.A;
#X obj 141 68 s~ \$1.node.-1.B;
#X obj 251 68 s~ \$1.node.-1.C;
#X obj 361 68 s~ \$1.node.-1.D;
#X connect 0 0 5 0;
#X connect 1 0 6 0;
#X connect 3 0 7 0;
#X connect 4 0 8 0;
#X restore 31 94 pd in;
#X obj 101 34 inlet~;
#X obj 101 254 outlet~;
#X obj 171 34 inlet~;
#X obj 171 254 outlet~;
#X obj 241 34 inlet~;
#X obj 241 254 outlet~;
#X obj 31 124 pd-dom \$1;
#X connect 0 0 12 1;
#X connect 2 0 5 0;
#X connect 4 0 3 0;
#X connect 4 1 7 0;
#X connect 4 2 9 0;
#X connect 4 3 11 0;
#X connect 5 0 12 0;
#X connect 6 0 5 1;
#X connect 8 0 5 2;
#X connect 10 0 5 3;
#X connect 12 0 4 0;
