#N canvas 583 22 468 262 10;
#X obj 321 34 inlet;
#X obj 321 214 outlet;
#X obj 31 34 inlet~;
#X obj 31 214 outlet~;
#N canvas 207 104 595 487 out 0;
#X obj 214 355 outlet~;
#X obj 114 355 outlet~;
#X obj 24 25 inlet~;
#X obj 114 315 r~ \$1.-1A;
#X obj 214 315 r~ \$1.-1B;
#X msg 114 285 set \$1.\$2A;
#X msg 214 285 set \$1.\$2B;
#X obj 114 215 list prepend \$1;
#X obj 314 355 outlet~;
#X obj 414 355 outlet~;
#X msg 314 285 set \$1.\$2C;
#X obj 314 315 r~ \$1.-1C;
#X msg 414 285 set \$1.\$2D;
#X obj 414 315 r~ \$1.-1D;
#X obj 114 95 route connect;
#X msg 134 66 connect;
#X obj 114 125 b;
#N canvas 0 22 343 395 find.previous 0;
#X obj 24 25 inlet;
#X obj 24 325 outlet;
#X obj 47 125 list length;
#X obj 70 245 list split;
#X obj 70 215 list append;
#X obj 103 275 list split 1;
#N canvas 44 22 290 211 count.down 0;
#X obj 89 126 - 1;
#X obj 24 25 inlet;
#X obj 24 165 outlet;
#X obj 24 65 t a a;
#X obj 24 95 until;
#X obj 24 125 f;
#X obj 114 25 inlet;
#X connect 0 0 5 1;
#X connect 1 0 3 0;
#X connect 3 0 4 0;
#X connect 3 1 0 0;
#X connect 4 0 5 0;
#X connect 5 0 2 0;
#X connect 5 0 0 0;
#X connect 6 0 4 1;
#X restore 47 155 pd count.down;
#X obj 47 185 t a b a;
#X obj 24 215 f;
#X obj 235 275 b;
#X obj 24 65 list prepend 0;
#X obj 24 95 t b a a;
#X obj 24 245 - 1;
#X obj 103 305 select .;
#X text 83 25 find previous object;
#X connect 0 0 10 0;
#X connect 2 0 6 0;
#X connect 3 1 5 0;
#X connect 4 0 3 0;
#X connect 5 0 13 0;
#X connect 6 0 7 0;
#X connect 7 0 8 1;
#X connect 7 1 4 0;
#X connect 7 2 3 1;
#X connect 8 0 12 0;
#X connect 9 0 6 1;
#X connect 10 0 11 0;
#X connect 11 0 8 0;
#X connect 11 1 2 0;
#X connect 11 2 4 1;
#X connect 12 0 1 0;
#X connect 13 1 9 0;
#X restore 114 185 pd find.previous;
#X obj 114 25 r \$1.last;
#X obj 114 155 pddom.get \$1.nodes~;
#X connect 3 0 1 0;
#X connect 4 0 0 0;
#X connect 5 0 3 0;
#X connect 6 0 4 0;
#X connect 7 0 5 0;
#X connect 7 0 6 0;
#X connect 7 0 10 0;
#X connect 7 0 12 0;
#X connect 10 0 11 0;
#X connect 11 0 8 0;
#X connect 12 0 13 0;
#X connect 13 0 9 0;
#X connect 14 0 16 0;
#X connect 15 0 14 0;
#X connect 16 0 19 0;
#X connect 17 0 7 0;
#X connect 18 0 14 0;
#X connect 19 0 17 0;
#X restore 31 154 pd out;
#N canvas 0 22 552 289 in 0;
#X obj 31 38 inlet~;
#X obj 141 38 inlet~;
#X obj 31 108 outlet~;
#X obj 31 68 s~ \$1.-1A;
#X obj 141 68 s~ \$1.-1B;
#X obj 251 38 inlet~;
#X obj 251 68 s~ \$1.-1C;
#X obj 361 38 inlet~;
#X obj 361 68 s~ \$1.-1D;
#X connect 0 0 3 0;
#X connect 1 0 4 0;
#X connect 5 0 6 0;
#X connect 7 0 8 0;
#X restore 31 94 pd in;
#X obj 101 34 inlet~;
#X obj 101 214 outlet~;
#X obj 171 34 inlet~;
#X obj 171 214 outlet~;
#X obj 241 34 inlet~;
#X obj 241 214 outlet~;
#X obj 321 124 pddom.core \$1;
#X obj 381 34 r \$1;
#X obj 31 124 pddom.bin~ \$1;
#X connect 0 0 12 0;
#X connect 2 0 5 0;
#X connect 4 0 3 0;
#X connect 4 1 7 0;
#X connect 4 2 9 0;
#X connect 4 3 11 0;
#X connect 5 0 14 0;
#X connect 6 0 5 1;
#X connect 8 0 5 2;
#X connect 10 0 5 3;
#X connect 13 0 12 0;
#X connect 14 0 4 0;
