#N canvas 578 22 521 616 10;
#X declare -path ./ -path ../../;
#N canvas 36 307 749 360 more 0;
#X obj 33 330 outlet;
#X text 33 80 add multiple plugins to chain;
#X msg 103 230 disconnect 0 1 2;
#X msg 63 150 delete 2 1 0;
#X msg 281 250 clone 1 3;
#X text 33 20 this is just version 0.1 and some of the syntax might
change in 1;
#X msg 543 100 bang;
#X obj 543 160 print nodes;
#X msg 543 210 bang;
#X obj 543 270 print nodes~;
#X msg 83 190 reset;
#X text 63 130 delete many plugin at once (needs to be in reverse order)
;
#X msg 33 100 chain test.random-osc~ test.random-osc~ test.random-osc~
;
#X text 129 191 buggy at the moment;
#X obj 543 130 pddom.get rack1.nodes;
#X obj 543 240 pddom.get rack1.nodes~;
#X connect 2 0 0 0;
#X connect 3 0 0 0;
#X connect 6 0 14 0;
#X connect 8 0 15 0;
#X connect 10 0 0 0;
#X connect 12 0 0 0;
#X connect 14 0 7 0;
#X connect 15 0 9 0;
#X restore 310 395 pd more;
#N canvas 359 228 584 292 setup 0;
#X obj 32 254 outlet;
#X obj 32 44 hradio 15 1 0 3 empty empty empty 0 -8 0 10 -262144 -1
-1 0;
#X msg 32 74 dsp-tree-update-mode \$1;
#X text 229 54 1 = turn pd dsp off and on (slow on osx);
#X text 229 34 0 = create and delete a [+~] object (default);
#X text 229 74 2 = don't update dsp tree;
#X connect 1 0 2 0;
#X connect 2 0 0 0;
#X restore 310 425 pd setup;
#X obj 136 154 hradio 15 1 0 8 empty empty empty 0 -8 0 10 -262144
-1 -1 0;
#X msg 174 243 delete \$1;
#X obj 174 223 hradio 15 1 0 8 empty empty empty 0 -8 0 10 -262144
-1 -1 0;
#X msg 234 323 vis \$1;
#X obj 234 293 hradio 15 1 0 8 empty empty empty 0 -8 0 10 -262144
-1 -1 0;
#X obj 26 359 ../get.output~;
#X obj 122 467 declare -path ./ -path ../../;
#X obj 26 319 pd-dom4 rack1;
#X msg 77 104 add random-osc4~;
#X msg 135 174 set \$1 random-osc4~;
#X text 23 20 Example with 4 channels;
#X text 77 84 add new abstraction to tree;
#X text 136 134 create abstraction at position;
#X text 173 204 delete abstraction at node;
#X text 233 274 open abstraction at node;
#X connect 0 0 9 4;
#X connect 1 0 9 4;
#X connect 2 0 11 0;
#X connect 3 0 9 4;
#X connect 4 0 3 0;
#X connect 5 0 9 4;
#X connect 6 0 5 0;
#X connect 9 1 7 0;
#X connect 9 2 7 1;
#X connect 10 0 9 4;
#X connect 11 0 9 4;
