#N canvas 503 43 457 407 10;
#X obj 124 315 outlet~;
#X obj 24 315 outlet~;
#X obj 24 25 namecanvas \$1.\$2.vis;
#X obj 324 315 outlet~;
#X obj 224 315 outlet~;
#X obj 24 65 r \$1;
#X obj 24 125 route connect;
#X obj 24 95 route \$2;
#X obj 24 155 route set;
#X obj 24 185 symbol;
#X msg 24 255 set \$1.A;
#X msg 124 255 set \$1.B;
#X msg 224 255 set \$1.C;
#X msg 324 255 set \$1.D;
#X obj 224 65 loadbang;
#X obj 224 155 s \$1;
#X msg 224 125 connect \$1;
#X obj 224 95 f \$2;
#X msg 111 161;
#X obj 24 285 r~ \$1.node.-1.A;
#X obj 124 285 r~ \$1.node.-1.B;
#X obj 224 285 r~ \$1.node.-1.C;
#X obj 324 285 r~ \$1.node.-1.D;
#X connect 5 0 7 0;
#X connect 6 0 8 0;
#X connect 6 0 18 0;
#X connect 7 0 6 0;
#X connect 8 0 9 0;
#X connect 9 0 10 0;
#X connect 9 0 11 0;
#X connect 9 0 12 0;
#X connect 9 0 13 0;
#X connect 10 0 19 0;
#X connect 11 0 20 0;
#X connect 12 0 21 0;
#X connect 13 0 22 0;
#X connect 14 0 17 0;
#X connect 16 0 15 0;
#X connect 17 0 16 0;
#X connect 19 0 1 0;
#X connect 20 0 0 0;
#X connect 21 0 4 0;
#X connect 22 0 3 0;
