#N canvas 301 48 386 391 10;
#X obj 204 162 osc~;
#X obj 204 42 loadbang;
#X obj 204 102 + 57;
#X obj 204 132 mtof;
#X obj 204 72 random 12;
#X obj 56 154 pddom4.r~ \$1 \$2;
#X obj 56 214 pddom4.s~ \$1 \$2;
#X connect 0 0 6 0;
#X connect 0 0 6 1;
#X connect 0 0 6 2;
#X connect 0 0 6 3;
#X connect 1 0 4 0;
#X connect 2 0 3 0;
#X connect 3 0 0 0;
#X connect 4 0 2 0;
#X connect 5 0 6 0;
#X connect 5 1 6 1;
#X connect 5 2 6 2;
#X connect 5 3 6 3;
