#N canvas 301 48 333 313 10;
#X obj 36 174 pddom.to \$1 \$2;
#X obj 36 124 + 1;
#X obj 36 94 route float;
#X obj 36 44 pddom.from \$1 \$2;
#X connect 1 0 0 0;
#X connect 2 0 1 0;
#X connect 2 1 0 0;
#X connect 3 0 2 0;
