#N canvas 113 22 792 540 10;
#X declare -path ../abstractions/ -path ../../;
#X obj 579 67 r test;
#X msg 579 137 bang;
#X obj 30 27 declare -path ../abstractions/ -path ../../;
#X obj 150 107 utils/get.time;
#X obj 30 447 utils/test.equal \$0;
#N canvas 0 22 450 300 incoming 0;
#X msg 30 137;
#X obj 30 97 f \$0;
#X obj 30 67 route bang;
#X obj 30 27 r test.message.simple;
#X connect 1 0 0 0;
#X connect 2 0 1 0;
#X connect 2 1 0 0;
#X connect 3 0 2 0;
#X restore 579 27 pd incoming;
#X msg 30 387 (processed in: \$1 ms);
#X obj 250 237 t a a;
#X obj 290 297 s \$0.log;
#X obj 290 267 list prepend prepend try:;
#X obj 300 107 utils/get.time;
#X obj 300 67 r \$0.try;
#X obj 150 67 r \$0.set;
#X obj 30 227 f;
#X obj 30 67 r \$0.test;
#X obj 30 107 t b a;
#X obj 579 167 f \$0;
#X msg 579 197 \$1 0 \, \$1 1;
#X obj 370 357 pd-dom set-test;
#X obj 250 327 s set-test.to;
#X obj 250 387 r set-test.from;
#X msg 470 327 reset;
#X obj 470 297 r \$0.reset;
#X msg 669 137 bang;
#X obj 669 167 f \$0;
#X msg 669 197 \$1 0 \, \$1 1;
#X obj 579 97 route fail;
#X obj 669 97 route fail;
#X obj 669 67 r test;
#N canvas 84 22 384 408 pass 0;
#X obj 30 27 inlet;
#X msg 30 67 \; pd dsp \$2 \; \$1.print __ pd dsp \$2 \; \$1.print
__ [set 0 add1( then test -4 \; \$1.expect -3 \; \$1.set set 0 add1
\; \$1.test -4 \; \$1.expect 0 \; \$1.try -1 \; \$1.expect 1001 \;
\$1.try 1000 \; \$1.expect -0.5 \; \$1.try -1.5 \; \$1.print __ [set
5 add1( then test 1 \; \$1.expect 3 \; \$1.set set 5 add1 \; \$1.test
1 \; pd dsp 0 \; \$1.reset bang;
#X connect 0 0 1 0;
#X restore 579 237 pd pass;
#N canvas 372 22 384 408 fail 0;
#X obj 30 27 inlet;
#X msg 30 67 \; pd dsp \$2 \; \$1.print __ pd dsp \$2 \; \$1.print
__ should FAIL [set 0 add1( then test -1 \; \$1.expect -1 \; \$1.set
set 0 add1 \; \$1.test -1 \; \$1.expect 0.999 \; \$1.try -0.999 \;
pd dsp 0 \; \$1.reset bang;
#X connect 0 0 1 0;
#X restore 669 237 pd fail;
#X connect 0 0 26 0;
#X connect 1 0 16 0;
#X connect 3 0 13 1;
#X connect 3 1 18 1;
#X connect 6 0 4 0;
#X connect 7 0 19 0;
#X connect 7 1 9 0;
#X connect 9 0 8 0;
#X connect 10 0 6 0;
#X connect 10 1 7 0;
#X connect 11 0 10 0;
#X connect 12 0 3 0;
#X connect 13 0 6 0;
#X connect 14 0 15 0;
#X connect 15 0 13 0;
#X connect 15 1 7 0;
#X connect 16 0 17 0;
#X connect 17 0 29 0;
#X connect 20 0 4 1;
#X connect 21 0 18 1;
#X connect 22 0 21 0;
#X connect 23 0 24 0;
#X connect 24 0 25 0;
#X connect 25 0 30 0;
#X connect 26 1 1 0;
#X connect 27 0 23 0;
#X connect 28 0 27 0;
