#N canvas 389 28 859 470 10;
#X declare -path ../abstractions/ -path ../../;
#X obj 45 276 pd-dom message;
#X msg 295 67 add bypass;
#X msg 551 149 bang;
#X obj 551 209 print nodes;
#X msg 553 260 bang;
#X obj 553 320 print nodes~;
#X obj 551 99 print verbose;
#X obj 551 69 spigot;
#X obj 621 39 tgl 15 0 empty empty empty 17 7 0 10 -262144 -1 -1 1
1;
#X obj 551 179 pddom.get message.nodes;
#X obj 553 290 pddom.get message.nodes~;
#X obj 45 326 ../../utils/get.snapshot~;
#X obj 45 226 sig~ 1.2345;
#X msg 295 130 add sig1~;
#X msg 295 100 add add1;
#X msg 295 349 vis \$1;
#X obj 295 319 hradio 15 1 0 8 empty empty empty 0 -8 0 10 -262144
-1 -1 0;
#X floatatom 45 86 5 0 0 0 - - -;
#X obj 551 39 r message;
#X obj 295 159 hradio 15 1 0 8 empty empty empty 0 -8 0 10 -262144
-1 -1 0;
#X obj 45 116 s message.to;
#X obj 45 146 r message.from;
#X obj 45 176 print message.from;
#X obj 295 219 hradio 15 1 0 8 empty empty empty 0 -8 0 10 -262144
-1 -1 0;
#X msg 295 249 delete \$1;
#X msg 295 189 set \$1 add1;
#X msg 295 279 reset;
#X obj 46 36 declare -path ../abstractions/ -path ../../;
#X msg 85 86 1;
#X msg 555 364 \; pd-node.first vis 1 \; pd-pddom.to.pd vis 1 \; pd-pddom.to~.pd
vis 1;
#X connect 0 0 11 0;
#X connect 1 0 0 1;
#X connect 2 0 9 0;
#X connect 4 0 10 0;
#X connect 7 0 6 0;
#X connect 8 0 7 1;
#X connect 9 0 3 0;
#X connect 10 0 5 0;
#X connect 12 0 0 0;
#X connect 13 0 0 1;
#X connect 14 0 0 1;
#X connect 15 0 0 1;
#X connect 16 0 15 0;
#X connect 17 0 20 0;
#X connect 18 0 7 0;
#X connect 19 0 25 0;
#X connect 21 0 22 0;
#X connect 23 0 24 0;
#X connect 24 0 0 1;
#X connect 25 0 0 1;
#X connect 26 0 0 1;
#X connect 28 0 20 0;
