#N canvas 370 22 859 470 10;
#X declare -path ./ -path ../../;
#X msg 295 247 vis 0;
#X obj 236 56 declare -path ./ -path ../../;
#X obj 45 296 pd-dom message;
#X msg 295 147 add bypass;
#X msg 551 169 bang;
#X obj 551 229 print nodes;
#X msg 553 280 bang;
#X obj 553 340 print nodes~;
#X obj 551 49 r rack1;
#X obj 551 109 print verbose;
#X obj 551 79 spigot;
#X obj 621 49 tgl 15 0 empty empty empty 17 7 0 10 -262144 -1 -1 0
1;
#X obj 551 199 pddom.get message.nodes;
#X obj 553 310 pddom.get message.nodes~;
#X obj 45 346 ../../utils/get.snapshot~;
#X obj 45 246 sig~ 1.2345;
#X msg 295 210 add sig1~;
#X msg 295 180 add add1;
#X connect 0 0 2 1;
#X connect 2 0 14 0;
#X connect 3 0 2 1;
#X connect 4 0 12 0;
#X connect 6 0 13 0;
#X connect 8 0 10 0;
#X connect 10 0 9 0;
#X connect 11 0 10 1;
#X connect 12 0 5 0;
#X connect 13 0 7 0;
#X connect 15 0 2 0;
#X connect 16 0 2 1;
#X connect 17 0 2 1;
