#N canvas 0 22 411 285 10;
#X obj 24 25 inlet;
#X obj 24 235 outlet;
#X obj 24 65 t b b;
#X obj 24 165 spigot;
#X obj 24 195 t a b;
#X obj 154 115 f 1;
#X obj 156 176 f 0;
#X obj 24 95 s \$1.get;
#X obj 24 135 r \$1;
#X connect 0 0 2 0;
#X connect 2 0 7 0;
#X connect 2 1 5 0;
#X connect 3 0 4 0;
#X connect 4 0 1 0;
#X connect 4 1 6 0;
#X connect 5 0 3 1;
#X connect 6 0 3 1;
#X connect 8 0 3 0;
