#N canvas 96 22 798 687 10;
#X declare -path ./ -path ../../;
#X obj 170 27 declare -path ./ -path ../../;
#X obj 30 647 outlet;
#X msg 30 57 bang;
#X floatatom 150 567 5 0 0 0 - - -;
#X symbolatom 60 567 10 0 0 0 - - -;
#N canvas 204 22 413 303 del 0;
#X obj 26 31 inlet;
#X obj 76 121 samplerate~;
#X obj 26 151 /;
#X obj 26 91 t a b;
#X msg 26 61 1000;
#X obj 26 211 delay;
#X obj 26 241 outlet;
#X obj 26 181 * 64;
#N canvas 677 22 582 299 why-one-block 0;
#X obj 75 193 sig~;
#X obj 42 103 t b b;
#X obj 75 133 f 1;
#X floatatom 42 254 5 0 0 0 - - -;
#X obj 42 224 snapshot~;
#X obj 328 195 sig~;
#X obj 255 105 t b b;
#X obj 328 135 f 1;
#X floatatom 255 256 5 0 0 0 - - -;
#X msg 388 155 0;
#X obj 255 226 snapshot~;
#X text 420 154 reset;
#N canvas 204 22 450 300 del 0;
#X obj 26 31 inlet;
#X obj 76 121 samplerate~;
#X obj 26 151 /;
#X obj 26 91 t a b;
#X msg 26 61 1000;
#X obj 26 211 delay;
#X obj 26 241 outlet;
#X obj 26 181 * 64;
#X connect 0 0 4 0;
#X connect 1 0 2 1;
#X connect 2 0 7 0;
#X connect 3 0 2 0;
#X connect 3 1 1 0;
#X connect 4 0 3 0;
#X connect 5 0 6 0;
#X connect 7 0 5 0;
#X restore 255 135 pd del;
#X msg 42 43 set sig~ and convert signal to a number with snapshot~
wont imediately display the current set value. It will take another
block read the set sig~value.;
#X connect 0 0 4 0;
#X connect 1 0 4 0;
#X connect 1 1 2 0;
#X connect 2 0 0 0;
#X connect 4 0 3 0;
#X connect 5 0 10 0;
#X connect 6 0 12 0;
#X connect 6 1 7 0;
#X connect 7 0 5 0;
#X connect 9 0 5 0;
#X connect 9 0 0 0;
#X connect 10 0 8 0;
#X connect 12 0 10 0;
#X connect 13 0 1 0;
#X connect 13 0 6 0;
#X restore 186 31 pd why-one-block;
#X connect 0 0 4 0;
#X connect 1 0 2 1;
#X connect 2 0 7 0;
#X connect 3 0 2 0;
#X connect 3 1 1 0;
#X connect 4 0 3 0;
#X connect 5 0 6 0;
#X connect 7 0 5 0;
#X restore 30 217 pd del;
#X obj 30 27 inlet;
#N canvas 804 22 338 358 passed? 0;
#X obj 37 34 inlet;
#X obj 37 184 outlet;
#X msg 37 124 symbol passed;
#X msg 167 124 symbol failed;
#X obj 37 74 select 1;
#X connect 0 0 4 0;
#X connect 2 0 1 0;
#X connect 3 0 1 0;
#X connect 4 0 2 0;
#X connect 4 1 3 0;
#X restore 30 467 pd passed?;
#X msg 450 237 set 0 shift~;
#X obj 280 277 pd-dom shift;
#N canvas 0 22 450 300 (subpatch) 0;
#X array shift-in 64 float 2;
#X coords 0 1 63 -1 200 70 1;
#X restore 560 237 graph;
#N canvas 0 22 450 300 (subpatch) 0;
#X array shift-out 64 float 2;
#X coords 0 1 63 -1 200 70 1;
#X restore 560 337 graph;
#X msg 460 272 vis 0;
#X msg 90 137 \; pd dsp 1 \; shift.0 shift 5;
#X obj 30 167 t b b;
#X obj 30 87 t b b b b;
#X obj 280 237 tabplay~ shift-in;
#X obj 30 317 tabread shift-out;
#X obj 280 317 tabwrite~ shift-out;
#X msg 262 109 \; pd dsp 0 \; shift-in const 0 \, 0 0.5 1 -0.5 \; shift-out
const 0;
#X obj 30 497 pack s f f f;
#X obj 60 537 unpack s f f f;
#X floatatom 200 567 5 0 0 0 - - -;
#X floatatom 250 567 5 0 0 0 - - -;
#X obj 30 437 &&;
#X obj 90 437 &&;
#X msg 30 247 5 6 7;
#X obj 30 277 unpack f f f;
#X obj 30 377 == 0.5;
#X obj 30 347 t f f;
#X obj 90 347 tabread shift-out;
#X obj 90 377 t f f;
#X obj 150 377 tabread shift-out;
#X obj 150 407 t f f;
#X obj 90 407 == 1;
#X obj 150 437 == -0.5;
#X msg 30 607 \$1: "shift signal by 5 samples" got \$2 \$3 \$4 at position
5 expect 0.5 1 -0.5;
#X connect 2 0 15 0;
#X connect 5 0 26 0;
#X connect 6 0 2 0;
#X connect 7 0 20 0;
#X connect 8 0 9 1;
#X connect 9 0 18 0;
#X connect 12 0 9 1;
#X connect 14 0 5 0;
#X connect 14 1 16 0;
#X connect 14 1 18 0;
#X connect 15 0 14 0;
#X connect 15 1 13 0;
#X connect 15 2 8 0;
#X connect 15 3 19 0;
#X connect 16 0 9 0;
#X connect 17 0 29 0;
#X connect 20 0 36 0;
#X connect 20 0 21 0;
#X connect 21 0 4 0;
#X connect 21 1 3 0;
#X connect 21 2 22 0;
#X connect 21 3 23 0;
#X connect 24 0 7 0;
#X connect 25 0 24 1;
#X connect 26 0 27 0;
#X connect 27 0 17 0;
#X connect 27 1 30 0;
#X connect 27 2 32 0;
#X connect 28 0 24 0;
#X connect 29 0 28 0;
#X connect 29 1 20 1;
#X connect 30 0 31 0;
#X connect 31 0 34 0;
#X connect 31 1 20 2;
#X connect 32 0 33 0;
#X connect 33 0 35 0;
#X connect 33 1 20 3;
#X connect 34 0 25 0;
#X connect 35 0 25 1;
#X connect 36 0 1 0;
