#N canvas 525 207 352 447 10;
#N canvas 306 22 450 300 write 0;
#X obj 25 28 inlet~;
#X obj 25 138 outlet~;
#X obj 25 58 delwrite~ \$0-delay 100;
#X connect 0 0 2 0;
#X restore 29 79 pd write;
#N canvas 306 22 450 300 read 0;
#X obj 25 28 inlet~;
#X obj 25 138 outlet~;
#X obj 95 28 inlet;
#X obj 25 108 delread~ \$0-delay;
#X connect 2 0 3 0;
#X connect 3 0 1 0;
#X restore 29 309 pd read;
#X obj 211 209 samplerate~;
#X obj 179 179 t a b;
#X obj 179 269 /;
#X obj 211 239 / 1000;
#X obj 209 109 loadbang;
#X obj 179 39 r \$1.\$2;
#X obj 29 349 pddom.to~ \$1 \$2;
#X obj 179 69 route shift;
#X obj 209 139 f 0;
#X obj 29 39 pddom.from~ \$1 \$2;
#X connect 0 0 1 0;
#X connect 1 0 8 0;
#X connect 2 0 5 0;
#X connect 3 0 4 0;
#X connect 3 1 2 0;
#X connect 4 0 1 1;
#X connect 5 0 4 1;
#X connect 6 0 10 0;
#X connect 7 0 9 0;
#X connect 9 0 3 0;
#X connect 10 0 3 0;
#X connect 11 0 0 0;
