#N canvas 327 22 811 723 10;
#X declare -path ../abstractions/ -path ../../;
#X msg 30 27 bang;
#N canvas 204 22 413 303 del 0;
#X obj 26 31 inlet;
#X obj 76 121 samplerate~;
#X obj 26 151 /;
#X obj 26 91 t a b;
#X msg 26 61 1000;
#X obj 26 211 delay;
#X obj 26 241 outlet;
#X obj 26 181 * 64;
#N canvas 677 22 582 299 why-one-block 0;
#X obj 75 193 sig~;
#X obj 42 103 t b b;
#X obj 75 133 f 1;
#X floatatom 42 254 5 0 0 0 - - -;
#X obj 42 224 snapshot~;
#X obj 328 195 sig~;
#X obj 255 105 t b b;
#X obj 328 135 f 1;
#X floatatom 255 256 5 0 0 0 - - -;
#X msg 388 155 0;
#X obj 255 226 snapshot~;
#X text 420 154 reset;
#N canvas 204 22 450 300 del 0;
#X obj 26 31 inlet;
#X obj 76 121 samplerate~;
#X obj 26 151 /;
#X obj 26 91 t a b;
#X msg 26 61 1000;
#X obj 26 211 delay;
#X obj 26 241 outlet;
#X obj 26 181 * 64;
#X connect 0 0 4 0;
#X connect 1 0 2 1;
#X connect 2 0 7 0;
#X connect 3 0 2 0;
#X connect 3 1 1 0;
#X connect 4 0 3 0;
#X connect 5 0 6 0;
#X connect 7 0 5 0;
#X restore 255 135 pd del;
#X msg 42 43 set sig~ and convert signal to a number with snapshot~
wont imediately display the current set value. It will take another
block read the set sig~value.;
#X connect 0 0 4 0;
#X connect 1 0 4 0;
#X connect 1 1 2 0;
#X connect 2 0 0 0;
#X connect 4 0 3 0;
#X connect 5 0 10 0;
#X connect 6 0 12 0;
#X connect 6 1 7 0;
#X connect 7 0 5 0;
#X connect 9 0 5 0;
#X connect 9 0 0 0;
#X connect 10 0 8 0;
#X connect 12 0 10 0;
#X connect 13 0 1 0;
#X connect 13 0 6 0;
#X restore 186 31 pd why-one-block;
#X connect 0 0 4 0;
#X connect 1 0 2 1;
#X connect 2 0 7 0;
#X connect 3 0 2 0;
#X connect 3 1 1 0;
#X connect 4 0 3 0;
#X connect 5 0 6 0;
#X connect 7 0 5 0;
#X restore 30 177 pd del;
#X obj 290 307 pd-dom shift;
#N canvas 0 22 450 300 (subpatch) 0;
#X array shift-in 64 float 2;
#X coords 0 1 63 -1 200 70 1;
#X restore 560 47 graph;
#N canvas 0 22 450 300 (subpatch) 0;
#X array shift-out 64 float 2;
#X coords 0 1 63 -1 200 70 1;
#X restore 560 147 graph;
#X msg 470 302 vis 0;
#X obj 30 137 t b b;
#X obj 290 267 tabplay~ shift-in;
#X obj 30 277 tabread shift-out;
#X obj 290 347 tabwrite~ shift-out;
#X obj 30 397 &&;
#X obj 90 397 &&;
#X msg 30 207 5 6 7;
#X obj 30 237 unpack f f f;
#X obj 30 337 == 0.5;
#X obj 30 307 t f f;
#X obj 90 307 tabread shift-out;
#X obj 90 337 t f f;
#X obj 150 337 tabread shift-out;
#X obj 150 367 t f f;
#X obj 90 367 == 1;
#X obj 150 397 == -0.5;
#X obj 170 27 declare -path ../abstractions/ -path ../../;
#X obj 475 354 r \$0.in;
#X obj 290 117 f \$0;
#X msg 290 147 \; pd dsp 0 \; shift-in const 0 \, 0 0.5 1 -0.5 \; shift-out
const 0 \; \$1.in set 0 shift~ \, add bypass~ \; pd dsp 1 \; shift.0
shift 5;
#X obj 30 87 t b b;
#X obj 70 577 route 1 0;
#X obj 70 637 print PASSED;
#X obj 100 607 print FAILED;
#X obj 30 457 pack f f f f;
#X msg 70 517 \$1 add shift~ and bypass~ abstractions. then delay signal
by 5 samples. got '\$2 \$3 \$4' at table position 5 expect '0.5 1 -0.5'
;
#X obj 40 57 r test;
#X obj 100 57 inlet;
#X obj 30 487 t b a;
#X obj 30 667 outlet;
#X connect 0 0 26 0;
#X connect 1 0 12 0;
#X connect 2 0 9 0;
#X connect 5 0 2 1;
#X connect 6 0 1 0;
#X connect 6 1 7 0;
#X connect 6 1 9 0;
#X connect 7 0 2 0;
#X connect 8 0 15 0;
#X connect 10 0 30 0;
#X connect 11 0 10 1;
#X connect 12 0 13 0;
#X connect 13 0 8 0;
#X connect 13 1 16 0;
#X connect 13 2 18 0;
#X connect 14 0 10 0;
#X connect 15 0 14 0;
#X connect 15 1 30 1;
#X connect 16 0 17 0;
#X connect 17 0 20 0;
#X connect 17 1 30 2;
#X connect 18 0 19 0;
#X connect 19 0 21 0;
#X connect 19 1 30 3;
#X connect 20 0 11 0;
#X connect 21 0 11 1;
#X connect 23 0 2 1;
#X connect 24 0 25 0;
#X connect 26 0 6 0;
#X connect 26 1 24 0;
#X connect 27 0 28 0;
#X connect 27 1 29 0;
#X connect 30 0 34 0;
#X connect 31 0 27 0;
#X connect 32 0 26 0;
#X connect 33 0 26 0;
#X connect 34 0 35 0;
#X connect 34 1 31 0;
