#N canvas 277 22 859 470 10;
#X declare -path ./ -path ../ -path ../../;
#N canvas 0 22 450 300 (subpatch) 0;
#X array shift-1sample 64 float 2;
#X coords 0 1.1 64 -0.1 200 40 1;
#X restore 608 122 graph;
#N canvas 0 22 450 300 (subpatch) 0;
#X array shift-1sample-result 64 float 2;
#X coords 0 1.1 64 -0.1 200 40 1;
#X restore 608 312 graph;
#X msg 295 247 vis 0;
#X obj 236 56 declare -path ./ -path ../ -path ../../;
#X obj 45 296 pd-dom shift-1sample;
#X obj 45 366 tabwrite~ shift-1sample-result;
#X obj 611 191 hsl 195 20 0 63 0 0 empty empty empty -2 -8 0 10 -262144
-1 -1 6300 1;
#X obj 45 246 tabplay~ shift-1sample;
#X obj 46 56 loadbang;
#X msg 46 146 \; shift-1sample const \, 0 1 \; pd dsp 1;
#X obj 46 86 t b b;
#X obj 45 216 r shift-1sample-update;
#X obj 65 336 r shift-1sample-update;
#X msg 608 232 \; shift-1sample.0 shift \$1 \; shift-1sample-update
bang;
#X msg 295 197 add bypass~ \, add bypass~;
#X msg 295 147 set 0 shift~ \, add bypass~;
#X connect 2 0 4 1;
#X connect 4 0 5 0;
#X connect 6 0 13 0;
#X connect 7 0 4 0;
#X connect 8 0 10 0;
#X connect 10 0 9 0;
#X connect 10 1 15 0;
#X connect 11 0 7 0;
#X connect 12 0 5 0;
#X connect 14 0 4 1;
#X connect 15 0 4 1;
